<?xml version="1.0" standalone="no"?>
<!DOCTYPE svg PUBLIC "-//W3C//DTD SVG 1.1//EN" "http://www.w3.org/Graphics/SVG/1.1/DTD/svg11.dtd" >
<svg>
<metadata>
Created by FontForge 20120731 at Wed Jan 10 14:54:52 2018
 By www-data
Copyright \\2512013 Commercial Type.
</metadata>
<defs>
<font id="Portrait-Bold" horiz-adv-x="400" >
  <font-face 
    font-family="Portrait Bold"
    font-weight="700"
    font-stretch="normal"
    units-per-em="1000"
    panose-1="0 0 0 0 0 0 0 0 0 0"
    ascent="730"
    descent="-270"
    x-height="431"
    cap-height="662"
    bbox="-46 -268 1297 1023"
    underline-thickness="34"
    underline-position="-88"
    stemh="59"
    stemv="244"
    unicode-range="U+0020-FB04"
  />
<missing-glyph horiz-adv-x="500" 
 />
    <glyph glyph-name="f_b" unicode="fb" horiz-adv-x="823" 
d="M205 57l72 -51v-6h-263v6l56 50v306h-74v6l74 57v28c0 155 129 263 288 263c54 0 108 -10 137 -16v-319c44 36 92 62 138 62c76 0 164 -61 164 -194c0 -179 -135 -256 -249 -256c-40 0 -123 7 -184 7h-5v644c-6 3 -23 11 -46 11c-52 0 -108 -44 -108 -146v-81h126
l-45 -66h-81v-305zM552 361c-26 0 -48 -10 -57 -17v-278c11 -8 26 -17 54 -17c64 0 109 64 109 159c0 93 -40 153 -106 153z" />
    <glyph glyph-name="f_f" unicode="ff" horiz-adv-x="617" 
d="M204 57l63 -51v-6h-253v6l56 50v306h-74v6l74 57v25c0 152 124 263 264 263c31 0 60 -5 74 -8l-40 -89c-27 15 -71 36 -91 36c-25 0 -73 -41 -73 -146v-78h144v25c0 153 126 263 281 263c43 0 85 -7 103 -12l-42 -98c-27 16 -92 48 -122 48s-86 -42 -86 -147v-79h147
l-47 -66h-100v-301l94 -55v-6h-283v6l55 50v306h-144v-305z" />
    <glyph glyph-name="f_f_b" unicode="ffb" horiz-adv-x="1100" 
d="M204 57l63 -51v-6h-253v6l56 50v306h-74v6l74 57v25c0 152 124 263 264 263c31 0 60 -5 74 -8l-40 -89c-27 15 -71 36 -91 36c-25 0 -73 -41 -73 -146v-78h143v25c0 155 129 263 288 263c54 0 108 -10 137 -16v-319c44 36 92 62 138 62c77 0 164 -61 164 -194
c0 -179 -135 -256 -249 -256c-40 0 -123 7 -184 7h-5v644c-6 3 -23 11 -46 11c-52 0 -108 -44 -108 -146v-81h126l-44 -66h-82v-305l72 -51v-6h-263v6l56 50v306h-143v-305zM829 361c-26 0 -48 -10 -56 -17v-278c10 -8 25 -17 53 -17c64 0 109 64 109 159
c0 93 -40 153 -106 153z" />
    <glyph glyph-name="f_f_h" unicode="ffh" horiz-adv-x="1123" 
d="M204 57l63 -51v-6h-253v6l56 50v306h-74v6l74 57v25c0 152 124 263 264 263c31 0 60 -5 74 -8l-40 -89c-27 15 -71 36 -91 36c-25 0 -73 -41 -73 -146v-78h143v25c0 155 129 263 288 263c54 0 108 -10 136 -16v-334c55 53 109 77 152 77c87 0 135 -68 135 -105v-282
l55 -50v-6h-243v6l53 50v243c0 28 -23 58 -75 58c-38 0 -65 -20 -77 -31v-270l56 -50v-6h-245v6l54 50v588c-6 3 -23 11 -46 11c-52 0 -108 -44 -108 -146v-81h126l-44 -66h-82v-305l72 -51v-6h-263v6l56 50v306h-143v-305z" />
    <glyph glyph-name="f_f_i" unicode="ffi" horiz-adv-x="828" 
d="M204 57l63 -51v-6h-253v6l56 50v306h-74v6l74 57v25c0 152 124 263 264 263c31 0 60 -5 74 -8l-40 -89c-27 15 -71 36 -91 36c-25 0 -73 -41 -73 -146v-78h143v25c0 153 126 263 283 263c48 0 93 -11 114 -18l-45 -108c-41 28 -97 64 -132 64c-28 0 -85 -42 -85 -147v-79
h213l65 18v-390l56 -50v-6h-245v6l54 50v306h-143v-305l63 -51v-6h-254v6l56 50v306h-143v-305z" />
    <glyph glyph-name="f_f_j" unicode="ffj" horiz-adv-x="807" 
d="M204 57l63 -51v-6h-253v6l56 50v306h-74v6l74 57v25c0 152 124 263 264 263c31 0 60 -5 74 -8l-40 -89c-27 15 -71 36 -91 36c-25 0 -73 -41 -73 -146v-78h143v25c0 152 127 263 279 263c47 0 89 -10 108 -15l-44 -108c-41 28 -95 61 -126 61c-25 0 -82 -43 -82 -147v-79
h202c23 7 46 13 68 19v-402c0 -47 -39 -165 -185 -283l-9 8c34 74 59 163 59 267v325h-135v-305l63 -51v-6h-254v6l56 50v306h-143v-305z" />
    <glyph glyph-name="f_f_k" unicode="ffk" horiz-adv-x="1101" 
d="M204 57l63 -51v-6h-253v6l56 50v306h-74v6l74 57v25c0 152 124 263 264 263c31 0 60 -5 74 -8l-40 -89c-27 15 -71 36 -91 36c-25 0 -73 -41 -73 -146v-78h143v25c0 155 129 263 288 263c54 0 108 -10 136 -16v-644l56 -50v-6h-245v6l54 50v588c-6 3 -23 11 -46 11
c-52 0 -108 -44 -108 -146v-81h126l-44 -66h-82v-305l72 -51v-6h-263v6l56 50v306h-143v-305zM876 78l-93 137v6l112 147l-59 57v6h241v-7l-105 -57l-82 -86l106 -153c52 -75 80 -102 104 -122v-6c-14 -4 -52 -12 -83 -12c-68 0 -97 27 -141 90z" />
    <glyph glyph-name="f_f_l" unicode="ffl" horiz-adv-x="839" 
d="M204 57l63 -51v-6h-253v6l56 50v306h-74v6l74 57v25c0 152 124 263 264 263c31 0 60 -5 74 -8l-40 -89c-27 15 -71 36 -91 36c-25 0 -73 -41 -73 -146v-78h143v25c0 155 129 263 288 263c54 0 108 -10 136 -16v-644l56 -50v-6h-245v6l54 50v588c-6 3 -23 11 -46 11
c-52 0 -108 -44 -108 -146v-81h126l-44 -66h-82v-305l72 -51v-6h-263v6l56 50v306h-143v-305z" />
    <glyph glyph-name="f_h" unicode="fh" horiz-adv-x="845" 
d="M550 0h-245v6l54 50v588c-6 3 -23 11 -46 11c-52 0 -108 -44 -108 -146v-81h126l-45 -66h-81v-305l72 -51v-6h-263v6l56 50v306h-74v6l74 57v28c0 155 129 263 288 263c54 0 107 -10 136 -16v-334c55 53 109 77 152 77c87 0 135 -68 135 -105v-282l55 -50v-6h-243v6
l53 50v243c0 28 -23 58 -75 58c-38 0 -65 -20 -77 -31v-270l56 -50v-6z" />
    <glyph glyph-name="f_i" unicode="fi" horiz-adv-x="551" 
d="M205 57l63 -51v-6h-254v6l56 50v306h-74v6l74 57v28c0 153 126 263 283 263c47 0 92 -11 114 -18l-45 -108c-41 28 -97 64 -132 64c-28 0 -85 -42 -85 -147v-79h213l65 18v-390l56 -50v-6h-245v6l54 50v306h-143v-305z" />
    <glyph glyph-name="f_j" unicode="fj" horiz-adv-x="529" 
d="M287 654c-25 0 -82 -43 -82 -147v-79h202c23 7 46 13 68 19v-402c0 -47 -39 -165 -186 -283l-8 8c33 74 59 163 59 267v325h-135v-305l63 -51v-6h-254v6l56 50v306h-74v6l74 57v28c0 152 127 263 279 263c46 0 89 -10 108 -15l-44 -108c-42 28 -95 61 -126 61z" />
    <glyph glyph-name="f_k" unicode="fk" horiz-adv-x="824" 
d="M205 57l72 -51v-6h-263v6l56 50v306h-74v6l74 57v28c0 155 129 263 288 263c54 0 107 -10 136 -16v-644l56 -50v-6h-245v6l54 50v588c-6 3 -23 11 -46 11c-52 0 -108 -44 -108 -146v-81h126l-45 -66h-81v-305zM599 78l-93 137v6l112 147l-59 57v6h240v-7l-103 -56
l-83 -87l105 -153c53 -75 81 -102 105 -122v-6c-14 -4 -52 -12 -84 -12c-67 0 -96 27 -140 90z" />
    <glyph glyph-name="f_l" unicode="fl" horiz-adv-x="562" 
d="M359 56v588c-6 3 -23 11 -46 11c-52 0 -108 -44 -108 -146v-81h126l-45 -66h-81v-305l72 -51v-6h-263v6l56 50v306h-74v6l74 57v28c0 155 129 263 288 263c54 0 107 -10 136 -16v-644l56 -50v-6h-245v6z" />
    <glyph glyph-name="g_g" unicode="gg" horiz-adv-x="933" 
d="M485 305c0 76 77 140 189 140c32 0 64 -5 91 -14h155v-56h-83c17 -19 29 -43 29 -66c0 -77 -62 -144 -192 -144c-20 0 -39 2 -57 6c-14 -14 -20 -26 -20 -38c0 -18 14 -28 28 -28h186c30 0 104 -42 104 -132c0 -117 -118 -227 -270 -227c-113 0 -173 50 -173 100
c0 49 56 109 96 141c-38 13 -73 46 -73 98c0 26 9 45 15 51l70 46c-55 23 -95 65 -95 123zM30 305c0 76 77 140 189 140c32 0 64 -5 91 -14h149v-56h-77c17 -19 29 -43 29 -66c0 -77 -62 -144 -192 -144c-21 0 -41 2 -60 6c-14 -14 -20 -26 -20 -38c0 -18 14 -28 28 -28h184
c30 0 104 -42 104 -132c0 -117 -118 -227 -270 -227c-112 0 -172 50 -172 100c0 49 57 110 96 141c-38 14 -72 46 -72 98c0 26 9 45 15 51l71 47c-54 23 -93 65 -93 122zM753 -21h-151c-14 -15 -36 -52 -36 -84c0 -34 39 -68 118 -68c77 0 134 43 134 95c0 42 -36 57 -65 57
zM293 -21h-151c-14 -15 -35 -52 -35 -84c0 -33 39 -68 118 -68c77 0 133 43 133 95c0 42 -36 57 -65 57zM611 305c0 -51 32 -94 65 -94c36 0 64 43 64 94c0 52 -28 95 -64 95c-35 0 -65 -44 -65 -95zM156 305c0 -51 32 -94 65 -94c36 0 64 43 64 94c0 52 -28 95 -64 95
c-35 0 -65 -44 -65 -95z" />
    <glyph glyph-name=".notdef" horiz-adv-x="500" 
 />
    <glyph glyph-name="d" unicode="d" horiz-adv-x="531" 
d="M329 604l-69 47v6c17 8 129 50 204 69v-640l72 -41v-7s-137 -35 -202 -49v62c-28 -25 -80 -62 -121 -62c-91 0 -188 77 -188 206s89 239 257 239c18 0 37 -1 47 -1v171zM287 74c16 0 35 7 42 12v275c-6 8 -24 21 -54 21c-64 0 -110 -64 -110 -153c0 -93 50 -155 122 -155
z" />
    <glyph glyph-name="n" unicode="n" horiz-adv-x="556" 
d="M259 0h-245v6l56 50v282l-54 43v6c18 7 114 40 188 59v-80c55 53 110 77 153 77c86 0 134 -67 134 -105v-282l56 -50v-6h-244v6l54 50v243c0 28 -23 58 -75 58c-40 0 -67 -21 -78 -32v-269l55 -50v-6z" />
    <glyph glyph-name="o" unicode="o" horiz-adv-x="521" 
d="M22 210c0 147 128 233 239 233c113 0 239 -73 239 -222c0 -150 -129 -233 -242 -233c-110 0 -236 73 -236 222zM168 216c0 -98 45 -173 93 -173c47 0 93 76 93 173c0 101 -43 173 -93 173c-49 0 -93 -75 -93 -173z" />
    <glyph glyph-name="i" unicode="i" horiz-adv-x="272" 
d="M260 0h-246v6l56 50v282l-54 43v6c18 7 114 40 188 59v-390l56 -50v-6zM64 574c0 40 31 70 70 70c40 0 71 -30 71 -70c0 -39 -31 -68 -71 -68c-39 0 -70 29 -70 68z" />
    <glyph glyph-name="a" unicode="a" horiz-adv-x="460" 
d="M266 315c0 30 -24 54 -64 54c-25 0 -44 -12 -50 -17v-81l-118 40v6c28 33 103 127 221 127c109 0 143 -71 143 -109c0 -49 -3 -217 -3 -244c18 -11 46 -23 67 -30v-6l-84 -77c-36 12 -81 37 -108 67c-35 -33 -83 -58 -113 -58c-81 0 -134 55 -134 117c0 39 20 73 39 78
l204 50v83zM265 77c0 15 1 57 1 108c-35 -9 -103 -29 -109 -32c-4 -2 -7 -14 -7 -26c0 -35 24 -61 68 -61c21 0 39 7 47 11z" />
    <glyph glyph-name="s" unicode="s" horiz-adv-x="366" 
d="M210 443c41 0 87 -9 102 -13v-109h-6c-56 53 -88 72 -116 72c-19 0 -36 -13 -36 -35c0 -29 24 -44 69 -73c58 -38 117 -72 117 -151c0 -84 -72 -144 -181 -144c-55 0 -105 16 -123 23c-5 31 -9 105 -8 158h8c22 -46 67 -122 129 -122c31 0 50 20 50 47
c0 33 -22 50 -70 80c-63 39 -103 78 -103 143c0 72 60 124 168 124z" />
    <glyph glyph-name="l" unicode="l" horiz-adv-x="272" 
d="M204 726v-670l56 -50v-6h-246v6l56 50v550l-59 47v6c18 9 120 48 193 67z" />
    <glyph glyph-name="e" unicode="e" horiz-adv-x="435" 
d="M148 256c0 -110 61 -174 166 -174c45 0 87 11 109 20l4 -7c-23 -34 -94 -105 -194 -105c-122 0 -210 88 -210 218c0 140 113 235 213 235c110 0 157 -95 182 -169v-4h-270v-14zM231 391c-28 0 -61 -25 -75 -75h135c-4 59 -41 75 -60 75z" />
    <glyph glyph-name="h" unicode="h" horiz-adv-x="556" 
d="M259 0h-245v6l56 50v550l-59 47v6c17 8 120 48 193 67v-360c56 53 110 77 153 77c86 0 134 -67 134 -105v-282l56 -50v-6h-244v6l54 50v243c0 28 -24 58 -75 58c-39 0 -66 -21 -78 -32v-269l55 -50v-6z" />
    <glyph glyph-name="b" unicode="b" horiz-adv-x="516" 
d="M52 606l-59 47v6c19 8 121 48 195 67v-345c44 36 92 62 138 62c77 0 164 -61 164 -194c0 -179 -135 -256 -249 -256c-40 0 -123 7 -184 7h-5v606zM245 361c-26 0 -49 -10 -57 -17v-278c10 -8 25 -17 53 -17c64 0 109 64 109 159c0 93 -39 153 -105 153z" />
    <glyph glyph-name="v" unicode="v" horiz-adv-x="452" 
d="M458 425l-49 -48l-149 -354c-5 -12 -13 -33 -13 -33h-31s-10 24 -18 41l-156 346l-48 48v6h249v-6l-51 -48l77 -192l75 192l-51 48v6h165v-6z" />
    <glyph glyph-name="f" unicode="f" horiz-adv-x="339" 
d="M204 61l95 -55v-6h-285v6l56 50v306h-74v6l74 57v28c0 153 126 263 281 263c43 0 85 -7 103 -12l-42 -98c-27 16 -92 48 -122 48s-86 -42 -86 -147v-79h147l-47 -66h-100v-301z" />
    <glyph glyph-name="t" unicode="t" horiz-adv-x="391" 
d="M352 360h-155v-215c0 -33 17 -66 87 -66c33 0 65 8 80 14l4 -6c-18 -27 -78 -97 -168 -97c-96 0 -139 62 -139 113v257h-58v7l194 154v-92h199z" />
    <glyph glyph-name="c" unicode="c" horiz-adv-x="440" 
d="M279 444c56 0 108 -9 123 -11v-133h-8c-44 43 -104 87 -146 87c-45 0 -98 -55 -98 -140c0 -96 60 -163 161 -163c52 0 94 14 111 23l6 -7c-26 -39 -89 -110 -188 -110c-118 0 -217 82 -217 217c0 133 100 237 256 237z" />
    <glyph glyph-name="p" unicode="p" horiz-adv-x="524" 
d="M193 -188l81 -50v-6h-271v6l55 50v527l-54 42v7c16 6 104 40 189 61v-72c43 38 87 66 137 66c94 0 168 -72 168 -197c0 -150 -96 -250 -247 -250c-21 0 -38 1 -58 3v-187zM251 360c-29 0 -48 -9 -58 -16v-279c10 -6 28 -14 49 -14c66 0 114 68 114 166
c0 89 -38 143 -105 143z" />
    <glyph glyph-name="g" unicode="g" horiz-adv-x="478" 
d="M30 305c0 76 77 140 189 140c32 0 64 -5 91 -14h155v-56h-83c17 -19 29 -43 29 -66c0 -77 -62 -144 -192 -144c-21 0 -41 2 -60 6c-14 -14 -20 -26 -20 -38c0 -18 14 -28 28 -28h189c30 0 104 -42 104 -132c0 -117 -119 -227 -273 -227c-113 0 -174 50 -174 100
c0 49 57 110 96 141c-38 14 -72 46 -72 98c0 26 9 45 15 51l71 47c-54 23 -93 65 -93 122zM298 -21h-156c-14 -15 -35 -52 -35 -84c0 -34 40 -68 120 -68c79 0 136 42 136 95c0 42 -36 57 -65 57zM156 305c0 -51 32 -94 65 -94c36 0 64 43 64 94c0 52 -28 95 -64 95
c-35 0 -65 -44 -65 -95z" />
    <glyph glyph-name="u" unicode="u" horiz-adv-x="539" 
d="M59 338l-53 43v6c18 7 113 40 187 59v-310c0 -34 21 -60 66 -60c33 0 61 16 78 29v233l-65 43v6c20 7 122 41 200 59v-364l66 -37v-7s-155 -39 -201 -49v77c-51 -49 -102 -76 -146 -76c-87 0 -132 64 -132 109v239z" />
    <glyph glyph-name="H" unicode="H" horiz-adv-x="800" 
d="M249 596v-231h303v231l-70 60v6h291v-6l-70 -60v-530l70 -60v-6h-291v6l70 60v241h-303v-241l71 -60v-6h-294v6l71 60v530l-71 60v6h294v-6z" />
    <glyph glyph-name="m" unicode="m" horiz-adv-x="815" 
d="M204 446v-83c51 51 99 80 146 80c68 0 108 -42 122 -82c50 48 100 82 152 82c81 0 126 -60 126 -102v-284l56 -51v-6h-241v6l51 51v236c0 34 -18 61 -66 61c-34 0 -62 -20 -73 -30v-267l52 -51v-6h-237v6l51 51v236c0 34 -21 61 -67 61c-33 0 -59 -18 -72 -28v-270
l52 -51v-5h-242v6l56 51v281l-54 43v6c18 7 114 40 188 59z" />
    <glyph glyph-name="q" unicode="q" horiz-adv-x="522" 
d="M467 -188l56 -50v-6h-271v6l81 50v236c-38 -34 -88 -59 -123 -59c-102 0 -185 86 -185 207c0 132 91 244 240 244c49 0 83 -9 104 -18l98 43v-653zM287 73c18 0 37 6 46 11v285c-11 7 -31 15 -53 15c-66 0 -111 -62 -111 -155s45 -156 118 -156z" />
    <glyph glyph-name="k" unicode="k" horiz-adv-x="534" 
d="M204 724v-668l52 -50v-6h-241v6l55 50v549l-59 47v6c18 7 120 47 193 66zM309 78l-92 137v6l112 147l-60 57v6h241v-7l-104 -57l-83 -86l106 -153c52 -75 81 -102 104 -122v-6c-14 -4 -51 -12 -83 -12c-68 0 -97 27 -141 90z" />
    <glyph glyph-name="j" unicode="j" horiz-adv-x="250" 
d="M125 506c-39 0 -71 29 -71 68c0 40 32 70 71 70c40 0 71 -30 71 -70c0 -39 -31 -68 -71 -68zM60 339l-54 42v7c18 7 113 39 189 59v-402c0 -47 -39 -165 -185 -283l-9 8c34 74 59 163 59 267v302z" />
    <glyph glyph-name="I" unicode="I" horiz-adv-x="345" 
d="M318 0h-292v6l71 60v530l-71 60v6h292v-6l-70 -60v-530l70 -60v-6z" />
    <glyph glyph-name="w" unicode="w" horiz-adv-x="698" 
d="M260 31c-6 -17 -15 -37 -15 -37h-30s-11 23 -25 55l-148 328l-48 48v6h237v-6l-46 -48l80 -191l63 161l-12 30l-45 48v6h228v-6l-48 -48l71 -191l69 191l-51 48v6h164v-6l-49 -48l-135 -349c-8 -19 -14 -34 -14 -34h-30s-8 17 -22 50l-96 230z" />
    <glyph glyph-name="y" unicode="y" horiz-adv-x="449" 
d="M406 376l-142 -355c-48 -121 -74 -205 -82 -265h-139v5c41 33 102 103 157 242l5 12l-162 361l-48 49v6h247v-6l-51 -49l80 -193l72 193l-51 49v6h163v-6z" />
    <glyph glyph-name="E" unicode="E" horiz-adv-x="559" 
d="M519 0h-493v6l71 60v530l-71 61v5h471v-148h-6l-82 91h-162v-230h169l59 72h6v-199h-6l-59 72h-169v-262h181l84 116h7v-174z" />
    <glyph glyph-name="F" unicode="F" horiz-adv-x="537" 
d="M416 373l59 74h6v-203h-6l-59 73h-169v-250l95 -61v-6h-316v6l71 60v530l-71 61v5h471v-152h-6l-84 95h-160v-232h169z" />
    <glyph glyph-name="L" unicode="L" horiz-adv-x="590" 
d="M435 58l116 147h7v-205h-532v6l71 60v530l-71 61v5h292v-5l-71 -61v-538h188z" />
    <glyph glyph-name="G" unicode="G" horiz-adv-x="723" 
d="M654 39c-60 -12 -122 -49 -251 -49c-213 0 -373 138 -373 337c0 189 151 346 383 346c97 0 186 -19 213 -26v-155h-7c-57 60 -144 122 -225 122c-97 0 -199 -97 -199 -268c0 -181 112 -297 226 -297c39 0 72 12 88 22v207l-80 60v6h281v-6l-56 -60v-239z" />
    <glyph glyph-name="A" unicode="A" horiz-adv-x="655" 
d="M134 71l73 -65v-6h-205v6l61 60l238 603h34l258 -603l60 -60v-6h-289v6l70 60l-61 143h-186zM276 438l-67 -174h141z" />
    <glyph glyph-name="O" unicode="O" horiz-adv-x="760" 
d="M30 322c0 206 163 352 348 352c191 0 352 -129 352 -332c0 -213 -169 -354 -346 -354c-186 0 -354 128 -354 334zM195 330c0 -173 96 -281 187 -281c92 0 184 107 184 281c0 177 -99 285 -188 285c-91 0 -183 -111 -183 -285z" />
    <glyph glyph-name="D" unicode="D" horiz-adv-x="748" 
d="M27 662h317c202 0 376 -109 376 -316c0 -194 -133 -346 -343 -346h-350v6l69 60v529l-69 62v5zM304 606h-56v-532c16 -8 51 -20 107 -20c118 0 202 132 202 281c0 180 -115 271 -253 271z" />
    <glyph glyph-name="z" unicode="z" horiz-adv-x="426" 
d="M399 145h6v-145h-391v14l217 366h-116l-77 -82h-6v133h363v-14l-217 -361h136z" />
    <glyph glyph-name="x" unicode="x" horiz-adv-x="482" 
d="M432 55l46 -49v-6h-238v6l49 49l-78 105l-77 -105l51 -49v-6h-178v6l55 50l116 150l-126 171l-47 48l1 6h247v-6l-47 -48l69 -99l68 99l-48 48v6h174v-6l-56 -50l-107 -141z" />
    <glyph glyph-name="R" unicode="R" horiz-adv-x="672" 
d="M325 0h-299v6l71 60v530l-71 61v5h283c136 0 242 -39 242 -152c0 -75 -61 -130 -112 -157l107 -187c58 -101 107 -138 135 -160v-6c-12 -2 -43 -7 -77 -7c-117 0 -155 41 -192 112l-112 212h-53v-251l77 -60zM294 608h-47v-240h93c31 0 70 52 70 118
c0 89 -58 122 -116 122z" />
    <glyph glyph-name="period" unicode="." horiz-adv-x="218" 
d="M35 59c0 42 33 73 74 73c43 0 74 -31 74 -73c0 -41 -31 -73 -74 -73c-41 0 -74 32 -74 73z" />
    <glyph glyph-name="P" unicode="P" horiz-adv-x="589" 
d="M567 481c0 -152 -155 -215 -286 -217v13c65 25 136 85 136 190c0 92 -62 142 -142 142h-27v-543l84 -60v-6h-306v6l71 60v530l-71 61v5h276c165 0 265 -64 265 -181z" />
    <glyph glyph-name="M" unicode="M" horiz-adv-x="885" 
d="M855 662v-5l-69 -64v-525l71 -62v-6h-297v6l72 62v409l-231 -430h-15l-224 429v-408l71 -62v-6h-208v6l71 62v501c-4 7 -56 83 -60 88v5h192l216 -410l212 410h199z" />
    <glyph glyph-name="B" unicode="B" horiz-adv-x="615" 
d="M595 210c0 -127 -105 -210 -265 -210h-304v6l71 60v530l-71 61v5h283c130 0 226 -43 226 -143c0 -64 -62 -118 -117 -138c101 -15 177 -76 177 -171zM289 334h-41v-266c14 -7 38 -15 74 -15c60 0 118 55 118 144c0 97 -65 137 -151 137zM285 610h-37v-227h73
c32 0 75 49 75 118c0 76 -47 109 -111 109z" />
    <glyph glyph-name="C" unicode="C" horiz-adv-x="669" 
d="M406 -11c-207 0 -376 125 -376 339c0 193 156 344 382 344c84 0 170 -18 199 -25v-158h-8c-48 55 -138 124 -215 124c-94 0 -192 -108 -192 -268c0 -187 108 -296 216 -296c100 0 175 90 203 130h8v-149c-34 -15 -110 -41 -217 -41z" />
    <glyph glyph-name="N" unicode="N" horiz-adv-x="775" 
d="M520 662h234v-5l-71 -63v-594h-64l-451 497v-429l98 -62v-6h-241v6l72 62v506c-33 35 -76 79 -80 83v5h208l387 -431v363l-92 63v5z" />
    <glyph glyph-name="S" unicode="S" horiz-adv-x="491" 
d="M273 673c71 0 127 -12 141 -17v-148h-7c-58 71 -105 109 -151 109c-33 0 -66 -25 -66 -66c0 -55 32 -81 107 -137c101 -78 162 -130 162 -229c0 -110 -90 -195 -232 -195c-87 0 -150 22 -181 37c-4 33 -10 141 -8 212h9c46 -104 103 -187 179 -187c48 0 87 38 87 92
c0 60 -31 90 -109 146c-102 75 -148 132 -148 213c0 110 93 170 217 170z" />
    <glyph glyph-name="J" unicode="J" horiz-adv-x="333" 
d="M91 596l-70 61v5h291v-5l-69 -61v-495c0 -88 -77 -230 -217 -318l-10 8c33 59 75 167 75 365v440z" />
    <glyph glyph-name="K" unicode="K" horiz-adv-x="724" 
d="M319 0h-293v6l71 60v530l-71 61v5h293v-5l-71 -61v-530l71 -60v-6zM720 6v-6h-310v6l70 60l-183 258h-34l235 272l-70 61v5h242v-5l-89 -60l-168 -186l239 -345z" />
    <glyph glyph-name="Q" unicode="Q" horiz-adv-x="759" 
d="M730 342c0 -155 -84 -266 -246 -326c247 -121 361 -175 541 -175c19 0 39 1 51 2l2 -8c-24 -19 -124 -77 -237 -77c-108 0 -219 52 -560 235c-115 58 -251 137 -251 329c0 208 166 352 348 352c189 0 352 -129 352 -332zM195 330c-1 -174 95 -280 189 -280
c90 0 181 105 182 280c0 178 -98 285 -188 285c-92 0 -183 -109 -183 -285z" />
    <glyph glyph-name="T" unicode="T" horiz-adv-x="670" 
d="M27 662h616v-164h-7l-97 107h-128v-538l81 -61v-6h-316v6l82 61v538h-129l-96 -107h-6v164z" />
    <glyph glyph-name="U" unicode="U" horiz-adv-x="753" 
d="M664 596v-358c0 -99 -73 -248 -275 -248c-209 0 -300 117 -300 244v362l-70 61v5h304v-5l-81 -61v-354c0 -92 51 -167 182 -167c108 0 170 79 170 167v354l-80 61v5h220v-5z" />
    <glyph glyph-name="V" unicode="V" horiz-adv-x="651" 
d="M516 592l-72 65v5h205v-5l-60 -61l-233 -602h-34l-260 602l-60 61v5h303v-5l-72 -61l147 -363z" />
    <glyph glyph-name="W" unicode="W" horiz-adv-x="990" 
d="M586 657l-46 -61l51 -120l54 120l-42 61v5h153v-5l-48 -61l-88 -187l90 -207l146 394l-51 61v5h183v-5l-61 -61l-228 -603h-34l-151 330l-146 -330h-34l-272 603l-60 61v5h274v-5l-54 -61l172 -390l86 190l-91 200l-58 61v5h255v-5z" />
    <glyph glyph-name="X" unicode="X" horiz-adv-x="689" 
d="M241 0h-237v6l80 60l186 250l-193 280l-67 61v5h316v-5l-69 -61l117 -174l118 170l-70 65v5h233v-5l-79 -61l-163 -232l202 -298l70 -60v-6h-313v6l71 60l-132 191l-142 -191l72 -60v-6z" />
    <glyph glyph-name="Y" unicode="Y" horiz-adv-x="624" 
d="M487 592l-70 65v5h205v-5l-61 -61l-164 -264v-263l69 -63v-6h-291v6l70 63v244l-183 283l-60 61v5h300v-5l-70 -61l129 -207z" />
    <glyph glyph-name="Z" unicode="Z" horiz-adv-x="631" 
d="M590 654l-370 -593h262l109 147h7v-208h-574v9l365 597h-228l-102 -128h-7v184h538v-8z" />
    <glyph glyph-name="hyphen" unicode="-" horiz-adv-x="282" 
d="M42 194v102h198v-102h-198z" />
    <glyph glyph-name="comma" unicode="," horiz-adv-x="222" 
d="M34 73c0 39 29 67 71 67c45 0 82 -34 82 -95c0 -86 -66 -153 -139 -188l-13 6c34 46 67 106 75 149c0 0 -2 -1 -5 -1c-39 0 -71 22 -71 62z" />
    <glyph glyph-name="W.001" horiz-adv-x="963" 
d="M509 671h34l163 -427l116 352l-72 61v5h204v-5l-61 -61l-198 -603h-34l-170 443l-165 -442h-33l-224 602l-60 61v5h292v-5l-72 -61l124 -351z" />
    <glyph glyph-name="r" unicode="r" horiz-adv-x="389" 
d="M70 338l-54 43v6c18 7 114 40 188 59v-98c40 56 77 97 98 97c27 0 66 -11 79 -17l-42 -126c-17 9 -54 28 -85 28c-18 0 -38 -8 -50 -18v-252l87 -54v-6h-277v6l56 51v281z" />
    <glyph glyph-name="w.001" horiz-adv-x="664" 
d="M255 33c-7 -17 -17 -39 -17 -39h-31s-8 20 -25 57l-138 326l-49 48v6h239v-6l-46 -48l72 -189l100 253h31l102 -251l63 187l-51 48v6h164v-6l-49 -48l-125 -348c-7 -17 -14 -35 -14 -35h-31s-12 27 -23 52l-86 204z" />
    <glyph glyph-name="five" unicode="5" horiz-adv-x="351" 
d="M148 431h180l-55 -103h-143c0 -1 -3 -11 -4 -11c71 -59 169 -155 169 -260c0 -132 -138 -232 -312 -280l-6 12c93 57 183 142 183 221c0 78 -67 150 -112 194c13 43 78 189 100 227z" />
    <glyph glyph-name="four" unicode="4" horiz-adv-x="497" 
d="M324 442h68v-353h94v-89h-94v-171l-127 -50v221h-265v7zM124 89h141v191z" />
    <glyph glyph-name="one" unicode="1" horiz-adv-x="284" 
d="M76 374l-56 51v6h243v-6l-53 -51v-318l53 -50v-6h-243v6l56 50v318z" />
    <glyph glyph-name="six" unicode="6" horiz-adv-x="508" 
d="M479 693l6 -11c-198 -92 -311 -253 -311 -444c0 -123 60 -197 103 -197c41 0 76 57 76 123c0 70 -43 117 -106 117c-22 0 -39 -8 -45 -10l-5 5c13 17 55 70 131 70c89 0 155 -61 155 -160c0 -124 -105 -197 -212 -197c-113 0 -237 87 -237 266c0 245 248 402 445 438z
" />
    <glyph glyph-name="three" unicode="3" horiz-adv-x="364" 
d="M38 88l-9 12c125 112 140 165 140 199c0 39 -21 63 -59 63c-31 0 -56 -18 -65 -29l-10 7c19 45 61 104 146 104c78 0 118 -46 118 -102c0 -50 -36 -106 -138 -167c9 2 20 3 31 3c92 0 149 -56 149 -134c0 -118 -114 -213 -331 -302l-8 12c129 107 190 183 190 258
c0 53 -34 88 -93 88c-26 0 -53 -8 -61 -12z" />
    <glyph glyph-name="two" unicode="2" horiz-adv-x="422" 
d="M43 324l-9 7c19 43 66 112 164 112c85 0 137 -50 137 -120c0 -73 -62 -132 -169 -212h260l-49 -111h-358v6c109 119 172 209 172 281c0 43 -25 72 -71 72c-36 0 -64 -23 -77 -35z" />
    <glyph glyph-name="zero" unicode="0" horiz-adv-x="508" 
d="M26 214c0 126 101 229 228 229c129 0 229 -97 229 -226c0 -127 -100 -229 -229 -229c-131 0 -228 96 -228 226zM113 216c0 -89 61 -154 142 -154c79 0 141 65 141 154c0 87 -62 152 -142 152c-81 0 -141 -65 -141 -152z" />
    <glyph glyph-name="seven" unicode="7" horiz-adv-x="457" 
d="M15 327l45 104h378v-6l-273 -671l-57 12l226 561h-319z" />
    <glyph glyph-name="eight" unicode="8" horiz-adv-x="427" 
d="M217 671c97 0 167 -59 167 -129c0 -63 -57 -113 -115 -156c89 -98 132 -147 132 -218c0 -83 -77 -177 -194 -177c-100 0 -187 54 -187 145c0 70 56 125 127 181c-85 92 -112 139 -112 199c0 75 75 155 182 155zM279 130c0 45 -28 77 -104 159c-25 -35 -43 -81 -44 -139
c0 -67 35 -109 77 -109s71 43 71 89zM152 556c0 -37 26 -72 95 -146c18 31 35 76 36 126c0 55 -28 90 -68 90c-34 0 -63 -28 -63 -70z" />
    <glyph glyph-name="nine" unicode="9" horiz-adv-x="507" 
d="M52 -258l-7 11c186 104 290 260 290 439c0 126 -70 197 -107 197c-39 0 -71 -58 -71 -119c0 -77 45 -120 103 -120c23 0 41 7 47 10l4 -5c-18 -29 -63 -69 -128 -69c-84 0 -157 60 -157 160c0 114 98 196 204 196c107 0 245 -79 245 -265c0 -238 -211 -384 -423 -435z
" />
    <glyph glyph-name="space" unicode=" " horiz-adv-x="200" 
 />
    <glyph glyph-name="colon" unicode=":" horiz-adv-x="228" 
d="M39 370c0 42 33 73 74 73c43 0 74 -31 74 -73c0 -41 -31 -73 -74 -73c-41 0 -74 32 -74 73zM39 59c0 42 33 73 74 73c43 0 74 -31 74 -73c0 -41 -31 -73 -74 -73c-41 0 -74 32 -74 73z" />
    <glyph glyph-name="semicolon" unicode=";" horiz-adv-x="228" 
d="M37 73c0 39 29 67 71 67c45 0 82 -34 82 -95c0 -86 -66 -153 -139 -188l-13 6c34 46 67 106 75 149c0 0 -2 -1 -5 -1c-39 0 -71 22 -71 62zM39 370c0 42 33 73 74 73c43 0 74 -31 74 -73c0 -41 -31 -73 -74 -73c-41 0 -74 32 -74 73z" />
    <glyph glyph-name="ellipsis" unicode="&#x2026;" horiz-adv-x="622" 
d="M438 59c0 42 33 73 74 73c43 0 74 -31 74 -73c0 -41 -31 -73 -74 -73c-41 0 -74 32 -74 73zM237 59c0 42 33 73 74 73c43 0 74 -31 74 -73c0 -41 -31 -73 -74 -73c-41 0 -74 32 -74 73zM35 59c0 42 33 73 74 73c43 0 74 -31 74 -73c0 -41 -31 -73 -74 -73
c-41 0 -74 32 -74 73z" />
    <glyph glyph-name="endash" unicode="&#x2013;" horiz-adv-x="519" 
d="M45 220v53h429v-53h-429z" />
    <glyph glyph-name="emdash" unicode="&#x2014;" horiz-adv-x="768" 
d="M45 220v53h678v-53h-678z" />
    <glyph glyph-name="quoteleft" unicode="&#x2018;" horiz-adv-x="205" 
d="M27 517c0 79 56 143 124 178l14 -4c-26 -40 -57 -101 -63 -142h6c38 3 68 -19 68 -57c0 -34 -28 -61 -68 -61c-43 0 -81 29 -81 86z" />
    <glyph glyph-name="quoteright" unicode="&#x2019;" horiz-adv-x="205" 
d="M178 608c0 -79 -56 -143 -124 -178l-14 4c26 40 57 101 63 142h-6c-38 -3 -68 19 -68 57c0 34 28 61 68 61c43 0 81 -29 81 -86z" />
    <glyph glyph-name="quotedblleft" unicode="&#x201c;" horiz-adv-x="388" 
d="M210 517c0 79 56 143 124 178l14 -4c-26 -40 -57 -101 -63 -142h6c38 3 68 -19 68 -57c0 -34 -28 -61 -68 -61c-43 0 -81 29 -81 86zM27 517c0 79 56 143 124 178l14 -4c-26 -40 -57 -101 -63 -142h6c38 3 68 -19 68 -57c0 -34 -28 -61 -68 -61c-43 0 -81 29 -81 86z" />
    <glyph glyph-name="quotedblright" unicode="&#x201d;" horiz-adv-x="389" 
d="M362 608c0 -79 -56 -143 -124 -178l-15 4c27 40 58 101 63 142h-5c-38 -3 -68 19 -68 57c0 34 28 61 68 61c43 0 81 -29 81 -86zM178 608c0 -79 -56 -143 -124 -178l-14 4c26 40 57 101 63 142h-6c-38 -3 -68 19 -68 57c0 34 28 61 68 61c43 0 81 -29 81 -86z" />
    <glyph glyph-name="quotedblbase" unicode="&#x201e;" horiz-adv-x="397" 
d="M362 45c0 -79 -56 -143 -124 -178l-15 4c27 40 58 101 63 142h-5c-38 -3 -68 19 -68 57c0 34 28 61 68 61c43 0 81 -29 81 -86zM178 45c0 -79 -56 -143 -124 -178l-14 4c26 40 57 101 63 142h-6c-38 -3 -68 19 -68 57c0 34 28 61 68 61c43 0 81 -29 81 -86z" />
    <glyph glyph-name="quotesinglbase" unicode="&#x201a;" horiz-adv-x="212" 
d="M178 45c0 -79 -56 -143 -124 -178l-14 4c26 40 57 101 63 142h-6c-38 -3 -68 19 -68 57c0 34 28 61 68 61c43 0 81 -29 81 -86z" />
    <glyph glyph-name="quotesingle" unicode="'" horiz-adv-x="180" 
d="M142 633c0 -39 -23 -110 -46 -207h-13c-23 97 -46 168 -46 207c0 36 18 61 53 61s52 -25 52 -61z" />
    <glyph glyph-name="quotedbl" unicode="&#x22;" horiz-adv-x="328" 
d="M290 633c0 -39 -23 -110 -46 -207h-13c-23 97 -46 168 -46 207c0 36 18 61 53 61s52 -25 52 -61zM142 633c0 -39 -23 -110 -46 -207h-13c-23 97 -46 168 -46 207c0 36 18 61 53 61s52 -25 52 -61z" />
    <glyph glyph-name="uni2033" unicode="&#x2033;" horiz-adv-x="346" 
d="M204 686h116v-4l-108 -256h-15zM47 686h116v-4l-108 -256h-15z" />
    <glyph glyph-name="uni2032" unicode="&#x2032;" horiz-adv-x="188" 
d="M47 686h116v-4l-108 -256h-15z" />
    <glyph glyph-name="ampersand" unicode="&#x26;" horiz-adv-x="748" 
d="M746 425c-88 -53 -106 -87 -175 -214c-8 -15 -16 -29 -25 -43c39 -48 87 -83 164 -83c18 0 44 4 51 6l3 -5c-31 -41 -96 -95 -175 -95c-50 0 -89 23 -129 68c-48 -44 -109 -73 -190 -73c-148 0 -246 86 -246 192c0 96 86 159 166 192c-45 47 -70 86 -70 136
c0 76 80 140 181 140c96 0 164 -51 164 -111c0 -62 -62 -103 -121 -127c54 -56 98 -106 164 -191c27 48 47 100 64 147l-71 61v6h245v-6zM422 109c-74 97 -131 157 -202 230c-27 -23 -54 -64 -54 -119c0 -83 53 -150 148 -150c41 0 77 14 108 39zM240 545
c0 -36 28 -58 77 -109c20 18 41 47 41 88c0 48 -30 74 -60 74c-34 0 -58 -24 -58 -53z" />
    <glyph glyph-name="exclam" unicode="!" horiz-adv-x="237" 
d="M40 662h157c-17 -102 -49 -330 -68 -459h-21c-19 129 -52 357 -68 459zM45 59c0 42 32 73 74 73s74 -31 74 -73c0 -41 -32 -73 -74 -73s-74 32 -74 73z" />
    <glyph glyph-name="question" unicode="?" horiz-adv-x="374" 
d="M362 538c0 -49 -21 -88 -68 -133c-23 -22 -68 -60 -87 -77c-25 -23 -31 -36 -31 -60c0 -20 2 -47 4 -65h-19c-32 42 -70 107 -70 143c0 22 12 39 35 65l69 76c21 22 34 46 34 71c0 41 -30 60 -57 60c-46 0 -98 -57 -135 -104h-8v145c13 3 70 14 132 14
c124 0 201 -53 201 -135zM95 59c0 42 33 73 74 73c43 0 74 -31 74 -73c0 -41 -31 -73 -74 -73c-41 0 -74 32 -74 73z" />
    <glyph glyph-name="slash" unicode="/" horiz-adv-x="346" 
d="M276 759l52 -15l-299 -980l-50 15z" />
    <glyph glyph-name="backslash" unicode="\" horiz-adv-x="346" 
d="M70 759l298 -980l-51 -15l-298 980z" />
    <glyph glyph-name="A.sc" unicode="&#xf761;" horiz-adv-x="547" 
d="M117 62l60 -56v-6h-173v6l48 51l193 470h43l207 -470l48 -51v-6h-252v6l57 51l-37 83h-163zM226 334l-58 -144h121z" />
    <glyph glyph-name="AE" unicode="&#xc6;" horiz-adv-x="879" 
d="M362 596l-70 61v5h526v-148h-6l-82 91h-155v-231h162l59 72h6v-198h-6l-59 71h-162v-261h174l84 116h8v-174h-487v6l70 60v217h-172l-122 -212l73 -65v-6h-205v6l60 60zM424 582l-141 -244h141v244z" />
    <glyph glyph-name="AE.sc" unicode="&#xf7e6;" horiz-adv-x="731" 
d="M292 467l-58 50v6h445v-126h-6l-71 74h-111v-173h117l51 58h6v-166h-6l-51 58h-117v-196h127l73 96h6v-148h-406v6l58 50v153h-143l-86 -147l60 -56v-6h-178v6l50 51zM349 452l-113 -192h113v192z" />
    <glyph glyph-name="AEacute" unicode="&#x1fc;" horiz-adv-x="879" 
d="M362 596l-70 61v5h526v-148h-6l-82 91h-155v-231h162l59 72h6v-198h-6l-59 71h-162v-261h174l84 116h8v-174h-487v6l70 60v217h-172l-122 -212l73 -65v-6h-205v6l60 60zM424 582l-141 -244h141v244zM722 745l-254 -41l-4 8l217 140z" />
    <glyph glyph-name="acute.uc" 
d="M330 745l-254 -41l-4 8l217 140z" />
    <glyph glyph-name="AEacute.sc" unicode="&#xf624;" horiz-adv-x="731" 
d="M292 467l-58 50v6h445v-126h-6l-71 74h-111v-173h117l51 58h6v-166h-6l-51 58h-117v-196h127l73 96h6v-148h-406v6l58 50v153h-143l-86 -147l60 -56v-6h-178v6l50 51zM607 725l-181 -159l-8 5l93 223zM349 452l-113 -192h113v192z" />
    <glyph glyph-name="acute" unicode="&#xb4;" 
d="M295 644l-181 -159l-8 5l93 223z" />
    <glyph glyph-name="Aacute" unicode="&#xc1;" horiz-adv-x="655" 
d="M134 71l73 -65v-6h-205v6l61 60l238 603h34l258 -603l60 -60v-6h-289v6l70 60l-61 143h-186zM453 745l-254 -41l-4 8l217 140zM276 438l-67 -174h141z" />
    <glyph glyph-name="Aacute.sc" unicode="&#xf7e1;" horiz-adv-x="547" 
d="M117 62l60 -56v-6h-173v6l48 51l193 470h43l207 -470l48 -51v-6h-252v6l57 51l-37 83h-163zM388 725l-181 -159l-8 5l93 223zM226 334l-58 -144h121z" />
    <glyph glyph-name="Abreve" unicode="&#x102;" horiz-adv-x="655" 
d="M134 71l73 -65v-6h-205v6l61 60l238 603h34l258 -603l60 -60v-6h-289v6l70 60l-61 143h-186zM319 701c-86 0 -122 72 -123 136l7 1c20 -29 58 -58 116 -58c57 0 96 29 116 58l7 -1c-1 -63 -38 -136 -123 -136zM276 438l-67 -174h141z" />
    <glyph glyph-name="breve.uc" 
d="M200 701c-86 0 -122 72 -123 136l7 1c20 -29 58 -58 116 -58c57 0 96 29 116 58l7 -1c-1 -63 -38 -136 -123 -136z" />
    <glyph glyph-name="Abreve.sc" unicode="&#xf640;" horiz-adv-x="547" 
d="M117 62l60 -56v-6h-173v6l48 51l193 470h43l207 -470l48 -51v-6h-252v6l57 51l-37 83h-163zM266 656c52 0 87 44 100 72l8 -1c2 -79 -35 -149 -108 -149c-74 0 -110 68 -108 149l8 1c14 -29 47 -72 100 -72zM226 334l-58 -144h121z" />
    <glyph glyph-name="breve" unicode="&#x2d8;" 
d="M200 575c52 0 87 44 100 72l8 -1c2 -79 -35 -149 -108 -149c-74 0 -110 68 -108 149l8 1c14 -29 47 -72 100 -72z" />
    <glyph glyph-name="Acircumflex" unicode="&#xc2;" horiz-adv-x="655" 
d="M134 71l73 -65v-6h-205v6l61 60l238 603h34l258 -603l60 -60v-6h-289v6l70 60l-61 143h-186zM165 701l154 153l152 -153l-4 -6l-148 50l-149 -50zM276 438l-67 -174h141z" />
    <glyph glyph-name="circumflex.uc" 
d="M47 701l154 153l152 -153l-4 -6l-148 50l-149 -50z" />
    <glyph glyph-name="Acircumflex.sc" unicode="&#xf7e2;" horiz-adv-x="547" 
d="M117 62l60 -56v-6h-173v6l48 51l193 470h43l207 -470l48 -51v-6h-252v6l57 51l-37 83h-163zM145 564l121 229l121 -229l-8 -5l-113 94l-113 -94zM226 334l-58 -144h121z" />
    <glyph glyph-name="circumflex" unicode="&#x2c6;" 
d="M79 483l121 229l121 -229l-8 -5l-113 94l-113 -94z" />
    <glyph glyph-name="Adieresis" unicode="&#xc4;" horiz-adv-x="655" 
d="M134 71l73 -65v-6h-205v6l61 60l238 603h34l258 -603l60 -60v-6h-289v6l70 60l-61 143h-186zM215 701c-37 0 -66 27 -66 64s29 65 66 65c35 0 65 -28 65 -65s-30 -64 -65 -64zM489 765c0 -37 -29 -64 -65 -64s-65 27 -65 64s29 65 65 65s65 -28 65 -65zM276 438l-67 -174
h141z" />
    <glyph glyph-name="dieresis.uc" 
d="M96 701c-37 0 -66 27 -66 64s29 65 66 65c35 0 65 -28 65 -65s-30 -64 -65 -64zM370 765c0 -37 -29 -64 -65 -64s-65 27 -65 64s29 65 65 65s65 -28 65 -65z" />
    <glyph glyph-name="Adieresis.sc" unicode="&#xf7e4;" horiz-adv-x="547" 
d="M117 62l60 -56v-6h-173v6l48 51l193 470h43l207 -470l48 -51v-6h-252v6l57 51l-37 83h-163zM174 713c36 0 64 -28 64 -65c0 -36 -28 -63 -64 -63c-37 0 -64 27 -64 63c0 37 27 65 64 65zM359 713c35 0 63 -28 63 -65c0 -36 -28 -62 -63 -62c-37 0 -65 26 -65 62
c0 37 28 65 65 65zM226 334l-58 -144h121z" />
    <glyph glyph-name="dieresis" unicode="&#xa8;" 
d="M293 635c35 0 63 -28 63 -65c0 -36 -28 -62 -63 -62c-37 0 -65 26 -65 62c0 37 28 65 65 65zM108 635c36 0 64 -28 64 -65c0 -36 -28 -63 -64 -63c-37 0 -64 27 -64 63c0 37 27 65 64 65z" />
    <glyph glyph-name="Agrave" unicode="&#xc0;" horiz-adv-x="655" 
d="M134 71l73 -65v-6h-205v6l61 60l238 603h34l258 -603l60 -60v-6h-289v6l70 60l-61 143h-186zM442 712l-4 -8l-253 41l39 107zM276 438l-67 -174h141z" />
    <glyph glyph-name="grave.uc" 
d="M328 712l-4 -8l-253 41l39 107z" />
    <glyph glyph-name="Agrave.sc" unicode="&#xf7e0;" horiz-adv-x="547" 
d="M117 62l60 -56v-6h-173v6l48 51l193 470h43l207 -470l48 -51v-6h-252v6l57 51l-37 83h-163zM332 572l-8 -4l-181 158l96 70zM226 334l-58 -144h121z" />
    <glyph glyph-name="grave" unicode="`" 
d="M294 491l-8 -4l-181 158l96 70z" />
    <glyph glyph-name="Amacron" unicode="&#x100;" horiz-adv-x="655" 
d="M134 71l73 -65v-6h-205v6l61 60l238 603h34l258 -603l60 -60v-6h-289v6l70 60l-61 143h-186zM187 714v73h263v-73h-263zM276 438l-67 -174h141z" />
    <glyph glyph-name="macron.uc" 
d="M69 714v73h263v-73h-263z" />
    <glyph glyph-name="Amacron.sc" unicode="&#xf641;" horiz-adv-x="547" 
d="M117 62l60 -56v-6h-173v6l48 51l193 470h43l207 -470l48 -51v-6h-252v6l57 51l-37 83h-163zM151 601v74h231v-74h-231zM226 334l-58 -144h121z" />
    <glyph glyph-name="macron" unicode="&#xaf;" 
d="M85 520v74h231v-74h-231z" />
    <glyph glyph-name="Aogonek" unicode="&#x104;" horiz-adv-x="655" 
d="M462 0l-89 209h-186l-53 -138l73 -65v-6h-205v6l61 60l238 603h34l258 -603l60 -60v-6h-161c-25 -27 -65 -73 -65 -124c0 -36 25 -63 70 -63c26 0 43 5 54 9l4 -5c-16 -25 -70 -73 -141 -73c-66 0 -107 37 -107 90c0 78 98 137 155 166zM277 439l-68 -175h141z" />
    <glyph glyph-name="Aogonek.sc" unicode="&#xf642;" horiz-adv-x="547" 
d="M117 62l60 -56v-6h-173v6l48 51l193 470h43l207 -470l48 -51v-6h-170l-62 140h-163zM323 -256c-66 0 -107 37 -107 90c0 78 99 137 157 166h28c-26 -27 -65 -73 -65 -124c0 -36 25 -63 70 -63c26 0 43 5 54 9l4 -5c-16 -25 -70 -73 -141 -73zM226 334l-58 -144h121z" />
    <glyph glyph-name="Aring" unicode="&#xc5;" horiz-adv-x="655" 
d="M134 71l73 -65v-6h-205v6l61 60l238 603h34l258 -603l60 -60v-6h-289v6l70 60l-61 143h-186zM228 781c0 49 43 89 90 89c48 0 90 -40 90 -89c0 -50 -42 -89 -90 -89s-90 38 -90 89zM276 438l-67 -174h141zM271 781c0 -26 19 -50 47 -50c27 0 47 23 47 50
c0 26 -20 50 -47 50c-28 0 -47 -24 -47 -50z" />
    <glyph glyph-name="ring.uc" 
d="M153 781c0 -26 19 -50 47 -50c27 0 47 23 47 50c0 26 -20 50 -47 50c-28 0 -47 -24 -47 -50zM110 781c0 49 43 89 90 89c48 0 90 -40 90 -89c0 -50 -42 -89 -90 -89s-90 38 -90 89z" />
    <glyph glyph-name="Aring.sc" unicode="&#xf7e5;" horiz-adv-x="547" 
d="M117 62l60 -56v-6h-173v6l48 51l193 470h43l207 -470l48 -51v-6h-252v6l57 51l-37 83h-163zM177 660c0 49 43 89 90 89c48 0 90 -40 90 -89c0 -50 -42 -89 -90 -89s-90 38 -90 89zM226 334l-58 -144h121zM220 660c0 -26 19 -50 47 -50c27 0 47 23 47 50
c0 26 -20 50 -47 50c-28 0 -47 -24 -47 -50z" />
    <glyph glyph-name="ring" unicode="&#x2da;" 
d="M153 579c0 -26 19 -50 47 -50c27 0 47 23 47 50c0 26 -20 50 -47 50c-28 0 -47 -24 -47 -50zM110 579c0 49 43 89 90 89c48 0 90 -40 90 -89c0 -50 -42 -89 -90 -89s-90 38 -90 89z" />
    <glyph glyph-name="Aringacute" unicode="&#x1fa;" horiz-adv-x="655" 
d="M134 71l73 -65v-6h-205v6l61 60l238 603h34l258 -603l60 -60v-6h-289v6l70 60l-61 143h-186zM228 781c0 49 43 89 90 89c48 0 90 -40 90 -89c0 -50 -42 -89 -90 -89s-90 38 -90 89zM466 916l-254 -41l-4 8l217 140zM276 438l-67 -174h141zM271 781c0 -26 19 -50 47 -50
c27 0 47 23 47 50c0 26 -20 50 -47 50c-28 0 -47 -24 -47 -50z" />
    <glyph glyph-name="uni01FA.sc" horiz-adv-x="547" 
d="M117 62l60 -56v-6h-173v6l48 51l193 470h43l207 -470l48 -51v-6h-252v6l57 51l-37 83h-163zM175 657c0 49 43 89 90 89c48 0 90 -40 90 -89c0 -50 -42 -89 -90 -89s-90 38 -90 89zM408 799l-254 -41l-4 8l217 140zM226 334l-58 -144h121zM218 657c0 -26 19 -50 47 -50
c27 0 47 23 47 50c0 26 -20 50 -47 50c-28 0 -47 -24 -47 -50z" />
    <glyph glyph-name="Atilde" unicode="&#xc3;" horiz-adv-x="655" 
d="M134 71l73 -65v-6h-205v6l61 60l238 603h34l258 -603l60 -60v-6h-289v6l70 60l-61 143h-186zM266 820c25 0 109 -19 139 -19c20 0 52 25 74 47l7 -2c-16 -64 -57 -129 -89 -129c-30 0 -110 18 -139 18c-21 0 -53 -26 -74 -47l-7 2c16 64 59 130 89 130zM276 438l-67 -174
h141z" />
    <glyph glyph-name="tilde.uc" 
d="M135 820c25 0 109 -19 139 -19c20 0 52 25 74 47l7 -2c-16 -64 -57 -129 -89 -129c-30 0 -110 18 -139 18c-21 0 -53 -26 -74 -47l-7 2c16 64 59 130 89 130z" />
    <glyph glyph-name="Atilde.sc" unicode="&#xf7e3;" horiz-adv-x="547" 
d="M117 62l60 -56v-6h-173v6l48 51l193 470h43l207 -470l48 -51v-6h-252v6l57 51l-37 83h-163zM215 707c24 0 97 -26 122 -26c17 0 40 25 64 56l7 -3c-9 -73 -41 -138 -75 -138c-29 0 -98 25 -123 25c-17 0 -41 -25 -65 -55l-7 2c10 67 45 139 77 139zM226 334l-58 -144h121
z" />
    <glyph glyph-name="tilde" unicode="&#x2dc;" 
d="M142 626c24 0 97 -26 122 -26c17 0 40 25 64 56l7 -3c-9 -73 -41 -138 -75 -138c-29 0 -98 25 -123 25c-17 0 -41 -25 -65 -55l-7 2c10 67 45 139 77 139z" />
    <glyph glyph-name="B.sc" unicode="&#xf762;" horiz-adv-x="531" 
d="M511 162c0 -92 -79 -162 -231 -162h-258v6l59 51v408l-59 52v6h247c113 0 196 -34 196 -114c0 -53 -51 -96 -101 -112c86 -11 147 -57 147 -135zM250 259h-29v-199c9 -5 29 -12 55 -12c46 0 94 39 94 107c0 73 -51 104 -120 104zM253 475h-32v-172h69c18 0 48 36 48 88
c0 60 -38 84 -85 84z" />
    <glyph glyph-name="C.sc" unicode="&#xf763;" horiz-adv-x="554" 
d="M330 -9c-158 0 -304 90 -304 269c0 161 145 271 312 271c70 0 142 -14 164 -19v-139h-7c-41 43 -118 102 -170 102c-70 0 -151 -81 -151 -209c0 -134 80 -219 167 -219c79 0 141 75 163 108h7v-133c-28 -12 -88 -31 -181 -31z" />
    <glyph glyph-name="Cacute" unicode="&#x106;" horiz-adv-x="669" 
d="M406 -11c-207 0 -376 125 -376 339c0 193 156 344 382 344c84 0 170 -18 199 -25v-158h-8c-48 55 -138 124 -215 124c-94 0 -192 -108 -192 -268c0 -187 108 -296 216 -296c100 0 175 90 203 130h8v-149c-34 -15 -110 -41 -217 -41zM514 745l-254 -41l-4 8l217 140z" />
    <glyph glyph-name="Cacute.pl" horiz-adv-x="669" 
d="M406 -11c-207 0 -376 125 -376 339c0 193 156 344 382 344c84 0 170 -18 199 -25v-158h-8c-48 55 -138 124 -215 124c-94 0 -192 -108 -192 -268c0 -187 108 -296 216 -296c100 0 175 90 203 130h8v-149c-34 -15 -110 -41 -217 -41zM478 840l-119 -144l-8 1l7 185z" />
    <glyph glyph-name="acute.ucpl" 
d="M281 840l-119 -144l-8 1l7 185z" />
    <glyph glyph-name="Cacute.sc" unicode="&#xf643;" horiz-adv-x="554" 
d="M432 725l-181 -159l-8 5l93 223zM330 -9c-158 0 -304 90 -304 269c0 161 145 271 312 271c70 0 142 -14 164 -19v-139h-7c-41 43 -118 102 -170 102c-70 0 -151 -81 -151 -209c0 -134 80 -219 167 -219c79 0 141 75 163 108h7v-133c-28 -12 -88 -31 -181 -31z" />
    <glyph glyph-name="Cacute.scpl" horiz-adv-x="554" 
d="M330 -9c-158 0 -304 90 -304 269c0 161 145 271 312 271c70 0 142 -14 164 -19v-139h-7c-41 43 -118 102 -170 102c-70 0 -151 -81 -151 -209c0 -134 80 -219 167 -219c79 0 141 75 163 108h7v-133c-28 -12 -88 -31 -181 -31zM403 763l-112 -198l-8 1l10 225z" />
    <glyph glyph-name="acute.pl" 
d="M262 682l-112 -198l-8 1l10 225z" />
    <glyph glyph-name="Ccaron" unicode="&#x10c;" horiz-adv-x="669" 
d="M228 845l5 6l149 -50l148 50l4 -6l-152 -153zM406 -11c-207 0 -376 125 -376 339c0 193 156 344 382 344c84 0 170 -18 199 -25v-158h-8c-48 55 -138 124 -215 124c-94 0 -192 -108 -192 -268c0 -187 108 -296 216 -296c100 0 175 90 203 130h8v-149
c-34 -15 -110 -41 -217 -41z" />
    <glyph glyph-name="caron.uc" 
d="M47 845l5 6l149 -50l148 50l4 -6l-152 -153z" />
    <glyph glyph-name="Ccaron.sc" unicode="&#xf644;" horiz-adv-x="554" 
d="M192 788l8 5l113 -94l113 94l8 -5l-121 -229zM330 -9c-158 0 -304 90 -304 269c0 161 145 271 312 271c70 0 142 -14 164 -19v-139h-7c-41 43 -118 102 -170 102c-70 0 -151 -81 -151 -209c0 -134 80 -219 167 -219c79 0 141 75 163 108h7v-133c-28 -12 -88 -31 -181 -31
z" />
    <glyph glyph-name="caron" unicode="&#x2c7;" 
d="M79 707l8 5l113 -94l113 94l8 -5l-121 -229z" />
    <glyph glyph-name="Ccedilla" unicode="&#xc7;" horiz-adv-x="669" 
d="M406 -11h-12l-24 -48c47 -10 100 -35 100 -85c0 -54 -49 -108 -210 -117l-5 12c60 25 113 55 113 87c0 24 -41 39 -64 41l-2 3s41 83 54 110c-184 18 -326 139 -326 336c0 193 156 344 382 344c84 0 170 -18 199 -25v-158h-8c-48 55 -138 124 -215 124
c-94 0 -192 -108 -192 -268c0 -187 108 -296 216 -296c100 0 175 90 203 130h8v-149c-34 -15 -110 -41 -217 -41z" />
    <glyph glyph-name="cedilla" unicode="&#xb8;" 
d="M198 0h40l-30 -59c47 -10 100 -35 100 -85c0 -54 -49 -108 -210 -117l-5 12c60 25 113 55 113 87c0 24 -41 39 -64 41l-2 3s58 116 58 118z" />
    <glyph glyph-name="Ccedilla.sc" unicode="&#xf7e7;" horiz-adv-x="554" 
d="M330 -9h-16l-25 -50c47 -10 100 -35 100 -85c0 -54 -49 -108 -210 -117l-5 12c60 25 113 55 113 87c0 24 -41 39 -64 41l-2 3s44 90 55 113c-136 17 -250 106 -250 265c0 161 145 271 312 271c70 0 142 -14 164 -19v-139h-7c-41 43 -118 102 -170 102
c-70 0 -151 -81 -151 -209c0 -134 80 -219 167 -219c79 0 141 75 163 108h7v-133c-28 -12 -88 -31 -181 -31z" />
    <glyph glyph-name="Ccircumflex" unicode="&#x108;" horiz-adv-x="669" 
d="M228 701l154 153l152 -153l-4 -6l-148 50l-149 -50zM406 -11c-207 0 -376 125 -376 339c0 193 156 344 382 344c84 0 170 -18 199 -25v-158h-8c-48 55 -138 124 -215 124c-94 0 -192 -108 -192 -268c0 -187 108 -296 216 -296c100 0 175 90 203 130h8v-149
c-34 -15 -110 -41 -217 -41z" />
    <glyph glyph-name="Ccircumflex.sc" unicode="&#xf628;" horiz-adv-x="554" 
d="M188 564l121 229l121 -229l-8 -5l-113 94l-113 -94zM330 -9c-158 0 -304 90 -304 269c0 161 145 271 312 271c70 0 142 -14 164 -19v-139h-7c-41 43 -118 102 -170 102c-70 0 -151 -81 -151 -209c0 -134 80 -219 167 -219c79 0 141 75 163 108h7v-133
c-28 -12 -88 -31 -181 -31z" />
    <glyph glyph-name="Cdotaccent" unicode="&#x10a;" horiz-adv-x="669" 
d="M406 -11c-207 0 -376 125 -376 339c0 193 156 344 382 344c84 0 170 -18 199 -25v-158h-8c-48 55 -138 124 -215 124c-94 0 -192 -108 -192 -268c0 -187 108 -296 216 -296c100 0 175 90 203 130h8v-149c-34 -15 -110 -41 -217 -41zM312 769c0 39 31 68 69 68
c39 0 70 -29 70 -68c0 -38 -31 -67 -70 -67c-38 0 -69 29 -69 67z" />
    <glyph glyph-name="dotaccent.uc" 
d="M131 769c0 39 31 68 69 68c39 0 70 -29 70 -68c0 -38 -31 -67 -70 -67c-38 0 -69 29 -69 67z" />
    <glyph glyph-name="Cdotaccent.sc" unicode="&#xf629;" horiz-adv-x="554" 
d="M330 -9c-158 0 -304 90 -304 269c0 161 145 271 312 271c70 0 142 -14 164 -19v-139h-7c-41 43 -118 102 -170 102c-70 0 -151 -81 -151 -209c0 -134 80 -219 167 -219c79 0 141 75 163 108h7v-133c-28 -12 -88 -31 -181 -31zM234 652c0 38 32 68 70 68
c39 0 69 -30 69 -68s-30 -67 -69 -67c-38 0 -70 29 -70 67z" />
    <glyph glyph-name="dotaccent" unicode="&#x2d9;" 
d="M130 574c0 38 32 68 70 68c39 0 69 -30 69 -68s-30 -67 -69 -67c-38 0 -70 29 -70 67z" />
    <glyph glyph-name="D.sc" unicode="&#xf764;" horiz-adv-x="625" 
d="M323 0h-301v6l58 51v408l-58 52v6h272c161 0 306 -86 306 -248c0 -154 -111 -275 -277 -275zM250 471h-29v-407c11 -5 39 -15 78 -15c88 0 153 92 153 216c0 141 -94 206 -202 206z" />
    <glyph glyph-name="Dcaron" unicode="&#x10e;" horiz-adv-x="748" 
d="M377 0h-350v6l69 60v529l-69 62v5h317c202 0 376 -109 376 -316c0 -194 -133 -346 -343 -346zM304 606h-56v-532c16 -8 51 -20 107 -20c118 0 202 132 202 281c0 180 -115 271 -253 271zM206 845l5 6l149 -50l148 50l4 -6l-152 -153z" />
    <glyph glyph-name="Dcaron.sc" unicode="&#xf645;" horiz-adv-x="625" 
d="M323 0h-301v6l58 51v408l-58 52v6h272c161 0 306 -86 306 -248c0 -154 -111 -275 -277 -275zM250 471h-29v-407c11 -5 39 -15 78 -15c88 0 153 92 153 216c0 141 -94 206 -202 206zM181 788l8 5l113 -94l113 94l8 -5l-121 -229z" />
    <glyph glyph-name="Dcroat" unicode="&#x110;" horiz-adv-x="748" 
d="M13 310v53h83v232l-70 62v5h318c201 0 376 -109 376 -316c0 -194 -134 -346 -343 -346h-351v6l70 60v244h-83zM421 310h-173v-236c16 -8 51 -20 106 -20c119 0 203 132 203 281c0 180 -115 271 -254 271h-55v-243h173v-53z" />
    <glyph glyph-name="Eth" unicode="&#xd0;" horiz-adv-x="748" 
d="M13 310v53h83v232l-70 62v5h318c201 0 376 -109 376 -316c0 -194 -134 -346 -343 -346h-351v6l70 60v244h-83zM421 310h-173v-236c16 -8 51 -20 106 -20c119 0 203 132 203 281c0 180 -115 271 -254 271h-55v-243h173v-53z" />
    <glyph glyph-name="Dcroat.sc" unicode="&#xf646;" horiz-adv-x="625" 
d="M15 241v49h66v175l-57 52v6h272c160 0 305 -86 305 -248c0 -154 -110 -275 -277 -275h-300v6l57 51v184h-66zM352 241h-130v-176c9 -5 38 -16 78 -16c89 0 153 92 153 216c0 141 -93 206 -201 206h-30v-181h130v-49z" />
    <glyph glyph-name="Eth.sc" unicode="&#xf7f0;" horiz-adv-x="626" 
d="M15 241v49h66v175l-57 52v6h272c160 0 305 -86 305 -248c0 -154 -110 -275 -277 -275h-300v6l57 51v184h-66zM352 241h-130v-176c9 -5 38 -16 78 -16c89 0 153 92 153 216c0 141 -93 206 -201 206h-30v-181h130v-49z" />
    <glyph glyph-name="E.sc" unicode="&#xf765;" horiz-adv-x="467" 
d="M432 0h-410v6l59 51v409l-59 51v6h393v-126h-6l-71 74h-116v-173h122l52 58h6v-166h-6l-52 58h-122v-196h132l72 95h6v-147z" />
    <glyph glyph-name="Eacute" unicode="&#xc9;" horiz-adv-x="559" 
d="M519 0h-493v6l71 60v530l-71 61v5h471v-148h-6l-82 91h-162v-230h169l59 72h6v-199h-6l-59 72h-169v-262h181l84 116h7v-174zM425 745l-254 -41l-4 8l217 140z" />
    <glyph glyph-name="Eacute.sc" unicode="&#xf7e9;" horiz-adv-x="467" 
d="M432 0h-410v6l59 51v409l-59 51v6h393v-126h-6l-71 74h-116v-173h122l52 58h6v-166h-6l-52 58h-122v-196h132l72 95h6v-147zM370 725l-181 -159l-8 5l93 223z" />
    <glyph glyph-name="Ebreve" unicode="&#x114;" horiz-adv-x="559" 
d="M519 0h-493v6l71 60v530l-71 61v5h471v-148h-6l-82 91h-162v-230h169l59 72h6v-199h-6l-59 72h-169v-262h181l84 116h7v-174zM285 701c-86 0 -122 72 -123 136l7 1c20 -29 58 -58 116 -58c57 0 96 29 116 58l7 -1c-1 -63 -38 -136 -123 -136z" />
    <glyph glyph-name="Ebreve.sc" unicode="&#xf62a;" horiz-adv-x="467" 
d="M432 0h-410v6l59 51v409l-59 51v6h393v-126h-6l-71 74h-116v-173h122l52 58h6v-166h-6l-52 58h-122v-196h132l72 95h6v-147zM236 656c52 0 87 44 100 72l8 -1c2 -79 -35 -149 -108 -149c-74 0 -110 68 -108 149l8 1c14 -29 47 -72 100 -72z" />
    <glyph glyph-name="Ecaron" unicode="&#x11a;" horiz-adv-x="559" 
d="M519 0h-493v6l71 60v530l-71 61v5h471v-148h-6l-82 91h-162v-230h169l59 72h6v-199h-6l-59 72h-169v-262h181l84 116h7v-174zM132 845l5 6l149 -50l148 50l4 -6l-152 -153z" />
    <glyph glyph-name="Ecaron.sc" unicode="&#xf647;" horiz-adv-x="467" 
d="M432 0h-410v6l59 51v409l-59 51v6h393v-126h-6l-71 74h-116v-173h122l52 58h6v-166h-6l-52 58h-122v-196h132l72 95h6v-147zM119 788l8 5l113 -94l113 94l8 -5l-121 -229z" />
    <glyph glyph-name="Ecircumflex" unicode="&#xca;" horiz-adv-x="559" 
d="M519 0h-493v6l71 60v530l-71 61v5h471v-148h-6l-82 91h-162v-230h169l59 72h6v-199h-6l-59 72h-169v-262h181l84 116h7v-174zM133 701l154 153l152 -153l-4 -6l-148 50l-149 -50z" />
    <glyph glyph-name="Ecircumflex.sc" unicode="&#xf7ea;" horiz-adv-x="467" 
d="M432 0h-410v6l59 51v409l-59 51v6h393v-126h-6l-71 74h-116v-173h122l52 58h6v-166h-6l-52 58h-122v-196h132l72 95h6v-147zM114 564l121 229l121 -229l-8 -5l-113 94l-113 -94z" />
    <glyph glyph-name="Edieresis" unicode="&#xcb;" horiz-adv-x="559" 
d="M519 0h-493v6l71 60v530l-71 61v5h471v-148h-6l-82 91h-162v-230h169l59 72h6v-199h-6l-59 72h-169v-262h181l84 116h7v-174zM187 701c-37 0 -66 27 -66 64s29 65 66 65c35 0 65 -28 65 -65s-30 -64 -65 -64zM461 765c0 -37 -29 -64 -65 -64s-65 27 -65 64s29 65 65 65
s65 -28 65 -65z" />
    <glyph glyph-name="Edieresis.sc" unicode="&#xf7eb;" horiz-adv-x="467" 
d="M432 0h-410v6l59 51v409l-59 51v6h393v-126h-6l-71 74h-116v-173h122l52 58h6v-166h-6l-52 58h-122v-196h132l72 95h6v-147zM142 713c36 0 64 -28 64 -65c0 -36 -28 -63 -64 -63c-37 0 -64 27 -64 63c0 37 27 65 64 65zM327 713c35 0 63 -28 63 -65
c0 -36 -28 -62 -63 -62c-37 0 -65 26 -65 62c0 37 28 65 65 65z" />
    <glyph glyph-name="Edotaccent" unicode="&#x116;" horiz-adv-x="559" 
d="M519 0h-493v6l71 60v530l-71 61v5h471v-148h-6l-82 91h-162v-230h169l59 72h6v-199h-6l-59 72h-169v-262h181l84 116h7v-174zM221 769c0 39 31 68 69 68c39 0 70 -29 70 -68c0 -38 -31 -67 -70 -67c-38 0 -69 29 -69 67z" />
    <glyph glyph-name="Edotaccent.sc" unicode="&#xf648;" horiz-adv-x="467" 
d="M432 0h-410v6l59 51v409l-59 51v6h393v-126h-6l-71 74h-116v-173h122l52 58h6v-166h-6l-52 58h-122v-196h132l72 95h6v-147zM170 652c0 38 32 68 70 68c39 0 69 -30 69 -68s-30 -67 -69 -67c-38 0 -70 29 -70 67z" />
    <glyph glyph-name="Egrave" unicode="&#xc8;" horiz-adv-x="559" 
d="M519 0h-493v6l71 60v530l-71 61v5h471v-148h-6l-82 91h-162v-230h169l59 72h6v-199h-6l-59 72h-169v-262h181l84 116h7v-174zM413 712l-4 -8l-253 41l39 107z" />
    <glyph glyph-name="Egrave.sc" unicode="&#xf7e8;" horiz-adv-x="467" 
d="M432 0h-410v6l59 51v409l-59 51v6h393v-126h-6l-71 74h-116v-173h122l52 58h6v-166h-6l-52 58h-122v-196h132l72 95h6v-147zM308 572l-8 -4l-181 158l96 70z" />
    <glyph glyph-name="Emacron" unicode="&#x112;" horiz-adv-x="559" 
d="M519 0h-493v6l71 60v530l-71 61v5h471v-148h-6l-82 91h-162v-230h169l59 72h6v-199h-6l-59 72h-169v-262h181l84 116h7v-174zM157 714v73h263v-73h-263z" />
    <glyph glyph-name="Emacron.sc" unicode="&#xf649;" horiz-adv-x="467" 
d="M432 0h-410v6l59 51v409l-59 51v6h393v-126h-6l-71 74h-116v-173h122l52 58h6v-166h-6l-52 58h-122v-196h132l72 95h6v-147zM120 601v74h231v-74h-231z" />
    <glyph glyph-name="Eng" unicode="&#x14a;" horiz-adv-x="770" 
d="M679 594v-516c0 -72 -64 -204 -204 -295l-10 8c35 55 75 137 75 209c0 58 -21 103 -112 205l-259 291v-428l98 -62v-6h-241v6l71 62v507l-79 82v5h208l310 -351c38 -42 65 -79 73 -99v382l-92 63v5h234v-5z" />
    <glyph glyph-name="Eng.sc" unicode="&#xf62b;" horiz-adv-x="645" 
d="M569 465v-402c0 -55 -59 -162 -183 -234l-9 7c31 45 68 114 68 173c0 40 -23 79 -102 164l-194 208v-323l86 -52v-6h-210v6l58 52v393l-66 66v6h188l226 -240c38 -41 64 -74 72 -93v275l-79 52v6h202v-6z" />
    <glyph glyph-name="Eogonek" unicode="&#x118;" horiz-adv-x="559" 
d="M519 0h-78c-25 -27 -65 -73 -65 -124c0 -36 25 -63 70 -63c26 0 43 5 54 9l4 -5c-16 -25 -70 -73 -141 -73c-66 0 -107 37 -107 90c0 78 98 137 155 166h-385v6l71 60v530l-71 61v5h471v-148h-6l-82 91h-162v-230h169l59 72h6v-199h-6l-59 72h-169v-262h181l84 116h7
v-174z" />
    <glyph glyph-name="ogonek" unicode="&#x2db;" 
d="M183 -256c-66 0 -107 37 -107 90c0 78 98 137 155 166h30c-25 -27 -65 -73 -65 -124c0 -36 25 -63 70 -63c26 0 43 5 54 9l4 -5c-16 -25 -70 -73 -141 -73z" />
    <glyph glyph-name="Eogonek.sc" unicode="&#xf64a;" horiz-adv-x="467" 
d="M432 0h-62c-25 -27 -65 -73 -65 -124c0 -36 25 -63 70 -63c26 0 43 5 54 9l4 -5c-16 -25 -70 -73 -141 -73c-66 0 -107 37 -107 90c0 78 98 137 155 166h-318v6l59 51v409l-59 51v6h393v-126h-6l-71 74h-116v-173h122l52 58h6v-166h-6l-52 58h-122v-196h132l72 95h6v-147
z" />
    <glyph glyph-name="Euro" unicode="&#x20ac;" horiz-adv-x="646" 
d="M433 -11c-158 0 -307 92 -335 278h-79v48h75v15c0 13 0 27 2 40h-77v49h85c35 142 153 253 330 253c68 0 136 -13 160 -19v-156h-8c-46 51 -117 117 -176 117c-60 0 -126 -74 -146 -195h210v-49h-215v-24c0 -11 0 -21 1 -31h214v-48h-209c23 -148 111 -217 174 -217
c77 0 137 79 159 117h8v-139c-34 -16 -92 -39 -173 -39z" />
    <glyph glyph-name="Euro.sc" horiz-adv-x="560" 
d="M365 -9c-132 0 -254 71 -280 212h-65v44h60v13c0 11 0 22 2 33h-62v45h71c35 116 148 193 280 193c61 0 126 -13 144 -17v-137h-8c-38 40 -108 98 -151 98c-46 0 -101 -48 -121 -137h167v-45h-173c-1 -9 -1 -17 -1 -26v-20h174v-44h-169c19 -102 81 -155 142 -155
c67 0 121 72 141 103h8v-132c-28 -12 -80 -28 -159 -28z" />
    <glyph glyph-name="F.sc" unicode="&#xf766;" horiz-adv-x="455" 
d="M344 295l52 60h6v-170h-6l-52 60h-122v-188l76 -51v-6h-276v6l59 51v409l-59 51v6h393v-128h-6l-73 76h-114v-176h122z" />
    <glyph glyph-name="G.sc" unicode="&#xf767;" horiz-adv-x="597" 
d="M539 30c-52 -9 -94 -38 -207 -38c-171 0 -305 107 -305 265c0 159 135 275 317 275c79 0 152 -15 172 -20v-138h-7c-49 50 -123 101 -182 101c-64 0 -152 -74 -152 -208c0 -140 80 -221 173 -221c28 0 52 8 60 14v153l-65 50v6h243v-6l-47 -50v-183z" />
    <glyph glyph-name="Gbreve" unicode="&#x11e;" horiz-adv-x="723" 
d="M654 39c-60 -12 -122 -49 -251 -49c-213 0 -373 138 -373 337c0 189 151 346 383 346c97 0 186 -19 213 -26v-155h-7c-57 60 -144 122 -225 122c-97 0 -199 -97 -199 -268c0 -181 112 -297 226 -297c39 0 72 12 88 22v207l-80 60v6h281v-6l-56 -60v-239zM384 701
c-86 0 -122 72 -123 136l7 1c20 -29 58 -58 116 -58c57 0 96 29 116 58l7 -1c-1 -63 -38 -136 -123 -136z" />
    <glyph glyph-name="Gbreve.sc" unicode="&#xf64b;" horiz-adv-x="597" 
d="M539 30c-52 -9 -94 -38 -207 -38c-171 0 -305 107 -305 265c0 159 135 275 317 275c79 0 152 -15 172 -20v-138h-7c-49 50 -123 101 -182 101c-64 0 -152 -74 -152 -208c0 -140 80 -221 173 -221c28 0 52 8 60 14v153l-65 50v6h243v-6l-47 -50v-183zM310 656
c52 0 87 44 100 72l8 -1c2 -79 -35 -149 -108 -149c-74 0 -110 68 -108 149l8 1c14 -29 47 -72 100 -72z" />
    <glyph glyph-name="Gcircumflex" unicode="&#x11c;" horiz-adv-x="723" 
d="M654 39c-60 -12 -122 -49 -251 -49c-213 0 -373 138 -373 337c0 189 151 346 383 346c97 0 186 -19 213 -26v-155h-7c-57 60 -144 122 -225 122c-97 0 -199 -97 -199 -268c0 -181 112 -297 226 -297c39 0 72 12 88 22v207l-80 60v6h281v-6l-56 -60v-239zM230 701l154 153
l152 -153l-4 -6l-148 50l-149 -50z" />
    <glyph glyph-name="Gcircumflex.sc" unicode="&#xf62c;" horiz-adv-x="597" 
d="M539 30c-52 -9 -94 -38 -207 -38c-171 0 -305 107 -305 265c0 159 135 275 317 275c79 0 152 -15 172 -20v-138h-7c-49 50 -123 101 -182 101c-64 0 -152 -74 -152 -208c0 -140 80 -221 173 -221c28 0 52 8 60 14v153l-65 50v6h243v-6l-47 -50v-183zM190 564l121 229
l121 -229l-8 -5l-113 94l-113 -94z" />
    <glyph glyph-name="Gcommaaccent" unicode="&#x122;" horiz-adv-x="723" 
d="M654 39c-60 -12 -122 -49 -251 -49c-213 0 -373 138 -373 337c0 189 151 346 383 346c97 0 186 -19 213 -26v-155h-7c-57 60 -144 122 -225 122c-97 0 -199 -97 -199 -268c0 -181 112 -297 226 -297c39 0 72 12 88 22v207l-80 60v6h281v-6l-56 -60v-239zM458 -128
c0 -63 -50 -113 -113 -140l-13 6c22 28 49 72 56 102c0 0 -2 -1 -5 -1c-33 0 -60 19 -60 51c0 34 27 55 64 55c41 0 71 -28 71 -73z" />
    <glyph glyph-name="space_uni0326" 
d="M268 -128c0 -63 -50 -113 -113 -140l-13 6c22 28 49 72 56 102c0 0 -2 -1 -5 -1c-33 0 -60 19 -60 51c0 34 27 55 64 55c41 0 71 -28 71 -73z" />
    <glyph glyph-name="Gcommaaccent.sc" unicode="&#xf64c;" horiz-adv-x="597" 
d="M539 30c-52 -9 -94 -38 -207 -38c-171 0 -305 107 -305 265c0 159 135 275 317 275c79 0 152 -15 172 -20v-138h-7c-49 50 -123 101 -182 101c-64 0 -152 -74 -152 -208c0 -140 80 -221 173 -221c28 0 52 8 60 14v153l-65 50v6h243v-6l-47 -50v-183zM392 -128
c0 -63 -50 -113 -113 -140l-13 6c22 28 49 72 56 102c0 0 -2 -1 -5 -1c-33 0 -60 19 -60 51c0 34 27 55 64 55c41 0 71 -28 71 -73z" />
    <glyph glyph-name="Gdotaccent" unicode="&#x120;" horiz-adv-x="723" 
d="M654 39c-60 -12 -122 -49 -251 -49c-213 0 -373 138 -373 337c0 189 151 346 383 346c97 0 186 -19 213 -26v-155h-7c-57 60 -144 122 -225 122c-97 0 -199 -97 -199 -268c0 -181 112 -297 226 -297c39 0 72 12 88 22v207l-80 60v6h281v-6l-56 -60v-239zM314 769
c0 39 31 68 69 68c39 0 70 -29 70 -68c0 -38 -31 -67 -70 -67c-38 0 -69 29 -69 67z" />
    <glyph glyph-name="Gdotaccent.sc" unicode="&#xf62d;" horiz-adv-x="597" 
d="M539 30c-52 -9 -94 -38 -207 -38c-171 0 -305 107 -305 265c0 159 135 275 317 275c79 0 152 -15 172 -20v-138h-7c-49 50 -123 101 -182 101c-64 0 -152 -74 -152 -208c0 -140 80 -221 173 -221c28 0 52 8 60 14v153l-65 50v6h243v-6l-47 -50v-183zM244 652
c0 38 32 68 70 68c39 0 69 -30 69 -68s-30 -67 -69 -67c-38 0 -70 29 -70 67z" />
    <glyph glyph-name="H.sc" unicode="&#xf768;" horiz-adv-x="668" 
d="M222 466v-174h225v174l-58 51v6h257v-6l-58 -51v-409l58 -51v-6h-257v6l58 51v182h-225v-182l58 -51v-6h-258v6l59 51v409l-59 51v6h258v-6z" />
    <glyph glyph-name="Hbar" unicode="&#x126;" horiz-adv-x="800" 
d="M249 596v-78h303v78l-70 60v6h291v-6l-70 -60v-78h84v-52h-84v-400l70 -60v-6h-291v6l70 60v241h-303v-241l71 -60v-6h-294v6l71 60v400h-84v52h84v78l-71 60v6h294v-6zM249 365h303v101h-303v-101z" />
    <glyph glyph-name="Hbar.sc" unicode="&#xf62e;" horiz-adv-x="668" 
d="M222 466v-53h225v53l-58 51v6h257v-6l-58 -51v-53h66v-47h-66v-309l58 -51v-6h-257v6l58 51v182h-225v-182l58 -51v-6h-258v6l59 51v309h-67v47h67v53l-59 51v6h258v-6zM222 292h225v74h-225v-74z" />
    <glyph glyph-name="Hcircumflex" unicode="&#x124;" horiz-adv-x="800" 
d="M249 596v-231h303v231l-70 60v6h291v-6l-70 -60v-530l70 -60v-6h-291v6l70 60v241h-303v-241l71 -60v-6h-294v6l71 60v530l-71 60v6h294v-6zM246 701l154 153l152 -153l-4 -6l-148 50l-149 -50z" />
    <glyph glyph-name="Hcircumflex.sc" unicode="&#xf62f;" horiz-adv-x="668" 
d="M212 564l121 229l121 -229l-8 -5l-113 94l-113 -94zM222 466v-174h225v174l-58 51v6h257v-6l-58 -51v-409l58 -51v-6h-257v6l58 51v182h-225v-182l58 -51v-6h-258v6l59 51v409l-59 51v6h258v-6z" />
    <glyph glyph-name="I.sc" unicode="&#xf769;" horiz-adv-x="302" 
d="M280 0h-258v6l59 51v409l-59 51v6h258v-6l-58 -51v-409l58 -51v-6z" />
    <glyph glyph-name="IJ" unicode="&#x132;" horiz-adv-x="678" 
d="M435 596l-70 61v5h291v-5l-69 -61v-495c0 -88 -77 -230 -217 -318l-10 8c33 59 75 167 75 365v440zM318 0h-292v6l71 60v530l-71 60v6h292v-6l-70 -60v-530l70 -60v-6z" />
    <glyph glyph-name="IJ.sc" unicode="&#xf631;" horiz-adv-x="598" 
d="M380 466l-58 51v6h257v-6l-58 -51v-384c0 -68 -63 -182 -194 -253l-9 7c24 43 62 126 62 295v335zM280 0h-258v6l59 51v409l-59 51v6h258v-6l-58 -51v-409l58 -51v-6z" />
    <glyph glyph-name="J.sc" unicode="&#xf76a;" horiz-adv-x="296" 
d="M78 466l-58 51v6h257v-6l-58 -51v-384c0 -68 -63 -182 -194 -253l-9 7c24 43 62 126 62 295v335z" />
    <glyph glyph-name="Iacute" unicode="&#xcd;" horiz-adv-x="345" 
d="M318 0h-292v6l71 60v530l-71 60v6h292v-6l-70 -60v-530l70 -60v-6zM306 745l-254 -41l-4 8l217 140z" />
    <glyph glyph-name="Iacute.sc" unicode="&#xf7ed;" horiz-adv-x="302" 
d="M271 725l-181 -159l-8 5l93 223zM280 0h-258v6l59 51v409l-59 51v6h258v-6l-58 -51v-409l58 -51v-6z" />
    <glyph glyph-name="Ibreve" unicode="&#x12c;" horiz-adv-x="345" 
d="M318 0h-292v6l71 60v530l-71 60v6h292v-6l-70 -60v-530l70 -60v-6zM173 701c-86 0 -122 72 -123 136l7 1c20 -29 58 -58 116 -58c57 0 96 29 116 58l7 -1c-1 -63 -38 -136 -123 -136z" />
    <glyph glyph-name="Ibreve.sc" unicode="&#xf630;" horiz-adv-x="302" 
d="M280 0h-258v6l59 51v409l-59 51v6h258v-6l-58 -51v-409l58 -51v-6zM151 656c52 0 87 44 100 72l8 -1c2 -79 -35 -149 -108 -149c-74 0 -110 68 -108 149l8 1c14 -29 47 -72 100 -72z" />
    <glyph glyph-name="Icircumflex" unicode="&#xce;" horiz-adv-x="345" 
d="M318 0h-292v6l71 60v530l-71 60v6h292v-6l-70 -60v-530l70 -60v-6zM20 701l154 153l152 -153l-4 -6l-148 50l-149 -50z" />
    <glyph glyph-name="Icircumflex.sc" unicode="&#xf7ee;" horiz-adv-x="302" 
d="M30 564l121 229l121 -229l-8 -5l-113 94l-113 -94zM280 0h-258v6l59 51v409l-59 51v6h258v-6l-58 -51v-409l58 -51v-6z" />
    <glyph glyph-name="Idieresis" unicode="&#xcf;" horiz-adv-x="345" 
d="M318 0h-292v6l71 60v530l-71 60v6h292v-6l-70 -60v-530l70 -60v-6zM69 701c-37 0 -66 27 -66 64s29 65 66 65c35 0 65 -28 65 -65s-30 -64 -65 -64zM343 765c0 -37 -29 -64 -65 -64s-65 27 -65 64s29 65 65 65s65 -28 65 -65z" />
    <glyph glyph-name="Idieresis.sc" unicode="&#xf7ef;" horiz-adv-x="302" 
d="M244 713c35 0 63 -28 63 -65c0 -36 -28 -62 -63 -62c-37 0 -65 26 -65 62c0 37 28 65 65 65zM59 713c36 0 64 -28 64 -65c0 -36 -28 -63 -64 -63c-37 0 -64 27 -64 63c0 37 27 65 64 65zM280 0h-258v6l59 51v409l-59 51v6h258v-6l-58 -51v-409l58 -51v-6z" />
    <glyph glyph-name="Idotaccent" unicode="&#x130;" horiz-adv-x="345" 
d="M318 0h-292v6l71 60v530l-71 60v6h292v-6l-70 -60v-530l70 -60v-6zM104 769c0 39 31 68 69 68c39 0 70 -29 70 -68c0 -38 -31 -67 -70 -67c-38 0 -69 29 -69 67z" />
    <glyph glyph-name="Idotaccent.sc" unicode="&#xf666;" horiz-adv-x="302" 
d="M280 0h-258v6l59 51v409l-59 51v6h258v-6l-58 -51v-409l58 -51v-6zM81 652c0 38 32 68 70 68c39 0 69 -30 69 -68s-30 -67 -69 -67c-38 0 -70 29 -70 67z" />
    <glyph glyph-name="Igrave" unicode="&#xcc;" horiz-adv-x="345" 
d="M318 0h-292v6l71 60v530l-71 60v6h292v-6l-70 -60v-530l70 -60v-6zM299 712l-4 -8l-253 41l39 107z" />
    <glyph glyph-name="Igrave.sc" unicode="&#xf7ec;" horiz-adv-x="302" 
d="M280 0h-258v6l59 51v409l-59 51v6h258v-6l-58 -51v-409l58 -51v-6zM222 572l-8 -4l-181 158l96 70z" />
    <glyph glyph-name="Imacron" unicode="&#x12a;" horiz-adv-x="345" 
d="M318 0h-292v6l71 60v530l-71 60v6h292v-6l-70 -60v-530l70 -60v-6zM42 714v73h263v-73h-263z" />
    <glyph glyph-name="Imacron.sc" unicode="&#xf64d;" horiz-adv-x="302" 
d="M280 0h-258v6l59 51v409l-59 51v6h258v-6l-58 -51v-409l58 -51v-6zM36 601v74h231v-74h-231z" />
    <glyph glyph-name="Iogonek" unicode="&#x12e;" horiz-adv-x="345" 
d="M318 0h-78c-15 -24 -43 -74 -43 -122c0 -38 25 -65 70 -65c25 0 42 5 53 9l4 -5c-15 -25 -69 -73 -141 -73c-65 0 -106 37 -106 90c0 74 82 134 133 166h-184v6l71 60v530l-71 60v6h292v-6l-70 -60v-530l70 -60v-6z" />
    <glyph glyph-name="Iogonek.sc" unicode="&#xf64e;" horiz-adv-x="302" 
d="M280 0h-59c-16 -22 -48 -69 -48 -118c0 -40 23 -69 70 -69c25 0 42 5 53 9l4 -5c-15 -25 -69 -73 -141 -73c-66 0 -106 38 -106 91c0 75 88 136 140 165h-171v6l59 51v409l-59 51v6h258v-6l-58 -51v-409l58 -51v-6z" />
    <glyph glyph-name="Itilde" unicode="&#x128;" horiz-adv-x="345" 
d="M318 0h-292v6l71 60v530l-71 60v6h292v-6l-70 -60v-530l70 -60v-6zM122 820c25 0 109 -19 139 -19c20 0 52 25 74 47l7 -2c-16 -64 -57 -129 -89 -129c-30 0 -110 18 -139 18c-21 0 -53 -26 -74 -47l-7 2c16 64 59 130 89 130z" />
    <glyph glyph-name="Itilde.sc" unicode="&#xf632;" horiz-adv-x="302" 
d="M280 0h-258v6l59 51v409l-59 51v6h258v-6l-58 -51v-409l58 -51v-6zM98 707c24 0 97 -26 122 -26c17 0 40 25 64 56l7 -3c-9 -73 -41 -138 -75 -138c-29 0 -98 25 -123 25c-17 0 -41 -25 -65 -55l-7 2c10 67 45 139 77 139z" />
    <glyph glyph-name="Jcircumflex" unicode="&#x134;" horiz-adv-x="333" 
d="M91 596l-70 61v5h291v-5l-69 -61v-495c0 -88 -77 -230 -217 -318l-10 8c33 59 75 167 75 365v440zM12 701l154 153l152 -153l-4 -6l-148 50l-149 -50z" />
    <glyph glyph-name="Jcircumflex.sc" unicode="&#xf633;" horiz-adv-x="296" 
d="M78 466l-58 51v6h257v-6l-58 -51v-384c0 -68 -63 -182 -194 -253l-9 7c24 43 62 126 62 295v335zM24 564l121 229l121 -229l-8 -5l-113 94l-113 -94z" />
    <glyph glyph-name="K.001" horiz-adv-x="724" 
d="M319 0h-293v6l71 60v530l-71 61v5h293v-5l-71 -61v-530l71 -60v-6zM642 -8c-117 0 -158 48 -211 122l-155 219v6l222 257l-70 61v5h242v-5l-89 -60l-175 -196l159 -221c86 -120 128 -154 155 -174v-6c-12 -4 -46 -8 -78 -8z" />
    <glyph glyph-name="K.sc" unicode="&#xf76b;" horiz-adv-x="615" 
d="M280 0h-258v6l59 51v409l-59 51v6h258v-6l-58 -51v-409l58 -51v-6zM609 6v-6h-268v6l57 51l-137 196h-27l186 213l-58 52v5h205v-5l-75 -52l-123 -137l186 -272z" />
    <glyph glyph-name="K.sc001" horiz-adv-x="616" 
d="M280 0h-258v6l59 51v409l-59 51v6h258v-6l-58 -51v-409l58 -51v-6zM541 -6c-109 0 -141 39 -179 92l-117 172v5l176 203l-58 52v5h205v-5l-76 -52l-128 -144l129 -184c60 -85 96 -115 117 -132v-6c-8 -2 -38 -6 -69 -6z" />
    <glyph glyph-name="Kcommaaccent" unicode="&#x136;" horiz-adv-x="724" 
d="M319 0h-293v6l71 60v530l-71 61v5h293v-5l-71 -61v-530l71 -60v-6zM720 6v-6h-310v6l70 60l-183 258h-34l235 272l-70 61v5h242v-5l-89 -60l-168 -186l239 -345zM446 -128c0 -63 -50 -113 -113 -140l-13 6c22 28 49 72 56 102c0 0 -2 -1 -5 -1c-33 0 -60 19 -60 51
c0 34 27 55 64 55c41 0 71 -28 71 -73z" />
    <glyph glyph-name="Kcommaaccent.001" horiz-adv-x="724" 
d="M319 0h-293v6l71 60v530l-71 61v5h293v-5l-71 -61v-530l71 -60v-6zM642 -8c-117 0 -158 48 -211 122l-155 219v6l222 257l-70 61v5h242v-5l-89 -60l-175 -196l159 -221c86 -120 128 -154 155 -174v-6c-12 -4 -46 -8 -78 -8zM469 -128c0 -63 -50 -113 -113 -140l-13 6
c22 28 49 72 56 102c0 0 -2 -1 -5 -1c-33 0 -60 19 -60 51c0 34 27 55 64 55c41 0 71 -28 71 -73z" />
    <glyph glyph-name="Kcommaaccent.sc" unicode="&#xf64f;" horiz-adv-x="615" 
d="M280 0h-258v6l59 51v409l-59 51v6h258v-6l-58 -51v-409l58 -51v-6zM609 6v-6h-268v6l57 51l-137 196h-27l186 213l-58 52v5h205v-5l-75 -52l-123 -137l186 -272zM389 -128c0 -63 -50 -113 -113 -140l-13 6c22 28 49 72 56 102c0 0 -2 -1 -5 -1c-33 0 -60 19 -60 51
c0 34 27 55 64 55c41 0 71 -28 71 -73z" />
    <glyph glyph-name="Kcommaaccent.sc001" horiz-adv-x="616" 
d="M280 0h-258v6l59 51v409l-59 51v6h258v-6l-58 -51v-409l58 -51v-6zM541 -6c-109 0 -141 39 -179 92l-117 172v5l176 203l-58 52v5h205v-5l-76 -52l-128 -144l129 -184c60 -85 96 -115 117 -132v-6c-8 -2 -38 -6 -69 -6zM411 -128c0 -63 -50 -113 -113 -140l-13 6
c22 28 49 72 56 102c0 0 -2 -1 -5 -1c-33 0 -60 19 -60 51c0 34 27 55 64 55c41 0 71 -28 71 -73z" />
    <glyph glyph-name="L.sc" unicode="&#xf76c;" horiz-adv-x="498" 
d="M361 54l102 122h6v-176h-447v6l59 51v409l-59 51v6h258v-6l-58 -51v-412h139z" />
    <glyph glyph-name="Lacute" unicode="&#x139;" horiz-adv-x="590" 
d="M312 745l-254 -41l-4 8l217 140zM435 58l116 147h7v-205h-532v6l71 60v530l-71 61v5h292v-5l-71 -61v-538h188z" />
    <glyph glyph-name="Lacute.sc" unicode="&#xf650;" horiz-adv-x="498" 
d="M361 54l102 122h6v-176h-447v6l59 51v409l-59 51v6h258v-6l-58 -51v-412h139zM276 725l-181 -159l-8 5l93 223z" />
    <glyph glyph-name="Lcaron" unicode="&#x13d;" horiz-adv-x="590" 
d="M354 499h-8l14 216h106zM435 58l116 147h7v-205h-532v6l71 60v530l-71 61v5h292v-5l-71 -61v-538h188z" />
    <glyph glyph-name="caron.alt" 
d="M147 499h-8l14 216h106z" />
    <glyph glyph-name="Lcaron.sc" unicode="&#xf651;" horiz-adv-x="498" 
d="M361 54l102 122h6v-176h-447v6l59 51v409l-59 51v6h258v-6l-58 -51v-412h139zM315 359h-8l14 216h106z" />
    <glyph glyph-name="Lcommaaccent" unicode="&#x13b;" horiz-adv-x="590" 
d="M391 -128c0 -63 -50 -113 -113 -140l-13 6c22 28 49 72 56 102c0 0 -2 -1 -5 -1c-33 0 -60 19 -60 51c0 34 27 55 64 55c41 0 71 -28 71 -73zM435 58l116 147h7v-205h-532v6l71 60v530l-71 61v5h292v-5l-71 -61v-538h188z" />
    <glyph glyph-name="Lcommaaccent.sc" unicode="&#xf652;" horiz-adv-x="498" 
d="M361 54l102 122h6v-176h-447v6l59 51v409l-59 51v6h258v-6l-58 -51v-412h139zM337 -128c0 -63 -50 -113 -113 -140l-13 6c22 28 49 72 56 102c0 0 -2 -1 -5 -1c-33 0 -60 19 -60 51c0 34 27 55 64 55c41 0 71 -28 71 -73z" />
    <glyph glyph-name="Ldot" unicode="&#x13f;" horiz-adv-x="590" 
d="M422 363c0 42 33 73 74 73c42 0 74 -31 74 -73c0 -41 -32 -72 -74 -72c-41 0 -74 31 -74 72zM435 58l116 147h7v-205h-532v6l71 60v530l-71 61v5h292v-5l-71 -61v-538h188z" />
    <glyph glyph-name="Ldot.sc" unicode="&#xf634;" horiz-adv-x="498" 
d="M341 307c0 42 33 73 74 73c43 0 74 -31 74 -73c0 -41 -31 -72 -74 -72c-41 0 -74 31 -74 72zM361 54l102 122h6v-176h-447v6l59 51v409l-59 51v6h258v-6l-58 -51v-412h139z" />
    <glyph glyph-name="Lslash" unicode="&#x141;" horiz-adv-x="590" 
d="M435 58l116 147h7v-205h-532v6l71 60v141l-90 -46v58l90 47v330l-71 61v5h292v-5l-71 -61v-251l188 99v-61l-188 -98v-227h188z" />
    <glyph glyph-name="Lslash.sc" unicode="&#xf6f9;" horiz-adv-x="498" 
d="M361 54l102 122h6v-176h-447v6l59 51v98l-72 -33v52l72 34v258l-59 51v6h258v-6l-58 -51v-192l143 68v-55l-143 -66v-167h139z" />
    <glyph glyph-name="M.sc" unicode="&#xf76d;" horiz-adv-x="733" 
d="M711 523v-6l-58 -51v-408l60 -52v-6h-260v6l59 52v304l-180 -326h-13l-176 325v-303l59 -52v-6h-181v6l60 52v388c-14 21 -36 52 -52 71v6h177l162 -303l164 303h179z" />
    <glyph glyph-name="N.sc" unicode="&#xf76e;" horiz-adv-x="645" 
d="M233 0h-212v6l59 52v394l-65 65v6h188l298 -319v261l-79 52v6h205v-6l-60 -52v-465h-62l-358 382v-324l86 -52v-6z" />
    <glyph glyph-name="Nacute" unicode="&#x143;" horiz-adv-x="775" 
d="M266 0h-241v6l72 62v506c-33 35 -76 79 -80 83v5h208l387 -431v363l-92 63v5h234v-5l-71 -63v-594h-64l-451 497v-429l98 -62v-6zM532 745l-254 -41l-4 8l217 140z" />
    <glyph glyph-name="Nacute.pl" horiz-adv-x="775" 
d="M266 0h-241v6l72 62v506c-33 35 -76 79 -80 83v5h208l387 -431v363l-92 63v5h234v-5l-71 -63v-594h-64l-451 497v-429l98 -62v-6zM505 840l-119 -144l-8 1l7 185z" />
    <glyph glyph-name="Nacute.sc" unicode="&#xf653;" horiz-adv-x="645" 
d="M422 523h205v-6l-60 -52v-465h-62l-358 382v-324l86 -52v-6h-212v6l59 52v394l-65 65v6h188l298 -319v261l-79 52v6zM463 725l-181 -159l-8 5l93 223z" />
    <glyph glyph-name="Nacute.scpl" horiz-adv-x="645" 
d="M422 523h205v-6l-60 -52v-465h-62l-358 382v-324l86 -52v-6h-212v6l59 52v394l-65 65v6h188l298 -319v261l-79 52v6zM435 763l-112 -198l-8 1l10 225z" />
    <glyph glyph-name="Ncaron" unicode="&#x147;" horiz-adv-x="775" 
d="M520 662h234v-5l-71 -63v-594h-64l-451 497v-429l98 -62v-6h-241v6l72 62v506c-33 35 -76 79 -80 83v5h208l387 -431v363l-92 63v5zM243 845l5 6l149 -50l148 50l4 -6l-152 -153z" />
    <glyph glyph-name="Ncaron.sc" unicode="&#xf654;" horiz-adv-x="645" 
d="M233 0h-212v6l59 52v394l-65 65v6h188l298 -319v261l-79 52v6h205v-6l-60 -52v-465h-62l-358 382v-324l86 -52v-6zM212 788l8 5l113 -94l113 94l8 -5l-121 -229z" />
    <glyph glyph-name="Ncommaaccent" unicode="&#x145;" horiz-adv-x="775" 
d="M520 662h234v-5l-71 -63v-594h-64l-451 497v-429l98 -62v-6h-241v6l72 62v506c-33 35 -76 79 -80 83v5h208l387 -431v363l-92 63v5zM460 -128c0 -63 -50 -113 -113 -140l-13 6c22 28 49 72 56 102c0 0 -2 -1 -5 -1c-33 0 -60 19 -60 51c0 34 27 55 64 55
c41 0 71 -28 71 -73z" />
    <glyph glyph-name="Ncommaaccent.sc" unicode="&#xf655;" horiz-adv-x="645" 
d="M422 523h205v-6l-60 -52v-465h-62l-358 382v-324l86 -52v-6h-212v6l59 52v394l-65 65v6h188l298 -319v261l-79 52v6zM396 -128c0 -63 -50 -113 -113 -140l-13 6c22 28 49 72 56 102c0 0 -2 -1 -5 -1c-33 0 -60 19 -60 51c0 34 27 55 64 55c41 0 71 -28 71 -73z" />
    <glyph glyph-name="Ntilde" unicode="&#xd1;" horiz-adv-x="775" 
d="M266 0h-241v6l72 62v506c-33 35 -76 79 -80 83v5h208l387 -431v363l-92 63v5h234v-5l-71 -63v-594h-64l-451 497v-429l98 -62v-6zM350 820c25 0 109 -19 139 -19c20 0 52 25 74 47l7 -2c-16 -64 -57 -129 -89 -129c-30 0 -110 18 -139 18c-21 0 -53 -26 -74 -47l-7 2
c16 64 59 130 89 130z" />
    <glyph glyph-name="Ntilde.sc" unicode="&#xf7f1;" horiz-adv-x="645" 
d="M422 523h205v-6l-60 -52v-465h-62l-358 382v-324l86 -52v-6h-212v6l59 52v394l-65 65v6h188l298 -319v261l-79 52v6zM290 707c24 0 97 -26 122 -26c17 0 40 25 64 56l7 -3c-9 -73 -41 -138 -75 -138c-29 0 -98 25 -123 25c-17 0 -41 -25 -65 -55l-7 2
c10 67 45 139 77 139z" />
    <glyph glyph-name="O.sc" unicode="&#xf76f;" horiz-adv-x="631" 
d="M27 254c0 167 145 279 287 279c149 0 291 -96 291 -262c0 -174 -150 -281 -285 -281c-144 0 -293 95 -293 264zM175 260c0 -134 79 -214 143 -214c66 0 138 79 138 214c0 138 -79 217 -142 217c-65 0 -139 -83 -139 -217z" />
    <glyph glyph-name="OE" unicode="&#x152;" horiz-adv-x="920" 
d="M778 375l60 72h5v-199h-5l-60 72h-162v-262h175l84 116h7v-174h-475c-220 0 -380 127 -380 318c0 200 168 344 375 344h458v-148h-6l-83 91h-155v-230h162zM410 603c-120 0 -219 -103 -219 -272c0 -163 102 -269 223 -269h51v541h-55z" />
    <glyph glyph-name="OE.sc" unicode="&#xf6fa;" horiz-adv-x="763" 
d="M639 298l52 58h6v-166h-6l-52 58h-117v-196h128l71 95h7v-147h-393c-181 0 -311 99 -311 253c0 157 141 270 313 270h373v-126h-6l-71 74h-111v-173h117zM343 471c-92 0 -170 -79 -170 -209c0 -126 79 -209 174 -209h34v418h-38z" />
    <glyph glyph-name="Oacute" unicode="&#xd3;" horiz-adv-x="760" 
d="M513 745l-254 -41l-4 8l217 140zM30 322c0 206 163 352 348 352c191 0 352 -129 352 -332c0 -213 -169 -354 -346 -354c-186 0 -354 128 -354 334zM195 330c0 -173 96 -281 187 -281c92 0 184 107 184 281c0 177 -99 285 -188 285c-91 0 -183 -111 -183 -285z" />
    <glyph glyph-name="Oacute.pl" horiz-adv-x="760" 
d="M478 840l-119 -144l-8 1l7 185zM30 322c0 206 163 352 348 352c191 0 352 -129 352 -332c0 -213 -169 -354 -346 -354c-186 0 -354 128 -354 334zM195 330c0 -173 96 -281 187 -281c92 0 184 107 184 281c0 177 -99 285 -188 285c-91 0 -183 -111 -183 -285z" />
    <glyph glyph-name="Oacute.sc" unicode="&#xf7f3;" horiz-adv-x="631" 
d="M27 254c0 167 145 279 287 279c149 0 291 -96 291 -262c0 -174 -150 -281 -285 -281c-144 0 -293 95 -293 264zM175 260c0 -134 79 -214 143 -214c66 0 138 79 138 214c0 138 -79 217 -142 217c-65 0 -139 -83 -139 -217zM437 725l-181 -159l-8 5l93 223z" />
    <glyph glyph-name="Oacute.scpl" horiz-adv-x="631" 
d="M27 254c0 167 145 279 287 279c149 0 291 -96 291 -262c0 -174 -150 -281 -285 -281c-144 0 -293 95 -293 264zM175 260c0 -134 79 -214 143 -214c66 0 138 79 138 214c0 138 -79 217 -142 217c-65 0 -139 -83 -139 -217zM408 763l-112 -198l-8 1l10 225z" />
    <glyph glyph-name="Obreve" unicode="&#x14e;" horiz-adv-x="760" 
d="M380 701c-86 0 -122 72 -123 136l7 1c20 -29 58 -58 116 -58c57 0 96 29 116 58l7 -1c-1 -63 -38 -136 -123 -136zM30 322c0 206 163 352 348 352c191 0 352 -129 352 -332c0 -213 -169 -354 -346 -354c-186 0 -354 128 -354 334zM195 330c0 -173 96 -281 187 -281
c92 0 184 107 184 281c0 177 -99 285 -188 285c-91 0 -183 -111 -183 -285z" />
    <glyph glyph-name="Obreve.sc" unicode="&#xf635;" horiz-adv-x="631" 
d="M27 254c0 167 145 279 287 279c149 0 291 -96 291 -262c0 -174 -150 -281 -285 -281c-144 0 -293 95 -293 264zM175 260c0 -134 79 -214 143 -214c66 0 138 79 138 214c0 138 -79 217 -142 217c-65 0 -139 -83 -139 -217zM316 656c52 0 87 44 100 72l8 -1
c2 -79 -35 -149 -108 -149c-74 0 -110 68 -108 149l8 1c14 -29 47 -72 100 -72z" />
    <glyph glyph-name="Ocircumflex" unicode="&#xd4;" horiz-adv-x="760" 
d="M226 701l154 153l152 -153l-4 -6l-148 50l-149 -50zM30 322c0 206 163 352 348 352c191 0 352 -129 352 -332c0 -213 -169 -354 -346 -354c-186 0 -354 128 -354 334zM195 330c0 -173 96 -281 187 -281c92 0 184 107 184 281c0 177 -99 285 -188 285
c-91 0 -183 -111 -183 -285z" />
    <glyph glyph-name="Ocircumflex.sc" unicode="&#xf7f4;" horiz-adv-x="631" 
d="M195 564l121 229l121 -229l-8 -5l-113 94l-113 -94zM27 254c0 167 145 279 287 279c149 0 291 -96 291 -262c0 -174 -150 -281 -285 -281c-144 0 -293 95 -293 264zM175 260c0 -134 79 -214 143 -214c66 0 138 79 138 214c0 138 -79 217 -142 217
c-65 0 -139 -83 -139 -217z" />
    <glyph glyph-name="Odieresis" unicode="&#xd6;" horiz-adv-x="760" 
d="M276 701c-37 0 -66 27 -66 64s29 65 66 65c35 0 65 -28 65 -65s-30 -64 -65 -64zM550 765c0 -37 -29 -64 -65 -64s-65 27 -65 64s29 65 65 65s65 -28 65 -65zM30 322c0 206 163 352 348 352c191 0 352 -129 352 -332c0 -213 -169 -354 -346 -354
c-186 0 -354 128 -354 334zM195 330c0 -173 96 -281 187 -281c92 0 184 107 184 281c0 177 -99 285 -188 285c-91 0 -183 -111 -183 -285z" />
    <glyph glyph-name="Odieresis.sc" unicode="&#xf7f6;" horiz-adv-x="631" 
d="M409 713c35 0 63 -28 63 -65c0 -36 -28 -62 -63 -62c-37 0 -65 26 -65 62c0 37 28 65 65 65zM224 713c36 0 64 -28 64 -65c0 -36 -28 -63 -64 -63c-37 0 -64 27 -64 63c0 37 27 65 64 65zM27 254c0 167 145 279 287 279c149 0 291 -96 291 -262
c0 -174 -150 -281 -285 -281c-144 0 -293 95 -293 264zM175 260c0 -134 79 -214 143 -214c66 0 138 79 138 214c0 138 -79 217 -142 217c-65 0 -139 -83 -139 -217z" />
    <glyph glyph-name="Ograve" unicode="&#xd2;" horiz-adv-x="760" 
d="M506 712l-4 -8l-253 41l39 107zM30 322c0 206 163 352 348 352c191 0 352 -129 352 -332c0 -213 -169 -354 -346 -354c-186 0 -354 128 -354 334zM195 330c0 -173 96 -281 187 -281c92 0 184 107 184 281c0 177 -99 285 -188 285c-91 0 -183 -111 -183 -285z" />
    <glyph glyph-name="Ograve.sc" unicode="&#xf7f2;" horiz-adv-x="631" 
d="M27 254c0 167 145 279 287 279c149 0 291 -96 291 -262c0 -174 -150 -281 -285 -281c-144 0 -293 95 -293 264zM175 260c0 -134 79 -214 143 -214c66 0 138 79 138 214c0 138 -79 217 -142 217c-65 0 -139 -83 -139 -217zM381 572l-8 -4l-181 158l96 70z" />
    <glyph glyph-name="Ohungarumlaut" unicode="&#x150;" horiz-adv-x="760" 
d="M404 711l145 158l60 -82l-200 -84zM432 787l-201 -84l-5 8l145 158zM30 322c0 206 163 352 348 352c191 0 352 -129 352 -332c0 -213 -169 -354 -346 -354c-186 0 -354 128 -354 334zM195 330c0 -173 96 -281 187 -281c92 0 184 107 184 281c0 177 -99 285 -188 285
c-91 0 -183 -111 -183 -285z" />
    <glyph glyph-name="hungarumlaut.uc" 
d="M186 711l145 158l60 -82l-200 -84zM214 787l-201 -84l-5 8l145 158z" />
    <glyph glyph-name="Ohungarumlaut.sc" unicode="&#xf656;" horiz-adv-x="631" 
d="M27 254c0 167 145 279 287 279c149 0 291 -96 291 -262c0 -174 -150 -281 -285 -281c-144 0 -293 95 -293 264zM175 260c0 -134 79 -214 143 -214c66 0 138 79 138 214c0 138 -79 217 -142 217c-65 0 -139 -83 -139 -217zM499 749l-135 -184l-8 4l51 221zM355 749
l-134 -184l-8 4l50 221z" />
    <glyph glyph-name="hungarumlaut" unicode="&#x2dd;" 
d="M344 668l-135 -184l-8 4l51 221zM200 668l-134 -184l-8 4l50 221z" />
    <glyph glyph-name="Omacron" unicode="&#x14c;" horiz-adv-x="760" 
d="M248 714v73h263v-73h-263zM30 322c0 206 163 352 348 352c191 0 352 -129 352 -332c0 -213 -169 -354 -346 -354c-186 0 -354 128 -354 334zM195 330c0 -173 96 -281 187 -281c92 0 184 107 184 281c0 177 -99 285 -188 285c-91 0 -183 -111 -183 -285z" />
    <glyph glyph-name="Omacron.sc" unicode="&#xf657;" horiz-adv-x="631" 
d="M27 254c0 167 145 279 287 279c149 0 291 -96 291 -262c0 -174 -150 -281 -285 -281c-144 0 -293 95 -293 264zM175 260c0 -134 79 -214 143 -214c66 0 138 79 138 214c0 138 -79 217 -142 217c-65 0 -139 -83 -139 -217zM200 601v74h231v-74h-231z" />
    <glyph glyph-name="Oslash" unicode="&#xd8;" horiz-adv-x="760" 
d="M30 322c0 206 163 352 348 352c60 0 117 -13 168 -37l56 85l49 -30l-56 -84c81 -58 135 -150 135 -266c0 -213 -169 -354 -346 -354c-61 0 -120 14 -172 40l-66 -100l-47 29l65 99c-81 57 -134 149 -134 266zM566 330c0 69 -15 128 -39 174l-261 -394
c33 -40 75 -61 116 -61c92 0 184 107 184 281zM195 330c0 -68 14 -125 37 -170l260 395c-34 39 -75 60 -114 60c-91 0 -183 -111 -183 -285z" />
    <glyph glyph-name="Oslash.sc" unicode="&#xf7f8;" horiz-adv-x="631" 
d="M26 254c0 167 145 279 287 279c47 0 93 -10 135 -28l47 70l47 -28l-47 -69c65 -44 109 -115 109 -207c0 -174 -149 -281 -284 -281c-47 0 -95 10 -138 29l-55 -81l-44 28l53 79c-65 45 -110 115 -110 209zM456 260c0 49 -10 90 -26 123l-199 -292c26 -29 58 -45 87 -45
c65 0 138 79 138 214zM175 260c0 -47 10 -88 25 -120l198 292c-26 29 -57 45 -85 45c-64 0 -138 -83 -138 -217z" />
    <glyph glyph-name="Oslashacute" unicode="&#x1fe;" horiz-adv-x="760" 
d="M30 322c0 206 163 352 348 352c60 0 117 -13 168 -37l56 85l49 -30l-56 -84c81 -58 135 -150 135 -266c0 -213 -169 -354 -346 -354c-61 0 -120 14 -172 40l-66 -100l-47 29l65 99c-81 57 -134 149 -134 266zM566 330c0 69 -15 128 -39 174l-261 -394
c33 -40 75 -61 116 -61c92 0 184 107 184 281zM195 330c0 -68 14 -125 37 -170l260 395c-34 39 -75 60 -114 60c-91 0 -183 -111 -183 -285zM512 745l-254 -41l-4 8l217 140z" />
    <glyph glyph-name="Oslashacute.sc" unicode="&#xf627;" horiz-adv-x="631" 
d="M26 254c0 167 145 279 287 279c47 0 93 -10 135 -28l47 70l47 -28l-47 -69c65 -44 109 -115 109 -207c0 -174 -149 -281 -284 -281c-47 0 -95 10 -138 29l-55 -81l-44 28l53 79c-65 45 -110 115 -110 209zM456 260c0 49 -10 90 -26 123l-199 -292c26 -29 58 -45 87 -45
c65 0 138 79 138 214zM175 260c0 -47 10 -88 25 -120l198 292c-26 29 -57 45 -85 45c-64 0 -138 -83 -138 -217zM424 725l-181 -159l-8 5l93 223z" />
    <glyph glyph-name="Otilde" unicode="&#xd5;" horiz-adv-x="760" 
d="M329 820c25 0 109 -19 139 -19c20 0 52 25 74 47l7 -2c-16 -64 -57 -129 -89 -129c-30 0 -110 18 -139 18c-21 0 -53 -26 -74 -47l-7 2c16 64 59 130 89 130zM30 322c0 206 163 352 348 352c191 0 352 -129 352 -332c0 -213 -169 -354 -346 -354
c-186 0 -354 128 -354 334zM195 330c0 -173 96 -281 187 -281c92 0 184 107 184 281c0 177 -99 285 -188 285c-91 0 -183 -111 -183 -285z" />
    <glyph glyph-name="Otilde.sc" unicode="&#xf7f5;" horiz-adv-x="631" 
d="M27 254c0 167 145 279 287 279c149 0 291 -96 291 -262c0 -174 -150 -281 -285 -281c-144 0 -293 95 -293 264zM175 260c0 -134 79 -214 143 -214c66 0 138 79 138 214c0 138 -79 217 -142 217c-65 0 -139 -83 -139 -217zM263 707c24 0 97 -26 122 -26c17 0 40 25 64 56
l7 -3c-9 -73 -41 -138 -75 -138c-29 0 -98 25 -123 25c-17 0 -41 -25 -65 -55l-7 2c10 67 45 139 77 139z" />
    <glyph glyph-name="P.sc" unicode="&#xf770;" horiz-adv-x="502" 
d="M483 381c0 -125 -132 -169 -235 -172v12c44 20 100 65 100 148c0 73 -54 106 -110 106h-16v-418l70 -51v-6h-270v6l59 51v408l-59 52v6h232c145 0 229 -53 229 -142z" />
    <glyph glyph-name="uni24C5" unicode="&#x24c5;" horiz-adv-x="742" 
d="M371 629c-164 0 -284 -133 -284 -297c0 -162 127 -297 283 -297c162 0 284 131 284 297c0 160 -124 297 -283 297zM548 414c0 -80 -85 -113 -167 -115v12c36 14 64 42 64 92c0 47 -31 69 -68 69h-15v-263l50 -38v-5h-195v5l41 38v260l-41 35v6h191c86 0 140 -36 140 -96z
M371 674c189 0 340 -153 340 -342c0 -193 -148 -342 -340 -342c-194 0 -340 149 -340 342c0 191 147 342 340 342z" />
    <glyph glyph-name="Q.long" horiz-adv-x="760" 
d="M945 -229c-84 0 -219 25 -394 96c-103 42 -222 94 -338 157c-99 54 -183 152 -183 298c0 206 163 352 348 352c191 0 352 -129 352 -332c0 -149 -84 -274 -220 -330c96 -42 178 -76 257 -101c139 -45 248 -58 352 -58c79 0 147 13 174 21l4 -8c-57 -44 -192 -95 -352 -95
zM194 330c0 -173 97 -281 188 -281c92 0 184 107 184 281c0 177 -99 285 -188 285c-91 0 -184 -111 -184 -285z" />
    <glyph glyph-name="Q.sc" unicode="&#xf771;" horiz-adv-x="631" 
d="M605 271c0 -122 -75 -214 -199 -256c200 -94 312 -144 429 -144c20 0 41 2 43 3l2 -8c-17 -16 -105 -62 -197 -62c-76 0 -151 30 -464 195c-84 44 -192 110 -192 255c0 165 142 279 287 279c154 0 291 -100 291 -262zM175 260c0 -133 78 -214 142 -214
c69 0 138 80 139 214c1 136 -77 217 -142 217c-66 0 -139 -84 -139 -217z" />
    <glyph glyph-name="Q.sclong" horiz-adv-x="631" 
d="M781 -186c-76 0 -186 21 -328 77c-81 33 -175 73 -273 125c-82 44 -153 118 -153 238c0 163 139 279 286 279c156 0 292 -101 292 -262c0 -131 -90 -220 -183 -253c75 -33 148 -62 214 -83c101 -34 199 -48 299 -48c53 0 107 7 126 11l2 -8c-44 -33 -150 -76 -282 -76z
M175 260c0 -133 78 -214 142 -214c69 0 138 80 139 214c1 136 -77 217 -143 217s-138 -84 -138 -217z" />
    <glyph glyph-name="R.sc" unicode="&#xf772;" horiz-adv-x="573" 
d="M282 0h-260v6l59 51v409l-59 51v6h247c113 0 210 -25 210 -124c0 -56 -46 -99 -89 -121l79 -143c44 -79 79 -107 106 -129v-6c-11 -2 -41 -6 -70 -6c-103 0 -134 40 -155 79l-87 172h-41v-188l60 -51v-6zM261 473h-39v-182h83c15 0 44 39 44 90c0 68 -44 92 -88 92z" />
    <glyph glyph-name="Racute" unicode="&#x154;" horiz-adv-x="672" 
d="M325 0h-299v6l71 60v530l-71 61v5h283c136 0 242 -39 242 -152c0 -75 -61 -130 -112 -157l107 -187c58 -101 107 -138 135 -160v-6c-12 -2 -43 -7 -77 -7c-117 0 -155 41 -192 112l-112 212h-53v-251l77 -60zM294 608h-47v-240h93c31 0 70 52 70 118
c0 89 -58 122 -116 122zM435 745l-254 -41l-4 8l217 140z" />
    <glyph glyph-name="Racute.sc" unicode="&#xf658;" horiz-adv-x="573" 
d="M282 0h-260v6l59 51v409l-59 51v6h247c113 0 210 -25 210 -124c0 -56 -46 -99 -89 -121l79 -143c44 -79 79 -107 106 -129v-6c-11 -2 -41 -6 -70 -6c-103 0 -134 40 -155 79l-87 172h-41v-188l60 -51v-6zM261 473h-39v-182h83c15 0 44 39 44 90c0 68 -44 92 -88 92z
M389 725l-181 -159l-8 5l93 223z" />
    <glyph glyph-name="Rcaron" unicode="&#x158;" horiz-adv-x="672" 
d="M325 0h-299v6l71 60v530l-71 61v5h283c136 0 242 -39 242 -152c0 -75 -61 -130 -112 -157l107 -187c58 -101 107 -138 135 -160v-6c-12 -2 -43 -7 -77 -7c-117 0 -155 41 -192 112l-112 212h-53v-251l77 -60zM294 608h-47v-240h93c31 0 70 52 70 118
c0 89 -58 122 -116 122zM150 845l5 6l149 -50l148 50l4 -6l-152 -153z" />
    <glyph glyph-name="Rcaron.sc" unicode="&#xf659;" horiz-adv-x="573" 
d="M282 0h-260v6l59 51v409l-59 51v6h247c113 0 210 -25 210 -124c0 -56 -46 -99 -89 -121l79 -143c44 -79 79 -107 106 -129v-6c-11 -2 -41 -6 -70 -6c-103 0 -134 40 -155 79l-87 172h-41v-188l60 -51v-6zM261 473h-39v-182h83c15 0 44 39 44 90c0 68 -44 92 -88 92z
M142 788l8 5l113 -94l113 94l8 -5l-121 -229z" />
    <glyph glyph-name="Rcommaaccent" unicode="&#x156;" horiz-adv-x="672" 
d="M325 0h-299v6l71 60v530l-71 61v5h283c136 0 242 -39 242 -152c0 -75 -61 -130 -112 -157l107 -187c58 -101 107 -138 135 -160v-6c-12 -2 -43 -7 -77 -7c-117 0 -155 41 -192 112l-112 212h-53v-251l77 -60zM294 608h-47v-240h93c31 0 70 52 70 118
c0 89 -58 122 -116 122zM439 -128c0 -63 -50 -113 -113 -140l-13 6c22 28 49 72 56 102c0 0 -2 -1 -5 -1c-33 0 -60 19 -60 51c0 34 27 55 64 55c41 0 71 -28 71 -73z" />
    <glyph glyph-name="Rcommaaccent.sc" unicode="&#xf65a;" horiz-adv-x="573" 
d="M282 0h-260v6l59 51v409l-59 51v6h247c113 0 210 -25 210 -124c0 -56 -46 -99 -89 -121l79 -143c44 -79 79 -107 106 -129v-6c-11 -2 -41 -6 -70 -6c-103 0 -134 40 -155 79l-87 172h-41v-188l60 -51v-6zM261 473h-39v-182h83c15 0 44 39 44 90c0 68 -44 92 -88 92z
M383 -128c0 -63 -50 -113 -113 -140l-13 6c22 28 49 72 56 102c0 0 -2 -1 -5 -1c-33 0 -60 19 -60 51c0 34 27 55 64 55c41 0 71 -28 71 -73z" />
    <glyph glyph-name="S.sc" unicode="&#xf773;" horiz-adv-x="422" 
d="M235 532c62 0 114 -9 125 -13v-133h-7c-57 66 -98 94 -130 94c-27 0 -51 -18 -51 -49c0 -35 23 -54 83 -98c85 -63 135 -109 135 -187c0 -88 -75 -154 -195 -154c-72 0 -125 17 -148 27c-4 27 -9 120 -8 182h8c46 -94 98 -152 148 -152c33 0 64 24 64 63
c0 46 -29 67 -90 112c-85 61 -120 103 -120 170c0 90 80 138 186 138z" />
    <glyph glyph-name="Sacute" unicode="&#x15a;" horiz-adv-x="491" 
d="M273 673c71 0 127 -12 141 -17v-148h-7c-58 71 -105 109 -151 109c-33 0 -66 -25 -66 -66c0 -55 32 -81 107 -137c101 -78 162 -130 162 -229c0 -110 -90 -195 -232 -195c-87 0 -150 22 -181 37c-4 33 -10 141 -8 212h9c46 -104 103 -187 179 -187c48 0 87 38 87 92
c0 60 -31 90 -109 146c-102 75 -148 132 -148 213c0 110 93 170 217 170zM384 745l-254 -41l-4 8l217 140z" />
    <glyph glyph-name="Sacute.pl" horiz-adv-x="491" 
d="M273 673c71 0 127 -12 141 -17v-148h-7c-58 71 -105 109 -151 109c-33 0 -66 -25 -66 -66c0 -55 32 -81 107 -137c101 -78 162 -130 162 -229c0 -110 -90 -195 -232 -195c-87 0 -150 22 -181 37c-4 33 -10 141 -8 212h9c46 -104 103 -187 179 -187c48 0 87 38 87 92
c0 60 -31 90 -109 146c-102 75 -148 132 -148 213c0 110 93 170 217 170zM349 840l-119 -144l-8 1l7 185z" />
    <glyph glyph-name="Sacute.sc" unicode="&#xf65b;" horiz-adv-x="422" 
d="M335 725l-181 -159l-8 5l93 223zM235 532c62 0 114 -9 125 -13v-133h-7c-57 66 -98 94 -130 94c-27 0 -51 -18 -51 -49c0 -35 23 -54 83 -98c85 -63 135 -109 135 -187c0 -88 -75 -154 -195 -154c-72 0 -125 17 -148 27c-4 27 -9 120 -8 182h8c46 -94 98 -152 148 -152
c33 0 64 24 64 63c0 46 -29 67 -90 112c-85 61 -120 103 -120 170c0 90 80 138 186 138z" />
    <glyph glyph-name="Sacute.scpl" horiz-adv-x="422" 
d="M235 532c62 0 114 -9 125 -13v-133h-7c-57 66 -98 94 -130 94c-27 0 -51 -18 -51 -49c0 -35 23 -54 83 -98c85 -63 135 -109 135 -187c0 -88 -75 -154 -195 -154c-72 0 -125 17 -148 27c-4 27 -9 120 -8 182h8c46 -94 98 -152 148 -152c33 0 64 24 64 63
c0 46 -29 67 -90 112c-85 61 -120 103 -120 170c0 90 80 138 186 138zM318 763l-112 -198l-8 1l10 225z" />
    <glyph glyph-name="Scaron" unicode="&#x160;" horiz-adv-x="491" 
d="M98 845l5 6l149 -50l148 50l4 -6l-152 -153zM273 673c71 0 127 -12 141 -17v-148h-7c-58 71 -105 109 -151 109c-33 0 -66 -25 -66 -66c0 -55 32 -81 107 -137c101 -78 162 -130 162 -229c0 -110 -90 -195 -232 -195c-87 0 -150 22 -181 37c-4 33 -10 141 -8 212h9
c46 -104 103 -187 179 -187c48 0 87 38 87 92c0 60 -31 90 -109 146c-102 75 -148 132 -148 213c0 110 93 170 217 170z" />
    <glyph glyph-name="Scaron.sc" unicode="&#xf6fd;" horiz-adv-x="422" 
d="M95 788l8 5l113 -94l113 94l8 -5l-121 -229zM235 532c62 0 114 -9 125 -13v-133h-7c-57 66 -98 94 -130 94c-27 0 -51 -18 -51 -49c0 -35 23 -54 83 -98c85 -63 135 -109 135 -187c0 -88 -75 -154 -195 -154c-72 0 -125 17 -148 27c-4 27 -9 120 -8 182h8
c46 -94 98 -152 148 -152c33 0 64 24 64 63c0 46 -29 67 -90 112c-85 61 -120 103 -120 170c0 90 80 138 186 138z" />
    <glyph glyph-name="Scedilla" unicode="&#x15e;" horiz-adv-x="491" 
d="M273 673c71 0 127 -12 141 -17v-148h-7c-58 71 -105 109 -151 109c-33 0 -66 -25 -66 -66c0 -55 32 -81 107 -137c101 -78 162 -130 162 -229c0 -106 -84 -188 -216 -194l-25 -50c47 -10 100 -35 100 -85c0 -54 -49 -108 -210 -117l-5 12c60 25 113 55 113 87
c0 24 -41 39 -64 41l-2 3s40 81 54 109c-75 3 -130 22 -158 36c-4 33 -10 141 -8 212h9c46 -104 103 -187 179 -187c48 0 87 38 87 92c0 60 -31 90 -109 146c-102 75 -148 132 -148 213c0 110 93 170 217 170z" />
    <glyph glyph-name="Scedilla.sc" unicode="&#xf65c;" horiz-adv-x="422" 
d="M235 532c62 0 114 -9 125 -13v-133h-7c-57 66 -98 94 -130 94c-27 0 -51 -18 -51 -49c0 -35 23 -54 83 -98c85 -63 135 -109 135 -187c0 -80 -61 -141 -161 -152l-27 -53c47 -10 100 -35 100 -85c0 -54 -49 -108 -210 -117l-5 12c60 25 113 55 113 87c0 24 -41 39 -64 41
l-2 3s42 84 54 110c-68 1 -119 17 -141 27c-4 27 -9 120 -8 182h8c46 -94 98 -152 148 -152c33 0 64 24 64 63c0 46 -29 67 -90 112c-85 61 -120 103 -120 170c0 90 80 138 186 138z" />
    <glyph glyph-name="Scircumflex" unicode="&#x15c;" horiz-adv-x="491" 
d="M97 701l154 153l152 -153l-4 -6l-148 50l-149 -50zM273 673c71 0 127 -12 141 -17v-148h-7c-58 71 -105 109 -151 109c-33 0 -66 -25 -66 -66c0 -55 32 -81 107 -137c101 -78 162 -130 162 -229c0 -110 -90 -195 -232 -195c-87 0 -150 22 -181 37c-4 33 -10 141 -8 212h9
c46 -104 103 -187 179 -187c48 0 87 38 87 92c0 60 -31 90 -109 146c-102 75 -148 132 -148 213c0 110 93 170 217 170z" />
    <glyph glyph-name="Scircumflex.sc" unicode="&#xf636;" horiz-adv-x="422" 
d="M94 564l121 229l121 -229l-8 -5l-113 94l-113 -94zM235 532c62 0 114 -9 125 -13v-133h-7c-57 66 -98 94 -130 94c-27 0 -51 -18 -51 -49c0 -35 23 -54 83 -98c85 -63 135 -109 135 -187c0 -88 -75 -154 -195 -154c-72 0 -125 17 -148 27c-4 27 -9 120 -8 182h8
c46 -94 98 -152 148 -152c33 0 64 24 64 63c0 46 -29 67 -90 112c-85 61 -120 103 -120 170c0 90 80 138 186 138z" />
    <glyph glyph-name="Scommaaccent" unicode="&#x218;" horiz-adv-x="491" 
d="M304 -128c0 -63 -50 -113 -113 -140l-13 6c22 28 49 72 56 102c0 0 -2 -1 -5 -1c-33 0 -60 19 -60 51c0 34 27 55 64 55c41 0 71 -28 71 -73zM273 673c71 0 127 -12 141 -17v-148h-7c-58 71 -105 109 -151 109c-33 0 -66 -25 -66 -66c0 -55 32 -81 107 -137
c101 -78 162 -130 162 -229c0 -110 -90 -195 -232 -195c-87 0 -150 22 -181 37c-4 33 -10 141 -8 212h9c46 -104 103 -187 179 -187c48 0 87 38 87 92c0 60 -31 90 -109 146c-102 75 -148 132 -148 213c0 110 93 170 217 170z" />
    <glyph glyph-name="Scommaaccent.sc" unicode="&#xf65d;" horiz-adv-x="422" 
d="M284 -128c0 -63 -50 -113 -113 -140l-13 6c22 28 49 72 56 102c0 0 -2 -1 -5 -1c-33 0 -60 19 -60 51c0 34 27 55 64 55c41 0 71 -28 71 -73zM235 532c62 0 114 -9 125 -13v-133h-7c-57 66 -98 94 -130 94c-27 0 -51 -18 -51 -49c0 -35 23 -54 83 -98
c85 -63 135 -109 135 -187c0 -88 -75 -154 -195 -154c-72 0 -125 17 -148 27c-4 27 -9 120 -8 182h8c46 -94 98 -152 148 -152c33 0 64 24 64 63c0 46 -29 67 -90 112c-85 61 -120 103 -120 170c0 90 80 138 186 138z" />
    <glyph glyph-name="T.sc" unicode="&#xf774;" horiz-adv-x="559" 
d="M25 523h509v-140h-6l-85 89h-93v-415l69 -51v-6h-279v6l69 51v415h-94l-84 -89h-6v140z" />
    <glyph glyph-name="Tbar" unicode="&#x166;" horiz-adv-x="670" 
d="M27 662h616v-164h-7l-97 107h-128v-213h156v-53h-156v-272l81 -61v-6h-316v6l82 61v272h-154v53h154v213h-129l-96 -107h-6v164z" />
    <glyph glyph-name="Tbar.sc" unicode="&#xf637;" horiz-adv-x="559" 
d="M25 523h509v-140h-6l-85 89h-93v-161h121v-48h-121v-206l69 -51v-6h-279v6l69 51v206h-121v48h121v161h-94l-84 -89h-6v140z" />
    <glyph glyph-name="Tcaron" unicode="&#x164;" horiz-adv-x="670" 
d="M180 845l5 6l149 -50l148 50l4 -6l-152 -153zM27 662h616v-164h-7l-97 107h-128v-538l81 -61v-6h-316v6l82 61v538h-129l-96 -107h-6v164z" />
    <glyph glyph-name="Tcaron.sc" unicode="&#xf65e;" horiz-adv-x="559" 
d="M25 523h509v-140h-6l-85 89h-93v-415l69 -51v-6h-279v6l69 51v415h-94l-84 -89h-6v140zM157 788l8 5l113 -94l113 94l8 -5l-121 -229z" />
    <glyph glyph-name="Tcommaaccent" unicode="&#x162;" horiz-adv-x="670" 
d="M408 -128c0 -63 -50 -113 -113 -140l-13 6c22 28 49 72 56 102c0 0 -2 -1 -5 -1c-33 0 -60 19 -60 51c0 34 27 55 64 55c41 0 71 -28 71 -73zM27 662h616v-164h-7l-97 107h-128v-538l81 -61v-6h-316v6l82 61v538h-129l-96 -107h-6v164z" />
    <glyph glyph-name="Tcommaaccent.sc" unicode="&#xf65f;" horiz-adv-x="559" 
d="M25 523h509v-140h-6l-85 89h-93v-415l69 -51v-6h-279v6l69 51v415h-94l-84 -89h-6v140zM353 -128c0 -63 -50 -113 -113 -140l-13 6c22 28 49 72 56 102c0 0 -2 -1 -5 -1c-33 0 -60 19 -60 51c0 34 27 55 64 55c41 0 71 -28 71 -73z" />
    <glyph glyph-name="Thorn" unicode="&#xde;" horiz-adv-x="599" 
d="M248 596v-83h59c169 0 271 -47 271 -152c0 -127 -153 -178 -297 -178v13c73 24 147 65 147 154c0 78 -63 110 -146 110h-34v-394l82 -60v-6h-304v6l71 60v530l-71 60v6h293v-6z" />
    <glyph glyph-name="Thorn.sc" unicode="&#xf7fe;" horiz-adv-x="511" 
d="M222 466v-58h40c149 0 230 -40 230 -122c0 -103 -130 -141 -244 -142v13c52 19 108 54 108 120c0 60 -51 83 -111 83h-23v-303l58 -51v-6h-258v6l59 51v409l-59 51v6h258v-6z" />
    <glyph glyph-name="U.sc" unicode="&#xf775;" horiz-adv-x="628" 
d="M553 466v-277c0 -66 -53 -196 -230 -196c-179 0 -248 102 -248 192v281l-58 51v6h258v-6l-59 -51v-273c0 -70 46 -127 141 -127c85 0 131 63 131 127v273l-59 51v6h181v-6z" />
    <glyph glyph-name="Uacute" unicode="&#xda;" horiz-adv-x="753" 
d="M664 596v-358c0 -99 -73 -248 -275 -248c-209 0 -300 117 -300 244v362l-70 61v5h304v-5l-81 -61v-354c0 -92 51 -167 182 -167c108 0 170 79 170 167v354l-80 61v5h220v-5zM534 745l-254 -41l-4 8l217 140z" />
    <glyph glyph-name="Uacute.sc" unicode="&#xf7fa;" horiz-adv-x="628" 
d="M553 466v-277c0 -66 -53 -196 -230 -196c-179 0 -248 102 -248 192v281l-58 51v6h258v-6l-59 -51v-273c0 -70 46 -127 141 -127c85 0 131 63 131 127v273l-59 51v6h181v-6zM477 725l-181 -159l-8 5l93 223z" />
    <glyph glyph-name="Ubreve" unicode="&#x16c;" horiz-adv-x="753" 
d="M664 596v-358c0 -99 -73 -248 -275 -248c-209 0 -300 117 -300 244v362l-70 61v5h304v-5l-81 -61v-354c0 -92 51 -167 182 -167c108 0 170 79 170 167v354l-80 61v5h220v-5zM404 701c-86 0 -122 72 -123 136l7 1c20 -29 58 -58 116 -58c57 0 96 29 116 58l7 -1
c-1 -63 -38 -136 -123 -136z" />
    <glyph glyph-name="Ubreve.sc" unicode="&#xf638;" horiz-adv-x="628" 
d="M553 466v-277c0 -66 -53 -196 -230 -196c-179 0 -248 102 -248 192v281l-58 51v6h258v-6l-59 -51v-273c0 -70 46 -127 141 -127c85 0 131 63 131 127v273l-59 51v6h181v-6zM345 656c52 0 87 44 100 72l8 -1c2 -79 -35 -149 -108 -149c-74 0 -110 68 -108 149l8 1
c14 -29 47 -72 100 -72z" />
    <glyph glyph-name="Ucircumflex" unicode="&#xdb;" horiz-adv-x="753" 
d="M664 596v-358c0 -99 -73 -248 -275 -248c-209 0 -300 117 -300 244v362l-70 61v5h304v-5l-81 -61v-354c0 -92 51 -167 182 -167c108 0 170 79 170 167v354l-80 61v5h220v-5zM250 701l154 153l152 -153l-4 -6l-148 50l-149 -50z" />
    <glyph glyph-name="Ucircumflex.sc" unicode="&#xf7fb;" horiz-adv-x="628" 
d="M553 466v-277c0 -66 -53 -196 -230 -196c-179 0 -248 102 -248 192v281l-58 51v6h258v-6l-59 -51v-273c0 -70 46 -127 141 -127c85 0 131 63 131 127v273l-59 51v6h181v-6zM224 564l121 229l121 -229l-8 -5l-113 94l-113 -94z" />
    <glyph glyph-name="Udieresis" unicode="&#xdc;" horiz-adv-x="753" 
d="M664 596v-358c0 -99 -73 -248 -275 -248c-209 0 -300 117 -300 244v362l-70 61v5h304v-5l-81 -61v-354c0 -92 51 -167 182 -167c108 0 170 79 170 167v354l-80 61v5h220v-5zM302 701c-37 0 -66 27 -66 64s29 65 66 65c35 0 65 -28 65 -65s-30 -64 -65 -64zM576 765
c0 -37 -29 -64 -65 -64s-65 27 -65 64s29 65 65 65s65 -28 65 -65z" />
    <glyph glyph-name="Udieresis.sc" unicode="&#xf7fc;" horiz-adv-x="628" 
d="M553 466v-277c0 -66 -53 -196 -230 -196c-179 0 -248 102 -248 192v281l-58 51v6h258v-6l-59 -51v-273c0 -70 46 -127 141 -127c85 0 131 63 131 127v273l-59 51v6h181v-6zM249 713c36 0 64 -28 64 -65c0 -36 -28 -63 -64 -63c-37 0 -64 27 -64 63c0 37 27 65 64 65z
M434 713c35 0 63 -28 63 -65c0 -36 -28 -62 -63 -62c-37 0 -65 26 -65 62c0 37 28 65 65 65z" />
    <glyph glyph-name="Ugrave" unicode="&#xd9;" horiz-adv-x="753" 
d="M664 596v-358c0 -99 -73 -248 -275 -248c-209 0 -300 117 -300 244v362l-70 61v5h304v-5l-81 -61v-354c0 -92 51 -167 182 -167c108 0 170 79 170 167v354l-80 61v5h220v-5zM530 712l-4 -8l-253 41l39 107z" />
    <glyph glyph-name="Ugrave.sc" unicode="&#xf7f9;" horiz-adv-x="628" 
d="M553 466v-277c0 -66 -53 -196 -230 -196c-179 0 -248 102 -248 192v281l-58 51v6h258v-6l-59 -51v-273c0 -70 46 -127 141 -127c85 0 131 63 131 127v273l-59 51v6h181v-6zM411 572l-8 -4l-181 158l96 70z" />
    <glyph glyph-name="Uhungarumlaut" unicode="&#x170;" horiz-adv-x="753" 
d="M664 596v-358c0 -99 -73 -248 -275 -248c-209 0 -300 117 -300 244v362l-70 61v5h304v-5l-81 -61v-354c0 -92 51 -167 182 -167c108 0 170 79 170 167v354l-80 61v5h220v-5zM455 787l-201 -84l-5 8l145 158zM427 711l145 158l60 -82l-200 -84z" />
    <glyph glyph-name="Uhungarumlaut.sc" unicode="&#xf660;" horiz-adv-x="628" 
d="M553 466v-277c0 -66 -53 -196 -230 -196c-179 0 -248 102 -248 192v281l-58 51v6h258v-6l-59 -51v-273c0 -70 46 -127 141 -127c85 0 131 63 131 127v273l-59 51v6h181v-6zM529 749l-135 -184l-8 4l51 221zM385 749l-134 -184l-8 4l50 221z" />
    <glyph glyph-name="Umacron" unicode="&#x16a;" horiz-adv-x="753" 
d="M664 596v-358c0 -99 -73 -248 -275 -248c-209 0 -300 117 -300 244v362l-70 61v5h304v-5l-81 -61v-354c0 -92 51 -167 182 -167c108 0 170 79 170 167v354l-80 61v5h220v-5zM282 714v73h263v-73h-263z" />
    <glyph glyph-name="Umacron.sc" unicode="&#xf661;" horiz-adv-x="628" 
d="M553 466v-277c0 -66 -53 -196 -230 -196c-179 0 -248 102 -248 192v281l-58 51v6h258v-6l-59 -51v-273c0 -70 46 -127 141 -127c85 0 131 63 131 127v273l-59 51v6h181v-6zM224 601v74h231v-74h-231z" />
    <glyph glyph-name="Uogonek" unicode="&#x172;" horiz-adv-x="753" 
d="M339 -166c0 68 69 119 151 170c-26 -8 -59 -14 -101 -14c-209 0 -300 117 -300 244v362l-70 61v5h304v-5l-81 -61v-354c0 -92 51 -167 182 -167c108 0 170 79 170 167v354l-80 61v5h220v-5l-70 -61v-358c0 -86 -47 -158 -116 -218c-45 -40 -90 -90 -90 -144
c0 -36 25 -63 71 -63c25 0 42 5 53 9l4 -5c-16 -25 -69 -73 -141 -73c-66 0 -106 37 -106 90z" />
    <glyph glyph-name="Uogonek.sc" unicode="&#xf662;" horiz-adv-x="628" 
d="M277 -166c0 68 84 132 153 178c-27 -11 -61 -19 -107 -19c-179 0 -248 102 -248 192v281l-58 51v6h258v-6l-59 -51v-273c0 -70 46 -127 141 -127c85 0 131 63 131 127v273l-59 51v6h181v-6l-57 -51v-277c0 -57 -31 -112 -81 -172c-36 -43 -75 -89 -75 -141
c0 -36 24 -63 70 -63c25 0 42 5 53 9l4 -5c-15 -25 -69 -73 -141 -73c-66 0 -106 37 -106 90z" />
    <glyph glyph-name="Uring" unicode="&#x16e;" horiz-adv-x="753" 
d="M664 596v-358c0 -99 -73 -248 -275 -248c-209 0 -300 117 -300 244v362l-70 61v5h304v-5l-81 -61v-354c0 -92 51 -167 182 -167c108 0 170 79 170 167v354l-80 61v5h220v-5zM326 768c0 49 43 89 90 89c48 0 90 -40 90 -89c0 -50 -42 -89 -90 -89s-90 38 -90 89zM369 768
c0 -26 19 -50 47 -50c27 0 47 23 47 50c0 26 -20 50 -47 50c-28 0 -47 -24 -47 -50z" />
    <glyph glyph-name="Uring.sc" unicode="&#xf663;" horiz-adv-x="628" 
d="M553 466v-277c0 -66 -53 -196 -230 -196c-179 0 -248 102 -248 192v281l-58 51v6h258v-6l-59 -51v-273c0 -70 46 -127 141 -127c85 0 131 63 131 127v273l-59 51v6h181v-6zM256 653c0 49 43 89 90 89c48 0 90 -40 90 -89c0 -50 -42 -89 -90 -89s-90 38 -90 89zM299 653
c0 -26 19 -50 47 -50c27 0 47 23 47 50c0 26 -20 50 -47 50c-28 0 -47 -24 -47 -50z" />
    <glyph glyph-name="Utilde" unicode="&#x168;" horiz-adv-x="753" 
d="M664 596v-358c0 -99 -73 -248 -275 -248c-209 0 -300 117 -300 244v362l-70 61v5h304v-5l-81 -61v-354c0 -92 51 -167 182 -167c108 0 170 79 170 167v354l-80 61v5h220v-5zM357 820c25 0 109 -19 139 -19c20 0 52 25 74 47l7 -2c-16 -64 -57 -129 -89 -129
c-30 0 -110 18 -139 18c-21 0 -53 -26 -74 -47l-7 2c16 64 59 130 89 130z" />
    <glyph glyph-name="Utilde.sc" unicode="&#xf639;" horiz-adv-x="628" 
d="M553 466v-277c0 -66 -53 -196 -230 -196c-179 0 -248 102 -248 192v281l-58 51v6h258v-6l-59 -51v-273c0 -70 46 -127 141 -127c85 0 131 63 131 127v273l-59 51v6h181v-6zM299 707c24 0 97 -26 122 -26c17 0 40 25 64 56l7 -3c-9 -73 -41 -138 -75 -138
c-29 0 -98 25 -123 25c-17 0 -41 -25 -65 -55l-7 2c10 67 45 139 77 139z" />
    <glyph glyph-name="V.sc" unicode="&#xf776;" horiz-adv-x="535" 
d="M417 466l-59 51v6h174v-6l-49 -51l-186 -469h-34l-211 469l-48 51v6h263v-6l-59 -51l110 -256z" />
    <glyph glyph-name="W.sc" unicode="&#xf777;" horiz-adv-x="813" 
d="M488 518l-33 -52l41 -89l39 89l-32 52v5h127v-5l-37 -52l-70 -148l65 -137l107 285l-37 52v5h151v-5l-48 -52l-181 -470h-33l-125 253l-113 -253h-34l-223 470l-48 52v5h236v-5l-39 -52l129 -285l61 132l-75 153l-47 52v5h219v-5z" />
    <glyph glyph-name="W.sc001" horiz-adv-x="777" 
d="M575 215l84 251l-59 51v6h173v-6l-48 -51l-157 -470h-34l-136 329l-129 -328h-33l-184 469l-48 51v6h257v-6l-59 -51l91 -250l120 312h34z" />
    <glyph glyph-name="Wacute" unicode="&#x1e82;" horiz-adv-x="990" 
d="M586 657l-46 -61l51 -120l54 120l-42 61v5h153v-5l-48 -61l-88 -187l90 -207l146 394l-51 61v5h183v-5l-61 -61l-228 -603h-34l-151 330l-146 -330h-34l-272 603l-60 61v5h274v-5l-54 -61l172 -390l86 190l-91 200l-58 61v5h255v-5zM685 745l-254 -41l-4 8l217 140z" />
    <glyph glyph-name="Wacute.001" horiz-adv-x="963" 
d="M509 671h34l163 -427l116 352l-72 61v5h204v-5l-61 -61l-198 -603h-34l-170 443l-165 -442h-33l-224 602l-60 61v5h292v-5l-72 -61l124 -351zM660 745l-254 -41l-4 8l217 140z" />
    <glyph glyph-name="Wacute.sc" unicode="&#xf63a;" horiz-adv-x="813" 
d="M488 518l-33 -52l41 -89l39 89l-32 52v5h127v-5l-37 -52l-70 -148l65 -137l107 285l-37 52v5h151v-5l-48 -52l-181 -470h-33l-125 253l-113 -253h-34l-223 470l-48 52v5h236v-5l-39 -52l129 -285l61 132l-75 153l-47 52v5h219v-5zM579 725l-181 -159l-8 5l93 223z" />
    <glyph glyph-name="Wacute.sc001" horiz-adv-x="777" 
d="M575 215l84 251l-59 51v6h173v-6l-48 -51l-157 -470h-34l-136 329l-129 -328h-33l-184 469l-48 51v6h257v-6l-59 -51l91 -250l120 312h34zM541 725l-181 -159l-8 5l93 223z" />
    <glyph glyph-name="Wcircumflex" unicode="&#x174;" horiz-adv-x="990" 
d="M586 657l-46 -61l51 -120l54 120l-42 61v5h153v-5l-48 -61l-88 -187l90 -207l146 394l-51 61v5h183v-5l-61 -61l-228 -603h-34l-151 330l-146 -330h-34l-272 603l-60 61v5h274v-5l-54 -61l172 -390l86 190l-91 200l-58 61v5h255v-5zM395 701l154 153l152 -153l-4 -6
l-148 50l-149 -50z" />
    <glyph glyph-name="Wcircumflex.001" horiz-adv-x="963" 
d="M509 671h34l163 -427l116 352l-72 61v5h204v-5l-61 -61l-198 -603h-34l-170 443l-165 -442h-33l-224 602l-60 61v5h292v-5l-72 -61l124 -351zM373 701l154 153l152 -153l-4 -6l-148 50l-149 -50z" />
    <glyph glyph-name="Wcircumflex.sc" unicode="&#xf63b;" horiz-adv-x="813" 
d="M488 518l-33 -52l41 -89l39 89l-32 52v5h127v-5l-37 -52l-70 -148l65 -137l107 285l-37 52v5h151v-5l-48 -52l-181 -470h-33l-125 253l-113 -253h-34l-223 470l-48 52v5h236v-5l-39 -52l129 -285l61 132l-75 153l-47 52v5h219v-5zM340 564l121 229l121 -229l-8 -5
l-113 94l-113 -94z" />
    <glyph glyph-name="Wcircumflex.sc001" horiz-adv-x="777" 
d="M575 215l84 251l-59 51v6h173v-6l-48 -51l-157 -470h-34l-136 329l-129 -328h-33l-184 469l-48 51v6h257v-6l-59 -51l91 -250l120 312h34zM309 564l121 229l121 -229l-8 -5l-113 94l-113 -94z" />
    <glyph glyph-name="Wdieresis" unicode="&#x1e84;" horiz-adv-x="990" 
d="M586 657l-46 -61l51 -120l54 120l-42 61v5h153v-5l-48 -61l-88 -187l90 -207l146 394l-51 61v5h183v-5l-61 -61l-228 -603h-34l-151 330l-146 -330h-34l-272 603l-60 61v5h274v-5l-54 -61l172 -390l86 190l-91 200l-58 61v5h255v-5zM449 701c-37 0 -66 27 -66 64
s29 65 66 65c35 0 65 -28 65 -65s-30 -64 -65 -64zM723 765c0 -37 -29 -64 -65 -64s-65 27 -65 64s29 65 65 65s65 -28 65 -65z" />
    <glyph glyph-name="Wdieresis.001" horiz-adv-x="963" 
d="M509 671h34l163 -427l116 352l-72 61v5h204v-5l-61 -61l-198 -603h-34l-170 443l-165 -442h-33l-224 602l-60 61v5h292v-5l-72 -61l124 -351zM421 701c-37 0 -66 27 -66 64s29 65 66 65c35 0 65 -28 65 -65s-30 -64 -65 -64zM695 765c0 -37 -29 -64 -65 -64
s-65 27 -65 64s29 65 65 65s65 -28 65 -65z" />
    <glyph glyph-name="Wdieresis.sc" unicode="&#xf63c;" horiz-adv-x="813" 
d="M488 518l-33 -52l41 -89l39 89l-32 52v5h127v-5l-37 -52l-70 -148l65 -137l107 285l-37 52v5h151v-5l-48 -52l-181 -470h-33l-125 253l-113 -253h-34l-223 470l-48 52v5h236v-5l-39 -52l129 -285l61 132l-75 153l-47 52v5h219v-5zM365 713c36 0 64 -28 64 -65
c0 -36 -28 -63 -64 -63c-37 0 -64 27 -64 63c0 37 27 65 64 65zM550 713c35 0 63 -28 63 -65c0 -36 -28 -62 -63 -62c-37 0 -65 26 -65 62c0 37 28 65 65 65z" />
    <glyph glyph-name="Wdieresis.sc001" horiz-adv-x="777" 
d="M575 215l84 251l-59 51v6h173v-6l-48 -51l-157 -470h-34l-136 329l-129 -328h-33l-184 469l-48 51v6h257v-6l-59 -51l91 -250l120 312h34zM334 713c36 0 64 -28 64 -65c0 -36 -28 -63 -64 -63c-37 0 -64 27 -64 63c0 37 27 65 64 65zM519 713c35 0 63 -28 63 -65
c0 -36 -28 -62 -63 -62c-37 0 -65 26 -65 62c0 37 28 65 65 65z" />
    <glyph glyph-name="Wgrave" unicode="&#x1e80;" horiz-adv-x="990" 
d="M586 657l-46 -61l51 -120l54 120l-42 61v5h153v-5l-48 -61l-88 -187l90 -207l146 394l-51 61v5h183v-5l-61 -61l-228 -603h-34l-151 330l-146 -330h-34l-272 603l-60 61v5h274v-5l-54 -61l172 -390l86 190l-91 200l-58 61v5h255v-5zM673 712l-4 -8l-253 41l39 107z" />
    <glyph glyph-name="Wgrave.001" horiz-adv-x="963" 
d="M509 671h34l163 -427l116 352l-72 61v5h204v-5l-61 -61l-198 -603h-34l-170 443l-165 -442h-33l-224 602l-60 61v5h292v-5l-72 -61l124 -351zM648 712l-4 -8l-253 41l39 107z" />
    <glyph glyph-name="Wgrave.sc" unicode="&#xf63d;" horiz-adv-x="813" 
d="M488 518l-33 -52l41 -89l39 89l-32 52v5h127v-5l-37 -52l-70 -148l65 -137l107 285l-37 52v5h151v-5l-48 -52l-181 -470h-33l-125 253l-113 -253h-34l-223 470l-48 52v5h236v-5l-39 -52l129 -285l61 132l-75 153l-47 52v5h219v-5zM529 572l-8 -4l-181 158l96 70z" />
    <glyph glyph-name="Wgrave.sc001" horiz-adv-x="777" 
d="M575 215l84 251l-59 51v6h173v-6l-48 -51l-157 -470h-34l-136 329l-129 -328h-33l-184 469l-48 51v6h257v-6l-59 -51l91 -250l120 312h34zM500 572l-8 -4l-181 158l96 70z" />
    <glyph glyph-name="X.sc" unicode="&#xf778;" horiz-adv-x="571" 
d="M210 0h-205v6l68 51l141 197l-149 212l-56 51v6h278v-6l-56 -51l86 -128l89 128l-56 51v6h200v-6l-68 -51l-128 -182l155 -227l57 -51v-6h-273v6l59 51l-99 141l-103 -141l60 -51v-6z" />
    <glyph glyph-name="Y.sc" unicode="&#xf779;" horiz-adv-x="521" 
d="M398 466l-57 51v6h176v-6l-51 -51l-128 -203v-203l57 -54v-6h-255l1 6l56 54v187l-142 219l-51 51v6h263v-6l-57 -51l94 -148z" />
    <glyph glyph-name="Yacute" unicode="&#xdd;" horiz-adv-x="624" 
d="M487 592l-70 65v5h205v-5l-61 -61l-164 -264v-263l69 -63v-6h-291v6l70 63v244l-183 283l-60 61v5h300v-5l-70 -61l129 -207zM480 745l-254 -41l-4 8l217 140z" />
    <glyph glyph-name="Yacute.sc" unicode="&#xf7fd;" horiz-adv-x="521" 
d="M398 466l-57 51v6h176v-6l-51 -51l-128 -203v-203l57 -54v-6h-255l1 6l56 54v187l-142 219l-51 51v6h263v-6l-57 -51l94 -148zM422 725l-181 -159l-8 5l93 223z" />
    <glyph glyph-name="Ycircumflex" unicode="&#x176;" horiz-adv-x="624" 
d="M487 592l-70 65v5h205v-5l-61 -61l-164 -264v-263l69 -63v-6h-291v6l70 63v244l-183 283l-60 61v5h300v-5l-70 -61l129 -207zM187 701l154 153l152 -153l-4 -6l-148 50l-149 -50z" />
    <glyph glyph-name="Ycircumflex.sc" unicode="&#xf63e;" horiz-adv-x="521" 
d="M398 466l-57 51v6h176v-6l-51 -51l-128 -203v-203l57 -54v-6h-255l1 6l56 54v187l-142 219l-51 51v6h263v-6l-57 -51l94 -148zM166 564l121 229l121 -229l-8 -5l-113 94l-113 -94z" />
    <glyph glyph-name="Ydieresis" unicode="&#x178;" horiz-adv-x="624" 
d="M487 592l-70 65v5h205v-5l-61 -61l-164 -264v-263l69 -63v-6h-291v6l70 63v244l-183 283l-60 61v5h300v-5l-70 -61l129 -207zM236 701c-37 0 -66 27 -66 64s29 65 66 65c35 0 65 -28 65 -65s-30 -64 -65 -64zM510 765c0 -37 -29 -64 -65 -64s-65 27 -65 64s29 65 65 65
s65 -28 65 -65z" />
    <glyph glyph-name="Ydieresis.sc" unicode="&#xf7ff;" horiz-adv-x="521" 
d="M398 466l-57 51v6h176v-6l-51 -51l-128 -203v-203l57 -54v-6h-255l1 6l56 54v187l-142 219l-51 51v6h263v-6l-57 -51l94 -148zM196 713c36 0 64 -28 64 -65c0 -36 -28 -63 -64 -63c-37 0 -64 27 -64 63c0 37 27 65 64 65zM381 713c35 0 63 -28 63 -65
c0 -36 -28 -62 -63 -62c-37 0 -65 26 -65 62c0 37 28 65 65 65z" />
    <glyph glyph-name="Ygrave" unicode="&#x1ef2;" horiz-adv-x="624" 
d="M487 592l-70 65v5h205v-5l-61 -61l-164 -264v-263l69 -63v-6h-291v6l70 63v244l-183 283l-60 61v5h300v-5l-70 -61l129 -207zM464 712l-4 -8l-253 41l39 107z" />
    <glyph glyph-name="Ygrave.sc" unicode="&#xf63f;" horiz-adv-x="521" 
d="M398 466l-57 51v6h176v-6l-51 -51l-128 -203v-203l57 -54v-6h-255l1 6l56 54v187l-142 219l-51 51v6h263v-6l-57 -51l94 -148zM358 572l-8 -4l-181 158l96 70z" />
    <glyph glyph-name="Z.sc" unicode="&#xf77a;" horiz-adv-x="523" 
d="M487 517l-285 -461h188l96 127h6v-183h-469v7l280 465h-160l-91 -108h-6v159h441v-6z" />
    <glyph glyph-name="Zacute" unicode="&#x179;" horiz-adv-x="631" 
d="M590 654l-370 -593h262l109 147h7v-208h-574v9l365 597h-228l-102 -128h-7v184h538v-8zM465 745l-254 -41l-4 8l217 140z" />
    <glyph glyph-name="Zacute.pl" horiz-adv-x="631" 
d="M590 654l-370 -593h262l109 147h7v-208h-574v9l365 597h-228l-102 -128h-7v184h538v-8zM425 840l-119 -144l-8 1l7 185z" />
    <glyph glyph-name="Zacute.sc" unicode="&#xf664;" horiz-adv-x="523" 
d="M487 517l-285 -461h188l96 127h6v-183h-469v7l280 465h-160l-91 -108h-6v159h441v-6zM398 725l-181 -159l-8 5l93 223z" />
    <glyph glyph-name="Zacute.scpl" horiz-adv-x="523" 
d="M487 517l-285 -461h188l96 127h6v-183h-469v7l280 465h-160l-91 -108h-6v159h441v-6zM365 763l-112 -198l-8 1l10 225z" />
    <glyph glyph-name="Zcaron" unicode="&#x17d;" horiz-adv-x="631" 
d="M590 654l-370 -593h262l109 147h7v-208h-574v9l365 597h-228l-102 -128h-7v184h538v-8zM170 845l5 6l149 -50l148 50l4 -6l-152 -153z" />
    <glyph glyph-name="Zcaron.sc" unicode="&#xf6ff;" horiz-adv-x="523" 
d="M487 517l-285 -461h188l96 127h6v-183h-469v7l280 465h-160l-91 -108h-6v159h441v-6zM146 788l8 5l113 -94l113 94l8 -5l-121 -229z" />
    <glyph glyph-name="Zdotaccent" unicode="&#x17b;" horiz-adv-x="631" 
d="M590 654l-370 -593h262l109 147h7v-208h-574v9l365 597h-228l-102 -128h-7v184h538v-8zM254 769c0 39 31 68 69 68c39 0 70 -29 70 -68c0 -38 -31 -67 -70 -67c-38 0 -69 29 -69 67z" />
    <glyph glyph-name="Zdotaccent.sc" unicode="&#xf665;" horiz-adv-x="523" 
d="M487 517l-285 -461h188l96 127h6v-183h-469v7l280 465h-160l-91 -108h-6v159h441v-6zM201 652c0 38 32 68 70 68c39 0 69 -30 69 -68s-30 -67 -69 -67c-38 0 -70 29 -70 67z" />
    <glyph glyph-name="aacute" unicode="&#xe1;" horiz-adv-x="460" 
d="M266 315c0 30 -24 54 -64 54c-25 0 -44 -12 -50 -17v-81l-118 40v6c28 33 103 127 221 127c109 0 143 -71 143 -109c0 -49 -3 -217 -3 -244c18 -11 46 -23 67 -30v-6l-84 -77c-36 12 -81 37 -108 67c-35 -33 -83 -58 -113 -58c-81 0 -134 55 -134 117c0 39 20 73 39 78
l204 50v83zM359 644l-181 -159l-8 5l93 223zM265 77c0 15 1 57 1 108c-35 -9 -103 -29 -109 -32c-4 -2 -7 -14 -7 -26c0 -35 24 -61 68 -61c21 0 39 7 47 11z" />
    <glyph glyph-name="abreve" unicode="&#x103;" horiz-adv-x="460" 
d="M266 315c0 30 -24 54 -64 54c-25 0 -44 -12 -50 -17v-81l-118 40v6c28 33 103 127 221 127c109 0 143 -71 143 -109c0 -49 -3 -217 -3 -244c18 -11 46 -23 67 -30v-6l-84 -77c-36 12 -81 37 -108 67c-35 -33 -83 -58 -113 -58c-81 0 -134 55 -134 117c0 39 20 73 39 78
l204 50v83zM222 575c52 0 87 44 100 72l8 -1c2 -79 -35 -149 -108 -149c-74 0 -110 68 -108 149l8 1c14 -29 47 -72 100 -72zM265 77c0 15 1 57 1 108c-35 -9 -103 -29 -109 -32c-4 -2 -7 -14 -7 -26c0 -35 24 -61 68 -61c21 0 39 7 47 11z" />
    <glyph glyph-name="acircumflex" unicode="&#xe2;" horiz-adv-x="460" 
d="M266 315c0 30 -24 54 -64 54c-25 0 -44 -12 -50 -17v-81l-118 40v6c28 33 103 127 221 127c109 0 143 -71 143 -109c0 -49 -3 -217 -3 -244c18 -11 46 -23 67 -30v-6l-84 -77c-36 12 -81 37 -108 67c-35 -33 -83 -58 -113 -58c-81 0 -134 55 -134 117c0 39 20 73 39 78
l204 50v83zM109 483l121 229l121 -229l-8 -5l-113 94l-113 -94zM265 77c0 15 1 57 1 108c-35 -9 -103 -29 -109 -32c-4 -2 -7 -14 -7 -26c0 -35 24 -61 68 -61c21 0 39 7 47 11z" />
    <glyph glyph-name="adieresis" unicode="&#xe4;" horiz-adv-x="460" 
d="M266 315c0 30 -24 54 -64 54c-25 0 -44 -12 -50 -17v-81l-118 40v6c28 33 103 127 221 127c109 0 143 -71 143 -109c0 -49 -3 -217 -3 -244c18 -11 46 -23 67 -30v-6l-84 -77c-36 12 -81 37 -108 67c-35 -33 -83 -58 -113 -58c-81 0 -134 55 -134 117c0 39 20 73 39 78
l204 50v83zM136 635c36 0 64 -28 64 -65c0 -36 -28 -63 -64 -63c-37 0 -64 27 -64 63c0 37 27 65 64 65zM321 635c35 0 63 -28 63 -65c0 -36 -28 -62 -63 -62c-37 0 -65 26 -65 62c0 37 28 65 65 65zM265 77c0 15 1 57 1 108c-35 -9 -103 -29 -109 -32c-4 -2 -7 -14 -7 -26
c0 -35 24 -61 68 -61c21 0 39 7 47 11z" />
    <glyph glyph-name="ae" unicode="&#xe6;" horiz-adv-x="666" 
d="M60 183c40 11 133 36 203 54v79c0 31 -23 53 -62 53c-25 0 -44 -12 -50 -17v-81l-118 40v6c28 33 101 127 219 127c50 0 83 -22 102 -49c32 28 77 48 121 48c107 0 154 -94 179 -149v-5l-263 -68c11 -89 67 -140 158 -140c45 0 86 12 108 21l4 -7
c-23 -34 -93 -105 -194 -105c-65 0 -120 26 -156 70c-33 -37 -89 -73 -146 -73c-87 0 -143 54 -143 117c0 40 20 74 38 79zM216 66c34 0 59 17 72 29c-15 27 -24 60 -26 95c-35 -11 -99 -32 -105 -35c-4 -2 -8 -15 -8 -28c0 -35 22 -61 67 -61zM470 391
c-31 0 -76 -41 -81 -123l140 42c-4 51 -33 81 -59 81z" />
    <glyph glyph-name="aeacute" unicode="&#x1fd;" horiz-adv-x="666" 
d="M60 183c40 11 133 36 203 54v79c0 31 -23 53 -62 53c-25 0 -44 -12 -50 -17v-81l-118 40v6c28 33 101 127 219 127c50 0 83 -22 102 -49c32 28 77 48 121 48c107 0 154 -94 179 -149v-5l-263 -68c11 -89 67 -140 158 -140c45 0 86 12 108 21l4 -7
c-23 -34 -93 -105 -194 -105c-65 0 -120 26 -156 70c-33 -37 -89 -73 -146 -73c-87 0 -143 54 -143 117c0 40 20 74 38 79zM501 644l-181 -159l-8 5l93 223zM216 66c34 0 59 17 72 29c-15 27 -24 60 -26 95c-35 -11 -99 -32 -105 -35c-4 -2 -8 -15 -8 -28
c0 -35 22 -61 67 -61zM470 391c-31 0 -76 -41 -81 -123l140 42c-4 51 -33 81 -59 81z" />
    <glyph glyph-name="agrave" unicode="&#xe0;" horiz-adv-x="460" 
d="M266 315c0 30 -24 54 -64 54c-25 0 -44 -12 -50 -17v-81l-118 40v6c28 33 103 127 221 127c109 0 143 -71 143 -109c0 -49 -3 -217 -3 -244c18 -11 46 -23 67 -30v-6l-84 -77c-36 12 -81 37 -108 67c-35 -33 -83 -58 -113 -58c-81 0 -134 55 -134 117c0 39 20 73 39 78
l204 50v83zM297 491l-8 -4l-181 158l96 70zM265 77c0 15 1 57 1 108c-35 -9 -103 -29 -109 -32c-4 -2 -7 -14 -7 -26c0 -35 24 -61 68 -61c21 0 39 7 47 11z" />
    <glyph glyph-name="amacron" unicode="&#x101;" horiz-adv-x="460" 
d="M266 315c0 30 -24 54 -64 54c-25 0 -44 -12 -50 -17v-81l-118 40v6c28 33 103 127 221 127c109 0 143 -71 143 -109c0 -49 -3 -217 -3 -244c18 -11 46 -23 67 -30v-6l-84 -77c-36 12 -81 37 -108 67c-35 -33 -83 -58 -113 -58c-81 0 -134 55 -134 117c0 39 20 73 39 78
l204 50v83zM107 520v74h231v-74h-231zM265 77c0 15 1 57 1 108c-35 -9 -103 -29 -109 -32c-4 -2 -7 -14 -7 -26c0 -35 24 -61 68 -61c21 0 39 7 47 11z" />
    <glyph glyph-name="ampersand.sc" unicode="&#xf726;" horiz-adv-x="632" 
d="M628 333c-72 -39 -95 -69 -153 -169l-14 -23c34 -41 76 -60 141 -60c17 0 42 3 48 4l1 -5c-30 -41 -96 -87 -169 -87c-39 0 -70 16 -104 52c-41 -34 -94 -57 -161 -57c-125 0 -203 66 -203 147s73 131 140 157c-39 39 -61 76 -61 122c0 68 72 120 157 120
c88 0 149 -42 149 -93c0 -52 -51 -87 -103 -109c41 -41 79 -83 129 -145c19 31 37 66 46 97l-56 49v6h213v-6zM341 89c-57 68 -105 121 -159 175c-18 -15 -37 -44 -37 -87c0 -63 42 -111 117 -111c30 0 56 8 79 23zM206 446c0 -28 19 -46 61 -86c1 -2 3 -3 5 -5
c15 16 31 41 31 75c0 39 -24 61 -52 61c-26 0 -45 -21 -45 -45z" />
    <glyph glyph-name="ampersand.uc" horiz-adv-x="758" 
d="M757 434c-90 -51 -108 -98 -178 -223l-25 -42c41 -49 92 -80 171 -80c21 0 48 4 57 6l2 -5c-40 -51 -109 -97 -187 -97c-47 0 -90 19 -133 66c-50 -44 -112 -72 -195 -72c-153 0 -253 85 -253 195c0 100 84 169 172 204c-48 50 -74 93 -74 147c0 74 81 141 186 141
c94 0 169 -48 169 -116c0 -63 -62 -106 -123 -133c57 -60 103 -116 169 -204c27 48 49 101 66 154l-71 59v6h247v-6zM424 111c-75 100 -132 167 -205 243c-28 -24 -58 -67 -58 -129c0 -82 58 -149 153 -149c42 0 79 13 110 35zM238 569c0 -37 26 -60 78 -113l2 -3
c22 21 43 54 43 94c0 50 -30 79 -65 79c-34 0 -58 -27 -58 -57z" />
    <glyph glyph-name="aogonek" unicode="&#x105;" horiz-adv-x="460" 
d="M395 91c18 -11 46 -23 67 -30v-6c-70 -61 -129 -114 -129 -180c0 -37 24 -62 70 -62c25 0 42 5 53 9l4 -5c-15 -25 -69 -73 -141 -73c-66 0 -106 37 -106 90c0 72 83 123 141 154c-34 15 -64 35 -84 57c-35 -33 -83 -58 -113 -58c-81 0 -134 55 -134 117
c0 39 20 73 39 78l204 50v83c0 30 -24 54 -64 54c-25 0 -44 -12 -50 -17v-81l-118 40v6c28 33 103 127 221 127c109 0 143 -71 143 -109c0 -49 -3 -217 -3 -244zM218 66c21 0 39 7 47 11c0 15 1 57 1 108c-35 -9 -103 -29 -109 -32c-4 -2 -7 -14 -7 -26c0 -35 24 -61 68 -61
z" />
    <glyph glyph-name="aring" unicode="&#xe5;" horiz-adv-x="460" 
d="M266 315c0 30 -24 54 -64 54c-25 0 -44 -12 -50 -17v-81l-118 40v6c28 33 103 127 221 127c109 0 143 -71 143 -109c0 -49 -3 -217 -3 -244c18 -11 46 -23 67 -30v-6l-84 -77c-36 12 -81 37 -108 67c-35 -33 -83 -58 -113 -58c-81 0 -134 55 -134 117c0 39 20 73 39 78
l204 50v83zM138 579c0 49 43 89 90 89c48 0 90 -40 90 -89c0 -50 -42 -89 -90 -89s-90 38 -90 89zM265 77c0 15 1 57 1 108c-35 -9 -103 -29 -109 -32c-4 -2 -7 -14 -7 -26c0 -35 24 -61 68 -61c21 0 39 7 47 11zM181 579c0 -26 19 -50 47 -50c27 0 47 23 47 50
c0 26 -20 50 -47 50c-28 0 -47 -24 -47 -50z" />
    <glyph glyph-name="aringacute" unicode="&#x1fb;" horiz-adv-x="460" 
d="M266 315c0 30 -24 54 -64 54c-25 0 -44 -12 -50 -17v-81l-118 40v6c28 33 103 127 221 127c109 0 143 -71 143 -109c0 -49 -3 -217 -3 -244c18 -11 46 -23 67 -30v-6l-84 -77c-36 12 -81 37 -108 67c-35 -33 -83 -58 -113 -58c-81 0 -134 55 -134 117c0 39 20 73 39 78
l204 50v83zM137 575c0 49 43 89 90 89c48 0 90 -40 90 -89c0 -50 -42 -89 -90 -89s-90 38 -90 89zM352 834l-181 -159l-8 5l93 223zM265 77c0 15 1 57 1 108c-35 -9 -103 -29 -109 -32c-4 -2 -7 -14 -7 -26c0 -35 24 -61 68 -61c21 0 39 7 47 11zM180 575
c0 -26 19 -50 47 -50c27 0 47 23 47 50c0 26 -20 50 -47 50c-28 0 -47 -24 -47 -50z" />
    <glyph glyph-name="asciicircum" unicode="^" horiz-adv-x="421" 
d="M210 472l-169 -186l-10 6l176 382h7l176 -382l-10 -6z" />
    <glyph glyph-name="asciitilde" unicode="~" horiz-adv-x="475" 
d="M339 309c39 0 75 44 101 97l7 -3c-9 -142 -71 -213 -123 -213c-62 0 -139 74 -190 74c-38 0 -75 -47 -100 -96l-6 3c10 139 70 214 122 214c61 0 142 -76 189 -76z" />
    <glyph glyph-name="asterisk" unicode="*" horiz-adv-x="323" 
d="M159 468l-83 -75l-6 3l33 105l-99 34v6l105 19l-24 106l6 3l77 -81l82 72l5 -3l-38 -102l103 -32v-7l-104 -21l22 -103l-5 -2z" />
    <glyph glyph-name="at" unicode="@" horiz-adv-x="906" 
d="M672 445l-79 -394c95 21 195 96 195 256c0 135 -72 262 -289 262c-228 0 -367 -203 -367 -388c0 -206 133 -332 326 -332c143 0 238 61 296 110l14 -16c-46 -53 -151 -150 -334 -150c-228 0 -397 144 -397 367c0 251 206 457 482 457c239 0 360 -137 360 -286
c0 -217 -187 -334 -421 -320l26 127c-45 -61 -116 -126 -167 -126c-33 0 -74 38 -74 107c0 150 134 278 297 284zM384 100c18 0 64 34 111 92l34 165c-86 -6 -159 -124 -159 -227c0 -18 6 -30 14 -30z" />
    <glyph glyph-name="at.sc" unicode="&#xf60b;" horiz-adv-x="758" 
d="M568 432l-64 -310c75 18 150 78 150 200c0 109 -57 204 -237 204c-187 0 -302 -158 -302 -305c0 -164 105 -259 269 -259c120 0 202 51 253 92l14 -15c-38 -40 -129 -124 -290 -124c-189 0 -330 112 -330 290c0 199 168 362 402 362c203 0 303 -107 303 -227
c0 -172 -154 -265 -355 -254l21 98c-41 -54 -103 -98 -141 -98c-27 0 -61 33 -61 88c0 129 123 222 249 223zM324 163c10 0 48 20 87 64l28 131c-66 -5 -125 -97 -125 -174c0 -13 4 -21 10 -21z" />
    <glyph glyph-name="at.uc" horiz-adv-x="889" 
d="M664 544l-79 -394c95 21 195 96 195 256c0 135 -72 262 -289 262c-228 0 -367 -203 -367 -388c0 -206 133 -332 326 -332c143 0 238 61 296 110l14 -16c-46 -53 -151 -150 -334 -150c-228 0 -397 144 -397 367c0 251 206 457 482 457c239 0 360 -137 360 -286
c0 -217 -187 -334 -421 -320l26 127c-45 -61 -116 -126 -167 -126c-33 0 -74 38 -74 107c0 150 134 278 297 284zM376 199c18 0 64 34 111 92l34 165c-86 -6 -159 -124 -159 -227c0 -18 6 -30 14 -30z" />
    <glyph glyph-name="atilde" unicode="&#xe3;" horiz-adv-x="460" 
d="M266 315c0 30 -24 54 -64 54c-25 0 -44 -12 -50 -17v-81l-118 40v6c28 33 103 127 221 127c109 0 143 -71 143 -109c0 -49 -3 -217 -3 -244c18 -11 46 -23 67 -30v-6l-84 -77c-36 12 -81 37 -108 67c-35 -33 -83 -58 -113 -58c-81 0 -134 55 -134 117c0 39 20 73 39 78
l204 50v83zM172 626c24 0 97 -26 122 -26c17 0 40 25 64 56l7 -3c-9 -73 -41 -138 -75 -138c-29 0 -98 25 -123 25c-17 0 -41 -25 -65 -55l-7 2c10 67 45 139 77 139zM265 77c0 15 1 57 1 108c-35 -9 -103 -29 -109 -32c-4 -2 -7 -14 -7 -26c0 -35 24 -61 68 -61
c21 0 39 7 47 11z" />
    <glyph glyph-name="backslash.sc" horiz-adv-x="285" 
d="M62 602l211 -677l-46 -13l-212 677z" />
    <glyph glyph-name="slash.sc" horiz-adv-x="285" 
d="M13 -75l211 677l47 -13l-212 -677z" />
    <glyph glyph-name="backslash.uc" horiz-adv-x="347" 
d="M70 759l259 -854l-51 -14l-260 854z" />
    <glyph glyph-name="slash.uc" horiz-adv-x="346" 
d="M17 -95l259 854l52 -14l-260 -854z" />
    <glyph glyph-name="bar" unicode="|" horiz-adv-x="261" 
d="M103 -228v977h55v-977h-55z" />
    <glyph glyph-name="bar.sc" horiz-adv-x="227" 
d="M139 -87h-51v682h51v-682z" />
    <glyph glyph-name="bar.uc" horiz-adv-x="261" 
d="M158 -109h-55v858h55v-858z" />
    <glyph glyph-name="braceleft" unicode="{" horiz-adv-x="295" 
d="M163 -40c0 -42 23 -94 113 -132l-6 -10c-159 24 -215 96 -215 157c0 70 79 172 79 228c0 42 -28 70 -111 73v29c83 3 112 31 112 73c0 55 -81 153 -81 219c0 60 53 129 216 156l6 -10c-97 -36 -114 -92 -114 -131c0 -59 63 -163 63 -219c0 -47 -45 -92 -133 -102
c90 -11 133 -55 133 -103c0 -62 -62 -163 -62 -228z" />
    <glyph glyph-name="braceleft.sc" unicode="&#xf60c;" horiz-adv-x="244" 
d="M144 20c0 -30 17 -67 85 -99l-6 -10c-133 21 -180 70 -180 120c0 51 63 122 63 164c0 28 -22 52 -89 54v25c67 3 90 26 90 55c0 38 -64 108 -64 159c0 49 47 96 180 115l6 -10c-70 -27 -85 -66 -85 -94c0 -45 45 -111 45 -157c0 -35 -33 -69 -112 -80
c80 -10 112 -46 112 -82c0 -46 -45 -115 -45 -160z" />
    <glyph glyph-name="braceleft.uc" horiz-adv-x="286" 
d="M162 27c0 -40 22 -86 105 -127l-7 -10c-159 31 -208 92 -208 152c0 64 75 150 75 203c0 38 -27 70 -108 72v29c81 2 109 33 109 72c0 50 -76 133 -76 197c0 58 49 118 208 146l7 -10c-86 -36 -105 -83 -105 -121c0 -57 56 -139 56 -196c0 -44 -39 -89 -130 -102
c93 -13 130 -59 130 -104c0 -58 -56 -144 -56 -201z" />
    <glyph glyph-name="braceright" unicode="}" horiz-adv-x="294" 
d="M131 -40c0 65 -62 166 -62 228c0 48 43 92 133 103c-88 10 -133 55 -133 102c0 56 63 160 63 219c0 39 -17 95 -114 131l6 10c163 -27 216 -96 216 -156c0 -66 -81 -164 -81 -219c0 -42 29 -70 112 -73v-29c-83 -3 -111 -31 -111 -73c0 -56 79 -158 79 -228
c0 -61 -56 -133 -215 -157l-6 10c90 38 113 90 113 132z" />
    <glyph glyph-name="braceright.sc" unicode="&#xf60d;" horiz-adv-x="244" 
d="M99 20c0 45 -45 114 -45 160c0 36 32 72 112 82c-79 11 -112 45 -112 80c0 46 45 112 45 157c0 28 -15 67 -85 94l6 10c133 -19 180 -66 180 -115c0 -51 -64 -121 -64 -159c0 -29 23 -52 90 -55v-25c-67 -2 -89 -26 -89 -54c0 -42 63 -113 63 -164
c0 -50 -47 -99 -180 -120l-6 10c68 32 85 69 85 99z" />
    <glyph glyph-name="braceright.uc" horiz-adv-x="286" 
d="M124 27c0 57 -56 143 -56 201c0 45 37 91 130 104c-91 13 -130 58 -130 102c0 57 56 139 56 196c0 38 -19 85 -105 121l7 10c159 -28 208 -88 208 -146c0 -64 -76 -147 -76 -197c0 -39 28 -70 109 -72v-29c-81 -2 -108 -34 -108 -72c0 -53 75 -139 75 -203
c0 -60 -49 -121 -208 -152l-7 10c83 41 105 87 105 127z" />
    <glyph glyph-name="bracketleft" unicode="[" horiz-adv-x="276" 
d="M264 744v-34h-83v-839h83v-33h-193v906h193z" />
    <glyph glyph-name="bracketleft.sc" unicode="&#xf60e;" horiz-adv-x="244" 
d="M232 592v-31h-67v-607h67v-30h-169v668h169z" />
    <glyph glyph-name="bracketleft.uc" horiz-adv-x="279" 
d="M266 749v-34h-84v-777h84v-34h-195v845h195z" />
    <glyph glyph-name="bracketright" unicode="]" horiz-adv-x="276" 
d="M12 710v34h193v-906h-193v33h83v839h-83z" />
    <glyph glyph-name="bracketright.sc" unicode="&#xf60f;" horiz-adv-x="244" 
d="M11 561v31h169v-668h-169v30h67v607h-67z" />
    <glyph glyph-name="bracketright.uc" horiz-adv-x="279" 
d="M12 715v34h195v-845h-195v34h84v777h-84z" />
    <glyph glyph-name="brokenbar" unicode="&#xa6;" horiz-adv-x="261" 
d="M103 315v434h55v-434h-55zM103 -229v446h55v-446h-55z" />
    <glyph glyph-name="bullet" unicode="&#x2022;" horiz-adv-x="387" 
d="M49 253c0 82 64 144 145 144s144 -62 144 -144s-63 -145 -144 -145s-145 63 -145 145z" />
    <glyph glyph-name="cacute" unicode="&#x107;" horiz-adv-x="440" 
d="M380 644l-181 -159l-8 5l93 223zM279 444c56 0 108 -9 123 -11v-133h-8c-44 43 -104 87 -146 87c-45 0 -98 -55 -98 -140c0 -96 60 -163 161 -163c52 0 94 14 111 23l6 -7c-26 -39 -89 -110 -188 -110c-118 0 -217 82 -217 217c0 133 100 237 256 237z" />
    <glyph glyph-name="cacute.pl" horiz-adv-x="440" 
d="M279 444c56 0 108 -9 123 -11v-133h-8c-44 43 -104 87 -146 87c-45 0 -98 -55 -98 -140c0 -96 60 -163 161 -163c52 0 94 14 111 23l6 -7c-26 -39 -89 -110 -188 -110c-118 0 -217 82 -217 217c0 133 100 237 256 237zM345 682l-112 -198l-8 1l10 225z" />
    <glyph glyph-name="ccaron" unicode="&#x10d;" horiz-adv-x="440" 
d="M118 707l8 5l113 -94l113 94l8 -5l-121 -229zM279 444c56 0 108 -9 123 -11v-133h-8c-44 43 -104 87 -146 87c-45 0 -98 -55 -98 -140c0 -96 60 -163 161 -163c52 0 94 14 111 23l6 -7c-26 -39 -89 -110 -188 -110c-118 0 -217 82 -217 217c0 133 100 237 256 237z" />
    <glyph glyph-name="ccedilla" unicode="&#xe7;" horiz-adv-x="440" 
d="M279 444c56 0 108 -9 123 -11v-133h-8c-44 43 -104 87 -146 87c-45 0 -98 -55 -98 -140c0 -96 60 -163 161 -163c52 0 94 14 111 23l6 -7c-26 -38 -86 -106 -180 -110l-25 -49c47 -10 100 -35 100 -85c0 -54 -49 -108 -210 -117l-5 12c60 25 113 55 113 87
c0 24 -41 39 -64 41l-2 3s42 84 54 110c-104 13 -186 92 -186 215c0 133 100 237 256 237z" />
    <glyph glyph-name="ccircumflex" unicode="&#x109;" horiz-adv-x="440" 
d="M117 483l121 229l121 -229l-8 -5l-113 94l-113 -94zM279 444c56 0 108 -9 123 -11v-133h-8c-44 43 -104 87 -146 87c-45 0 -98 -55 -98 -140c0 -96 60 -163 161 -163c52 0 94 14 111 23l6 -7c-26 -39 -89 -110 -188 -110c-118 0 -217 82 -217 217c0 133 100 237 256 237z
" />
    <glyph glyph-name="cdotaccent" unicode="&#x10b;" horiz-adv-x="440" 
d="M279 444c56 0 108 -9 123 -11v-133h-8c-44 43 -104 87 -146 87c-45 0 -98 -55 -98 -140c0 -96 60 -163 161 -163c52 0 94 14 111 23l6 -7c-26 -39 -89 -110 -188 -110c-118 0 -217 82 -217 217c0 133 100 237 256 237zM173 574c0 38 32 68 70 68c39 0 69 -30 69 -68
s-30 -67 -69 -67c-38 0 -70 29 -70 67z" />
    <glyph glyph-name="cent" unicode="&#xa2;" horiz-adv-x="449" 
d="M269 524h47l-9 -80c49 -2 91 -9 104 -10v-134h-8c-31 29 -68 59 -104 75l-32 -289c15 -4 31 -5 48 -5c57 0 98 14 115 24l6 -8c-24 -37 -83 -101 -179 -106l-9 -84h-48l9 86c-105 13 -186 93 -186 215c0 126 91 227 237 236zM150 247c0 -65 25 -116 72 -143l31 283h-2
c-49 0 -101 -55 -101 -140z" />
    <glyph glyph-name="space_uni0326.alt" 
d="M132 569c0 64 51 113 113 140l13 -7c-22 -27 -49 -70 -56 -101c0 0 2 1 5 1c34 0 60 -19 60 -50c0 -34 -27 -56 -64 -56c-41 0 -71 28 -71 73z" />
    <glyph glyph-name="copyright" unicode="&#xa9;" horiz-adv-x="742" 
d="M371 629c-164 0 -284 -133 -284 -297c0 -162 128 -297 284 -297c162 0 284 131 284 297c0 160 -125 297 -284 297zM393 156c-119 0 -210 71 -210 180c0 100 82 184 213 184c47 0 98 -12 111 -16v-110h-7c-32 40 -77 81 -116 81c-42 0 -89 -48 -89 -130
c0 -93 53 -143 104 -143c47 0 86 43 108 76h7v-95c-17 -9 -64 -27 -121 -27zM371 674c189 0 340 -153 340 -342c0 -193 -148 -342 -340 -342c-194 0 -340 149 -340 342c0 191 147 342 340 342z" />
    <glyph glyph-name="dagger" unicode="&#x2020;" horiz-adv-x="403" 
d="M241 -31l-78 -92h-6v564h-141v6l60 62h81v96l78 91h6v-187h146v-5l-60 -63h-86v-472z" />
    <glyph glyph-name="daggerdbl" unicode="&#x2021;" horiz-adv-x="411" 
d="M395 501v-5l-60 -63h-88v-185h145v-6l-60 -63h-85v-125l-79 -93h-6v218h-146v6l61 63h85v185h-144v6l62 62h82v107l79 93h6v-200h148z" />
    <glyph glyph-name="dcaron" unicode="&#x10f;" horiz-adv-x="531" 
d="M329 604l-69 47v6c17 8 129 50 204 69v-640l72 -41v-7s-137 -35 -202 -49v62c-28 -25 -80 -62 -121 -62c-91 0 -188 77 -188 206s89 239 257 239c18 0 37 -1 47 -1v171zM287 74c16 0 35 7 42 12v275c-6 8 -24 21 -54 21c-64 0 -110 -64 -110 -153c0 -93 50 -155 122 -155
zM513 499h-8l14 216h106z" />
    <glyph glyph-name="dcroat" unicode="&#x111;" horiz-adv-x="531" 
d="M329 604l-69 47v6c17 8 129 50 204 69v-164h76v-50h-76v-426l72 -41v-7s-137 -35 -202 -49v62c-28 -25 -80 -62 -121 -62c-91 0 -188 77 -188 206s89 239 257 239c18 0 37 -1 47 -1v79h-157v50h157v42zM287 74c16 0 35 7 42 12v275c-6 8 -24 21 -54 21
c-64 0 -110 -64 -110 -153c0 -93 50 -155 122 -155z" />
    <glyph glyph-name="degree" unicode="&#xb0;" horiz-adv-x="281" 
d="M140 432c-69 0 -120 51 -120 119c0 67 51 119 120 119c70 0 121 -51 121 -117c0 -69 -51 -121 -121 -121zM205 552c0 39 -28 68 -65 68s-64 -29 -64 -68c0 -41 27 -70 64 -70s65 29 65 70z" />
    <glyph glyph-name="divide" unicode="&#xf7;" horiz-adv-x="472" 
d="M169 79c0 37 29 66 67 66s67 -29 67 -66c0 -36 -29 -65 -67 -65s-67 29 -67 65zM169 408c0 38 29 67 67 67s67 -29 67 -67c0 -36 -29 -64 -67 -64s-67 28 -67 64zM38 220v53h396v-53h-396z" />
    <glyph glyph-name="divide.lin" horiz-adv-x="472" 
d="M169 129c0 37 29 66 67 66s67 -29 67 -66c0 -36 -29 -65 -67 -65s-67 29 -67 65zM169 458c0 38 29 67 67 67s67 -29 67 -67c0 -36 -29 -64 -67 -64s-67 28 -67 64zM38 270v53h396v-53h-396z" />
    <glyph glyph-name="dollar" unicode="$" horiz-adv-x="482" 
d="M263 746h47l-9 -74c51 -3 89 -12 101 -15v-148h-7c-37 49 -69 82 -101 98l-22 -192l19 -13c102 -74 157 -130 157 -221c0 -104 -82 -189 -224 -191l-10 -89h-47l10 91c-63 6 -105 25 -129 38c-6 34 -11 136 -8 210h10c34 -87 78 -158 135 -180l25 219c-4 2 -8 5 -12 8
c-109 75 -155 134 -155 214c0 100 89 169 211 172zM319 139c0 44 -20 72 -66 108l-22 -194c54 3 88 39 88 86zM167 543c0 -39 20 -63 62 -96l19 171c-47 0 -81 -29 -81 -75z" />
    <glyph glyph-name="dollar.sc" horiz-adv-x="424" 
d="M227 532l9 57h44l-8 -58c45 -3 81 -9 90 -12v-133h-7c-34 42 -62 70 -92 85l-20 -139c2 -2 4 -3 7 -4c86 -55 145 -98 145 -183c0 -89 -78 -152 -200 -153l-10 -69h-44l10 71c-54 5 -96 18 -112 25c-3 28 -9 117 -7 182h7c34 -71 71 -126 121 -145l22 157c-1 0 -2 1 -3 2
c-95 57 -142 102 -142 178c0 92 86 139 190 139zM274 111c0 32 -15 51 -51 76l-20 -138c42 1 71 26 71 62zM151 428c0 -29 18 -47 52 -70l17 124h-3c-35 0 -66 -17 -66 -54z" />
    <glyph glyph-name="dotlessi" unicode="&#x131;" horiz-adv-x="272" 
d="M260 0h-246v6l56 50v282l-54 43v6c18 7 114 40 188 59v-390l56 -50v-6z" />
    <glyph glyph-name="uni0237" unicode="&#x237;" horiz-adv-x="251" 
d="M60 342l-54 41v7c17 8 113 39 189 59v-404c0 -47 -39 -165 -185 -283l-9 8c34 74 59 163 59 267v305z" />
    <glyph glyph-name="uni0237.sc" horiz-adv-x="296" 
d="M78 466l-58 51v6h257v-6l-58 -51v-384c0 -68 -63 -182 -194 -253l-9 7c24 43 62 126 62 295v335z" />
    <glyph glyph-name="eacute" unicode="&#xe9;" horiz-adv-x="435" 
d="M148 256c0 -110 61 -174 166 -174c45 0 87 11 109 20l4 -7c-23 -34 -94 -105 -194 -105c-122 0 -210 88 -210 218c0 140 113 235 213 235c110 0 157 -95 182 -169v-4h-270v-14zM363 644l-181 -159l-8 5l93 223zM231 391c-28 0 -61 -25 -75 -75h135c-4 59 -41 75 -60 75z
" />
    <glyph glyph-name="ebreve" unicode="&#x115;" horiz-adv-x="435" 
d="M148 256c0 -110 61 -174 166 -174c45 0 87 11 109 20l4 -7c-23 -34 -94 -105 -194 -105c-122 0 -210 88 -210 218c0 140 113 235 213 235c110 0 157 -95 182 -169v-4h-270v-14zM224 575c52 0 87 44 100 72l8 -1c2 -79 -35 -149 -108 -149c-74 0 -110 68 -108 149l8 1
c14 -29 47 -72 100 -72zM231 391c-28 0 -61 -25 -75 -75h135c-4 59 -41 75 -60 75z" />
    <glyph glyph-name="ecaron" unicode="&#x11b;" horiz-adv-x="435" 
d="M148 256c0 -110 61 -174 166 -174c45 0 87 11 109 20l4 -7c-23 -34 -94 -105 -194 -105c-122 0 -210 88 -210 218c0 140 113 235 213 235c110 0 157 -95 182 -169v-4h-270v-14zM106 707l8 5l113 -94l113 94l8 -5l-121 -229zM231 391c-28 0 -61 -25 -75 -75h135
c-4 59 -41 75 -60 75z" />
    <glyph glyph-name="ecircumflex" unicode="&#xea;" horiz-adv-x="435" 
d="M148 256c0 -110 61 -174 166 -174c45 0 87 11 109 20l4 -7c-23 -34 -94 -105 -194 -105c-122 0 -210 88 -210 218c0 140 113 235 213 235c110 0 157 -95 182 -169v-4h-270v-14zM105 483l121 229l121 -229l-8 -5l-113 94l-113 -94zM231 391c-28 0 -61 -25 -75 -75h135
c-4 59 -41 75 -60 75z" />
    <glyph glyph-name="edieresis" unicode="&#xeb;" horiz-adv-x="435" 
d="M148 256c0 -110 61 -174 166 -174c45 0 87 11 109 20l4 -7c-23 -34 -94 -105 -194 -105c-122 0 -210 88 -210 218c0 140 113 235 213 235c110 0 157 -95 182 -169v-4h-270v-14zM135 635c36 0 64 -28 64 -65c0 -36 -28 -63 -64 -63c-37 0 -64 27 -64 63c0 37 27 65 64 65z
M320 635c35 0 63 -28 63 -65c0 -36 -28 -62 -63 -62c-37 0 -65 26 -65 62c0 37 28 65 65 65zM231 391c-28 0 -61 -25 -75 -75h135c-4 59 -41 75 -60 75z" />
    <glyph glyph-name="edotaccent" unicode="&#x117;" horiz-adv-x="435" 
d="M148 256c0 -110 61 -174 166 -174c45 0 87 11 109 20l4 -7c-23 -34 -94 -105 -194 -105c-122 0 -210 88 -210 218c0 140 113 235 213 235c110 0 157 -95 182 -169v-4h-270v-14zM161 574c0 38 32 68 70 68c39 0 69 -30 69 -68s-30 -67 -69 -67c-38 0 -70 29 -70 67z
M231 391c-28 0 -61 -25 -75 -75h135c-4 59 -41 75 -60 75z" />
    <glyph glyph-name="egrave" unicode="&#xe8;" horiz-adv-x="435" 
d="M148 256c0 -110 61 -174 166 -174c45 0 87 11 109 20l4 -7c-23 -34 -94 -105 -194 -105c-122 0 -210 88 -210 218c0 140 113 235 213 235c110 0 157 -95 182 -169v-4h-270v-14zM290 491l-8 -4l-181 158l96 70zM231 391c-28 0 -61 -25 -75 -75h135c-4 59 -41 75 -60 75z
" />
    <glyph glyph-name="eight.den" horiz-adv-x="290" 
d="M145 304c77 0 120 -29 120 -63s-39 -53 -71 -63c64 -35 84 -60 84 -97c0 -48 -54 -88 -138 -88c-82 0 -130 30 -130 68c0 36 41 58 80 72c-51 27 -71 55 -71 88c0 53 57 83 126 83zM181 61c0 15 -5 28 -62 58c-11 -9 -24 -25 -24 -47c0 -23 16 -39 46 -39
c26 0 40 13 40 28zM108 245c0 -16 12 -28 60 -53c9 8 16 21 16 37c0 25 -17 40 -42 40c-22 0 -34 -11 -34 -24z" />
    <glyph glyph-name="eight.lin" horiz-adv-x="522" 
d="M263 674c134 0 210 -67 210 -136s-61 -120 -136 -158c108 -82 158 -133 158 -215c0 -94 -89 -177 -242 -177c-142 0 -230 63 -230 148c0 82 73 138 156 178c-103 75 -135 127 -135 198c0 101 103 162 219 162zM356 129c0 47 -26 79 -139 159c-34 -32 -65 -77 -65 -136
c0 -58 43 -103 104 -103c59 0 100 35 100 80zM176 550c0 -46 30 -74 127 -145c27 31 47 69 47 115c0 62 -39 98 -91 98c-48 0 -83 -30 -83 -68z" />
    <glyph glyph-name="eight.num" horiz-adv-x="290" 
d="M145 669c77 0 120 -29 120 -63c0 -33 -38 -53 -70 -63c63 -35 83 -61 83 -97c0 -49 -54 -88 -138 -88c-82 0 -130 30 -130 68c0 34 40 57 79 71c-50 27 -70 57 -70 89c0 53 57 83 126 83zM181 425c0 15 -5 28 -62 58c-11 -9 -24 -24 -24 -46c0 -23 16 -40 46 -40
c26 0 40 14 40 28zM108 610c0 -17 12 -29 60 -54c9 9 16 22 16 38c0 24 -17 39 -42 39c-22 0 -34 -10 -34 -23z" />
    <glyph glyph-name="eight.sc" horiz-adv-x="457" 
d="M234 533c124 0 181 -58 181 -111s-53 -92 -115 -120c83 -60 132 -102 132 -169c0 -76 -69 -143 -208 -143c-131 0 -200 53 -200 118c0 62 68 108 131 134c-83 55 -114 100 -114 158c0 84 86 133 193 133zM306 105c0 34 -29 59 -115 114c-25 -22 -49 -57 -49 -100
c0 -41 32 -73 86 -73c50 0 78 25 78 59zM162 432c0 -35 25 -55 104 -107c22 22 37 51 37 85c0 43 -27 72 -72 72c-42 0 -69 -20 -69 -50z" />
    <glyph glyph-name="eight.sub" horiz-adv-x="290" 
d="M145 195c77 0 120 -29 120 -63c0 -33 -38 -53 -70 -63c63 -35 83 -61 83 -97c0 -49 -54 -88 -138 -88c-82 0 -130 30 -130 68c0 35 40 57 79 71c-50 27 -70 57 -70 89c0 53 57 83 126 83zM181 -49c0 16 -5 29 -62 58c-11 -9 -24 -24 -24 -46c0 -23 16 -40 46 -40
c26 0 40 14 40 28zM108 136c0 -17 12 -29 60 -54c9 9 16 22 16 38c0 24 -17 39 -42 39c-22 0 -34 -10 -34 -23z" />
    <glyph glyph-name="eight.sup" horiz-adv-x="290" 
d="M145 722c77 0 120 -29 120 -63c0 -33 -38 -53 -70 -63c63 -35 83 -61 83 -97c0 -49 -54 -88 -138 -88c-82 0 -130 30 -130 68c0 34 40 57 79 71c-50 27 -70 57 -70 89c0 53 57 83 126 83zM181 478c0 15 -5 28 -62 58c-11 -9 -24 -24 -24 -46c0 -23 16 -40 46 -40
c26 0 40 14 40 28zM108 663c0 -17 12 -29 60 -54c9 9 16 22 16 38c0 24 -17 39 -42 39c-22 0 -34 -10 -34 -23z" />
    <glyph glyph-name="emacron" unicode="&#x113;" horiz-adv-x="435" 
d="M148 256c0 -110 61 -174 166 -174c45 0 87 11 109 20l4 -7c-23 -34 -94 -105 -194 -105c-122 0 -210 88 -210 218c0 140 113 235 213 235c110 0 157 -95 182 -169v-4h-270v-14zM112 520v74h231v-74h-231zM231 391c-28 0 -61 -25 -75 -75h135c-4 59 -41 75 -60 75z" />
    <glyph glyph-name="emdash.uc" horiz-adv-x="768" 
d="M45 285v53h678v-53h-678z" />
    <glyph glyph-name="endash.uc" horiz-adv-x="519" 
d="M45 285v53h429v-53h-429z" />
    <glyph glyph-name="eng" unicode="&#x14b;" horiz-adv-x="541" 
d="M259 0h-245v6l56 50v282l-54 43v6c18 7 114 40 188 59v-80c56 53 110 77 153 77c86 0 134 -67 134 -104v-294c0 -47 -39 -165 -185 -283l-9 8c34 74 60 163 60 267v262c0 28 -23 58 -75 58c-39 0 -66 -21 -78 -32v-269l55 -50v-6z" />
    <glyph glyph-name="eogonek" unicode="&#x119;" horiz-adv-x="435" 
d="M164 -166c0 65 64 114 151 172c-22 -9 -50 -16 -82 -16c-122 0 -210 88 -210 218c0 140 113 235 213 235c110 0 157 -95 182 -169v-4h-270v-14c0 -110 61 -174 166 -174c45 0 87 11 109 20l4 -7c-13 -18 -42 -52 -73 -87c-34 -38 -70 -82 -70 -132c0 -36 24 -63 70 -63
c26 0 43 5 54 9l4 -5c-16 -25 -70 -73 -142 -73c-66 0 -106 37 -106 90zM231 391c-28 0 -61 -25 -75 -75h135c-4 59 -41 75 -60 75z" />
    <glyph glyph-name="equal" unicode="=" horiz-adv-x="462" 
d="M418 162h-374v52h374v-52zM418 269h-374v52h374v-52z" />
    <glyph glyph-name="equal.lin" horiz-adv-x="466" 
d="M418 212h-374v52h374v-52zM418 319h-374v52h374v-52z" />
    <glyph glyph-name="eth" unicode="&#xf0;" horiz-adv-x="512" 
d="M64 720c64 -15 138 -43 205 -86l110 64l26 -45l-90 -52c97 -75 172 -184 172 -332c0 -180 -114 -281 -232 -281c-115 0 -236 76 -236 230c0 130 86 217 201 217c48 0 79 -16 98 -31c-19 54 -49 104 -86 150l-136 -78l-26 43l128 74c-41 45 -89 84 -141 119zM345 252
c0 36 -5 71 -13 104c-17 13 -42 24 -71 24c-64 0 -98 -61 -98 -157c0 -110 50 -180 95 -180c43 0 87 77 87 209z" />
    <glyph glyph-name="exclam.sc" unicode="&#xf721;" horiz-adv-x="215" 
d="M34 523h148c-18 -94 -47 -259 -65 -353h-19zM34 59c0 42 32 73 74 73s74 -31 74 -73c0 -41 -32 -73 -74 -73s-74 32 -74 73z" />
    <glyph glyph-name="exclamdown" unicode="&#xa1;" horiz-adv-x="237" 
d="M197 -233h-157c17 102 49 330 68 459h21c19 -129 52 -357 68 -459zM192 370c0 -42 -32 -73 -74 -73s-74 31 -74 73c0 41 32 73 74 73s74 -32 74 -73z" />
    <glyph glyph-name="exclamdown.sc" unicode="&#xf7a1;" horiz-adv-x="214" 
d="M180 0h-148c18 94 47 259 65 353h19zM180 464c0 -42 -32 -73 -74 -73s-74 31 -74 73c0 41 32 73 74 73s74 -32 74 -73z" />
    <glyph glyph-name="exclamdown.uc" horiz-adv-x="237" 
d="M197 0h-157c17 102 49 330 68 459h21c19 -129 52 -357 68 -459zM192 603c0 -42 -32 -73 -74 -73s-74 31 -74 73c0 41 32 73 74 73s74 -32 74 -73z" />
    <glyph glyph-name="f.short" horiz-adv-x="339" 
d="M204 61l95 -55v-6h-285v6l56 50v306h-74v6l74 57v28c0 152 121 263 274 263c37 0 67 -6 85 -11l-43 -99c-31 20 -76 48 -104 48c-25 0 -78 -45 -78 -147v-79h147l-47 -66h-100v-301z" />
    <glyph glyph-name="f_f.short" horiz-adv-x="617" 
d="M204 57l63 -51v-6h-253v6l56 50v306h-74v6l74 57v25c0 152 124 263 264 263c31 0 60 -5 74 -8l-40 -89c-27 15 -71 36 -91 36c-25 0 -73 -41 -73 -146v-78h144v25c0 152 121 263 274 263c37 0 67 -6 85 -11l-43 -99c-31 20 -76 48 -103 48c-26 0 -78 -45 -78 -147v-79
h147l-46 -66h-101v-301l94 -55v-6h-285v6l56 50v306h-144v-305z" />
    <glyph glyph-name="f_f_k.001" horiz-adv-x="1102" 
d="M204 57l63 -51v-6h-253v6l56 50v306h-74v6l74 57v25c0 152 124 263 264 263c31 0 60 -5 74 -8l-40 -89c-27 15 -71 36 -91 36c-25 0 -73 -41 -73 -146v-78h143v25c0 155 129 263 288 263c54 0 108 -10 136 -16v-644l52 -50v-6h-241v6l54 50v588c-6 3 -23 11 -46 11
c-52 0 -108 -44 -108 -146v-81h126l-44 -66h-82v-305l72 -51v-6h-263v6l56 50v306h-143v-305zM1081 424l-103 -56l-74 -81l142 -231l55 -50v-6h-241v6l44 49l-96 151h-27l119 162l-60 58v5h241v-7z" />
    <glyph glyph-name="f_k.001" horiz-adv-x="822" 
d="M204 57l72 -51v-6h-263v6l56 50v306h-74v6l74 57v28c0 155 129 263 288 263c54 0 107 -10 136 -16v-644l52 -50v-6h-241v6l54 50v588c-6 3 -23 11 -46 11c-52 0 -108 -44 -108 -146v-81h126l-45 -66h-81v-305zM626 55l-96 151h-27l119 162l-60 58v5h241v-7l-103 -56
l-74 -81l142 -231l55 -50v-6h-241v6z" />
    <glyph glyph-name="five.den" horiz-adv-x="239" 
d="M64 298h161l-32 -76h-116l-6 -25c120 -9 150 -54 150 -89c0 -54 -53 -106 -208 -117l-4 10c74 32 100 57 100 78c0 22 -39 36 -92 40c8 33 34 132 47 179z" />
    <glyph glyph-name="five.num" horiz-adv-x="238" 
d="M62 662h161l-32 -76h-116l-6 -25c120 -9 150 -54 150 -89c0 -54 -53 -106 -208 -117l-4 10c74 32 100 57 100 78c0 22 -39 36 -92 40c8 33 34 132 47 179z" />
    <glyph glyph-name="five.lin" horiz-adv-x="431" 
d="M110 662h281l-49 -114h-213l-16 -64c190 -38 280 -129 280 -230c0 -106 -106 -228 -371 -274l-6 13c137 71 224 152 224 222c0 83 -118 128 -207 149c8 33 64 247 77 298z" />
    <glyph glyph-name="five.sc" horiz-adv-x="383" 
d="M106 523h243l-44 -102h-182l-16 -56c166 -27 239 -89 239 -165c0 -82 -81 -182 -319 -216l-4 13c112 55 183 114 183 163c0 55 -99 85 -171 98z" />
    <glyph glyph-name="five.sub" horiz-adv-x="239" 
d="M64 188h161l-32 -76h-116l-6 -25c120 -9 150 -54 150 -89c0 -54 -53 -106 -208 -117l-4 10c74 32 100 57 100 78c0 22 -39 36 -92 40c8 33 34 132 47 179z" />
    <glyph glyph-name="five.sup" horiz-adv-x="239" 
d="M64 715h161l-32 -76h-116l-6 -25c120 -9 150 -54 150 -89c0 -54 -53 -106 -208 -117l-4 10c74 32 100 57 100 78c0 22 -39 36 -92 40c8 33 34 132 47 179z" />
    <glyph glyph-name="fiveeighths" unicode="&#x215d;" horiz-adv-x="582" 
d="M429 304c77 0 120 -29 120 -63s-39 -53 -71 -63c64 -35 84 -60 84 -97c0 -48 -54 -88 -138 -88c-82 0 -130 30 -130 68c0 36 41 58 80 72c-51 27 -71 55 -71 88c0 53 57 83 126 83zM9 0l442 662h67l-443 -662h-66zM72 662h161l-32 -76h-116l-6 -25
c120 -9 150 -54 150 -89c0 -54 -53 -106 -208 -117l-4 10c74 32 100 57 100 78c0 22 -39 36 -92 40c8 33 34 132 47 179zM465 61c0 15 -5 28 -62 58c-11 -9 -24 -25 -24 -47c0 -23 16 -39 46 -39c26 0 40 13 40 28zM392 245c0 -16 12 -28 60 -53c9 8 16 21 16 37
c0 25 -17 40 -42 40c-22 0 -34 -11 -34 -24z" />
    <glyph glyph-name="fraction" unicode="&#x2044;" horiz-adv-x="509" 
d="M0 0l442 662h67l-443 -662h-66z" />
    <glyph glyph-name="florin" unicode="&#x192;" horiz-adv-x="451" 
d="M72 398h68l9 72c15 109 102 202 236 202c47 0 88 -9 107 -14l-43 -91h-4c-40 29 -75 50 -97 50c-25 0 -49 -33 -57 -88l-17 -131h135l-39 -66h-104c-13 -107 -28 -227 -38 -296c-9 -61 -53 -216 -259 -231l-15 93l3 1c31 -6 60 -12 76 -12c36 0 50 27 66 156
c10 81 23 196 33 289h-99v5z" />
    <glyph glyph-name="four.den" horiz-adv-x="285" 
d="M227 36l37 -31v-5h-169v5l37 31v36h-132v15l145 212h82v-173h61l-34 -54h-27v-36zM64 126h68v100z" />
    <glyph glyph-name="four.lin" horiz-adv-x="555" 
d="M422 66l71 -60v-6h-288v6l70 60v110h-277v9l329 480h95v-394h126l-50 -95h-76v-110zM124 271h151v224z" />
    <glyph glyph-name="four.num" horiz-adv-x="287" 
d="M226 401l36 -31v-5h-168v5l36 31v35h-132v16l145 212h83v-173h61l-34 -55h-27v-35zM63 491h67v98z" />
    <glyph glyph-name="four.sc" horiz-adv-x="478" 
d="M366 57l58 -51v-6h-252v6l58 51v77h-226v18l262 372h100v-308h102l-45 -82h-57v-77zM109 216h121v173z" />
    <glyph glyph-name="four.sub" horiz-adv-x="285" 
d="M227 -73l36 -31v-5h-168v5l36 31v35h-132v16l145 212h83v-173h61l-34 -55h-27v-35zM64 17h67v98z" />
    <glyph glyph-name="four.sup" horiz-adv-x="285" 
d="M227 454l36 -31v-5h-168v5l36 31v35h-132v16l145 212h83v-173h61l-34 -55h-27v-35zM64 544h67v98z" />
    <glyph glyph-name="gbreve" unicode="&#x11f;" horiz-adv-x="478" 
d="M30 305c0 76 77 140 189 140c32 0 64 -5 91 -14h155v-56h-83c17 -19 29 -43 29 -66c0 -77 -62 -144 -192 -144c-21 0 -41 2 -60 6c-14 -14 -20 -26 -20 -38c0 -18 14 -28 28 -28h189c30 0 104 -42 104 -132c0 -117 -119 -227 -273 -227c-113 0 -174 50 -174 100
c0 49 57 110 96 141c-38 14 -72 46 -72 98c0 26 9 45 15 51l71 47c-54 23 -93 65 -93 122zM298 -21h-156c-14 -15 -35 -52 -35 -84c0 -34 40 -68 120 -68c79 0 136 42 136 95c0 42 -36 57 -65 57zM156 305c0 -51 32 -94 65 -94c36 0 64 43 64 94c0 52 -28 95 -64 95
c-35 0 -65 -44 -65 -95zM222 575c52 0 87 44 100 72l8 -1c2 -79 -35 -149 -108 -149c-74 0 -110 68 -108 149l8 1c14 -29 47 -72 100 -72z" />
    <glyph glyph-name="gcircumflex" unicode="&#x11d;" horiz-adv-x="478" 
d="M30 305c0 76 77 140 189 140c32 0 64 -5 91 -14h155v-56h-83c17 -19 29 -43 29 -66c0 -77 -62 -144 -192 -144c-21 0 -41 2 -60 6c-14 -14 -20 -26 -20 -38c0 -18 14 -28 28 -28h189c30 0 104 -42 104 -132c0 -117 -119 -227 -273 -227c-113 0 -174 50 -174 100
c0 49 57 110 96 141c-38 14 -72 46 -72 98c0 26 9 45 15 51l71 47c-54 23 -93 65 -93 122zM298 -21h-156c-14 -15 -35 -52 -35 -84c0 -34 40 -68 120 -68c79 0 136 42 136 95c0 42 -36 57 -65 57zM156 305c0 -51 32 -94 65 -94c36 0 64 43 64 94c0 52 -28 95 -64 95
c-35 0 -65 -44 -65 -95zM102 483l121 229l121 -229l-8 -5l-113 94l-113 -94z" />
    <glyph glyph-name="gcommaaccent" unicode="&#x123;" horiz-adv-x="478" 
d="M30 305c0 76 77 140 189 140c32 0 64 -5 91 -14h155v-56h-83c17 -19 29 -43 29 -66c0 -77 -62 -144 -192 -144c-21 0 -41 2 -60 6c-14 -14 -20 -26 -20 -38c0 -18 14 -28 28 -28h189c30 0 104 -42 104 -132c0 -117 -119 -227 -273 -227c-113 0 -174 50 -174 100
c0 49 57 110 96 141c-38 14 -72 46 -72 98c0 26 9 45 15 51l71 47c-54 23 -93 65 -93 122zM298 -21h-156c-14 -15 -35 -52 -35 -84c0 -34 40 -68 120 -68c79 0 136 42 136 95c0 42 -36 57 -65 57zM156 305c0 -51 32 -94 65 -94c36 0 64 43 64 94c0 52 -28 95 -64 95
c-35 0 -65 -44 -65 -95zM151 569c0 64 51 113 113 140l13 -7c-22 -27 -49 -70 -56 -101c0 0 2 1 5 1c34 0 60 -19 60 -50c0 -34 -27 -56 -64 -56c-41 0 -71 28 -71 73z" />
    <glyph glyph-name="gdotaccent" unicode="&#x121;" horiz-adv-x="478" 
d="M30 305c0 76 77 140 189 140c32 0 64 -5 91 -14h155v-56h-83c17 -19 29 -43 29 -66c0 -77 -62 -144 -192 -144c-21 0 -41 2 -60 6c-14 -14 -20 -26 -20 -38c0 -18 14 -28 28 -28h189c30 0 104 -42 104 -132c0 -117 -119 -227 -273 -227c-113 0 -174 50 -174 100
c0 49 57 110 96 141c-38 14 -72 46 -72 98c0 26 9 45 15 51l71 47c-54 23 -93 65 -93 122zM298 -21h-156c-14 -15 -35 -52 -35 -84c0 -34 40 -68 120 -68c79 0 136 42 136 95c0 42 -36 57 -65 57zM156 305c0 -51 32 -94 65 -94c36 0 64 43 64 94c0 52 -28 95 -64 95
c-35 0 -65 -44 -65 -95zM153 574c0 38 32 68 70 68c39 0 69 -30 69 -68s-30 -67 -69 -67c-38 0 -70 29 -70 67z" />
    <glyph glyph-name="germandbls" unicode="&#xdf;" horiz-adv-x="563" 
d="M326 720c114 0 176 -65 176 -138c0 -94 -133 -133 -133 -189c0 -21 13 -38 72 -85c71 -57 109 -94 109 -167c0 -84 -70 -151 -178 -151c-47 0 -88 15 -104 23c-4 31 -7 87 -6 141h8c22 -49 57 -105 104 -105c31 0 52 27 52 57c0 35 -18 55 -67 94c-65 52 -93 84 -93 136
c0 86 108 129 108 237c0 58 -40 86 -74 86c-41 0 -100 -40 -100 -149v-454l49 -50v-6h-238v6l56 50v306h-73v6l73 57v38c0 149 121 257 259 257z" />
    <glyph glyph-name="germandbls.sc" unicode="&#xf667;" horiz-adv-x="829" 
d="M642 532c62 0 114 -9 125 -13v-133h-7c-57 66 -98 94 -130 94c-27 0 -51 -18 -51 -49c0 -35 23 -54 83 -98c85 -63 135 -109 135 -187c0 -88 -75 -154 -195 -154c-72 0 -125 17 -148 27c-4 27 -9 120 -8 182h8c46 -94 98 -152 148 -152c33 0 64 24 64 63
c0 46 -29 67 -90 112c-85 61 -120 103 -120 170c0 90 80 138 186 138zM235 532c62 0 114 -9 125 -13v-133h-7c-57 66 -98 94 -130 94c-27 0 -51 -18 -51 -49c0 -35 23 -54 83 -98c85 -63 135 -109 135 -187c0 -88 -75 -154 -195 -154c-72 0 -125 17 -148 27
c-4 27 -9 120 -8 182h8c46 -94 98 -152 148 -152c33 0 64 24 64 63c0 46 -29 67 -90 112c-85 61 -120 103 -120 170c0 90 80 138 186 138z" />
    <glyph glyph-name="greater" unicode="&#x3e;" horiz-adv-x="435" 
d="M44 83v55l286 108l-286 109v55l352 -139v-51z" />
    <glyph glyph-name="greater.lin" horiz-adv-x="435" 
d="M44 133v55l286 108l-286 109v55l352 -139v-51z" />
    <glyph glyph-name="guillemotleft" unicode="&#xab;" horiz-adv-x="419" 
d="M382 61l-15 -6l-161 170v6l161 168l15 -6l-63 -166zM196 55l-161 170v6l161 168l14 -6l-62 -166l62 -166z" />
    <glyph glyph-name="guillemotleft.uc" horiz-adv-x="419" 
d="M382 126l-15 -6l-161 170v6l161 168l15 -6l-63 -166zM196 120l-161 170v6l161 168l14 -6l-62 -166l62 -166z" />
    <glyph glyph-name="guillemotright" unicode="&#xbb;" horiz-adv-x="419" 
d="M52 55l-15 6l63 166l-63 166l15 6l161 -168v-6zM384 225l-161 -170l-14 6l62 166l-62 166l14 6l161 -168v-6z" />
    <glyph glyph-name="guillemotright.uc" horiz-adv-x="419" 
d="M52 120l-15 6l63 166l-63 166l15 6l161 -168v-6zM384 290l-161 -170l-14 6l62 166l-62 166l14 6l161 -168v-6z" />
    <glyph glyph-name="guilsinglleft" unicode="&#x2039;" horiz-adv-x="257" 
d="M207 56l-172 169v6l171 168l13 -7l-65 -164l65 -165z" />
    <glyph glyph-name="guilsinglleft.uc" horiz-adv-x="257" 
d="M207 121l-172 169v6l171 168l13 -7l-65 -164l65 -165z" />
    <glyph glyph-name="guilsinglright" unicode="&#x203a;" horiz-adv-x="257" 
d="M222 225l-172 -169l-12 7l65 165l-65 164l13 7l171 -168v-6z" />
    <glyph glyph-name="guilsinglright.uc" horiz-adv-x="257" 
d="M222 290l-172 -169l-12 7l65 165l-65 164l13 7l171 -168v-6z" />
    <glyph glyph-name="hbar" unicode="&#x127;" horiz-adv-x="556" 
d="M259 0h-245v6l56 50v456h-76v50h76v44l-59 47v6c17 8 120 48 193 67v-164h152v-50h-152v-146c56 53 110 77 153 77c86 0 134 -67 134 -105v-282l56 -50v-6h-244v6l54 50v243c0 28 -24 58 -75 58c-39 0 -66 -21 -78 -32v-269l55 -50v-6z" />
    <glyph glyph-name="hcircumflex" unicode="&#x125;" horiz-adv-x="556" 
d="M259 0h-245v6l56 50v550l-59 47v6c17 8 120 48 193 67v-360c56 53 110 77 153 77c86 0 134 -67 134 -105v-282l56 -50v-6h-244v6l54 50v243c0 28 -24 58 -75 58c-39 0 -66 -21 -78 -32v-269l55 -50v-6zM126 743l154 153l152 -153l-4 -6l-148 50l-149 -50z" />
    <glyph glyph-name="hyphen.uc" horiz-adv-x="282" 
d="M42 259v102h198v-102h-198z" />
    <glyph glyph-name="iacute" unicode="&#xed;" horiz-adv-x="272" 
d="M270 644l-181 -159l-8 5l93 223zM260 0h-246v6l56 50v282l-54 43v6c18 7 114 40 188 59v-390l56 -50v-6z" />
    <glyph glyph-name="ibreve" unicode="&#x12d;" horiz-adv-x="272" 
d="M260 0h-246v6l56 50v282l-54 43v6c18 7 114 40 188 59v-390l56 -50v-6zM131 575c52 0 87 44 100 72l8 -1c2 -79 -35 -149 -108 -149c-74 0 -110 68 -108 149l8 1c14 -29 47 -72 100 -72z" />
    <glyph glyph-name="icircumflex" unicode="&#xee;" horiz-adv-x="272" 
d="M8 483l121 229l121 -229l-8 -5l-113 94l-113 -94zM260 0h-246v6l56 50v282l-54 43v6c18 7 114 40 188 59v-390l56 -50v-6z" />
    <glyph glyph-name="idieresis" unicode="&#xef;" horiz-adv-x="272" 
d="M260 0h-246v6l56 50v282l-54 43v6c18 7 114 40 188 59v-390l56 -50v-6zM223 635c36 0 64 -28 64 -65c0 -36 -28 -62 -64 -62c-37 0 -64 26 -64 62c0 37 27 65 64 65zM47 635c35 0 64 -28 64 -65c0 -36 -29 -63 -64 -63c-37 0 -65 27 -65 63c0 37 28 65 65 65z" />
    <glyph glyph-name="idotaccent" horiz-adv-x="272" 
d="M260 0h-246v6l56 50v282l-54 43v6c18 7 114 40 188 59v-390l56 -50v-6zM64 574c0 40 31 70 70 70c40 0 71 -30 71 -70c0 -39 -31 -68 -71 -68c-39 0 -70 29 -70 68z" />
    <glyph glyph-name="igrave" unicode="&#xec;" horiz-adv-x="272" 
d="M260 0h-246v6l56 50v282l-54 43v6c18 7 114 40 188 59v-390l56 -50v-6zM202 491l-8 -4l-181 158l96 70z" />
    <glyph glyph-name="ij" unicode="&#x133;" horiz-adv-x="519" 
d="M260 0h-246v6l56 50v282l-54 43v6c18 7 114 40 188 59v-390l56 -50v-6zM64 574c0 40 31 70 70 70c40 0 71 -30 71 -70c0 -39 -31 -68 -71 -68c-39 0 -70 29 -70 68zM392 506c-39 0 -71 29 -71 68c0 40 32 70 71 70c40 0 71 -30 71 -70c0 -39 -31 -68 -71 -68zM327 339
l-54 42v7c18 7 113 39 189 59v-402c0 -47 -39 -165 -185 -283l-9 8c34 74 59 163 59 267v302z" />
    <glyph glyph-name="imacron" unicode="&#x12b;" horiz-adv-x="272" 
d="M260 0h-246v6l56 50v282l-54 43v6c18 7 114 40 188 59v-390l56 -50v-6zM16 520v74h231v-74h-231z" />
    <glyph glyph-name="iogonek" unicode="&#x12f;" horiz-adv-x="272" 
d="M260 0h-60c-13 -22 -37 -68 -37 -116c0 -41 23 -71 68 -71c21 0 38 5 49 8l4 -5c-16 -24 -62 -72 -135 -72c-66 0 -106 38 -106 91c0 75 81 137 129 165h-158v6l56 50v282l-54 43v6c18 7 114 40 188 59v-390l56 -50v-6zM64 574c0 40 31 70 70 70c40 0 71 -30 71 -70
c0 -39 -31 -68 -71 -68c-39 0 -70 29 -70 68z" />
    <glyph glyph-name="itilde" unicode="&#x129;" horiz-adv-x="272" 
d="M260 0h-246v6l56 50v282l-54 43v6c18 7 114 40 188 59v-390l56 -50v-6zM79 626c24 0 97 -26 122 -26c17 0 40 25 64 56l7 -3c-9 -73 -41 -138 -75 -138c-29 0 -98 25 -123 25c-17 0 -41 -25 -65 -55l-7 2c10 67 45 139 77 139z" />
    <glyph glyph-name="jcircumflex" unicode="&#x135;" horiz-adv-x="250" 
d="M60 342l-54 41v7c17 8 113 39 189 59v-404c0 -47 -39 -165 -185 -283l-9 8c34 74 59 163 59 267v305zM-4 483l121 229l121 -229l-8 -5l-113 94l-113 -94z" />
    <glyph glyph-name="k.001" horiz-adv-x="531" 
d="M200 726v-670l51 -50v-6h-240v6l55 50v550l-59 47v6c18 8 120 48 193 67zM333 55l-96 151h-27l119 162l-60 58v5h241v-7l-103 -56l-74 -80l143 -232l54 -50v-6h-241v6z" />
    <glyph glyph-name="kcommaaccent" unicode="&#x137;" horiz-adv-x="534" 
d="M204 724v-668l52 -50v-6h-241v6l55 50v549l-59 47v6c18 7 120 47 193 66zM309 78l-92 137v6l112 147l-60 57v6h241v-7l-104 -57l-83 -86l106 -153c52 -75 81 -102 104 -122v-6c-14 -4 -51 -12 -83 -12c-68 0 -97 27 -141 90zM366 -128c0 -63 -50 -113 -113 -140l-13 6
c22 28 49 72 56 102c0 0 -2 -1 -5 -1c-33 0 -60 19 -60 51c0 34 27 55 64 55c41 0 71 -28 71 -73z" />
    <glyph glyph-name="kcommaaccent.001" horiz-adv-x="531" 
d="M200 726v-670l51 -50v-6h-240v6l55 50v550l-59 47v6c18 8 120 48 193 67zM333 55l-96 151h-27l119 162l-60 58v5h241v-7l-103 -56l-74 -80l143 -232l54 -50v-6h-241v6zM346 -128c0 -63 -50 -113 -113 -140l-13 6c22 28 49 72 56 102c0 0 -2 -1 -5 -1c-33 0 -60 19 -60 51
c0 34 27 55 64 55c41 0 71 -28 71 -73z" />
    <glyph glyph-name="lacute" unicode="&#x13a;" horiz-adv-x="272" 
d="M270 774l-254 -41l-4 8l217 140zM204 726v-670l56 -50v-6h-246v6l56 50v550l-59 47v6c18 9 120 48 193 67z" />
    <glyph glyph-name="lcaron" unicode="&#x13e;" horiz-adv-x="272" 
d="M253 499h-8l14 216h106zM204 726v-670l56 -50v-6h-246v6l56 50v550l-59 47v6c18 9 120 48 193 67z" />
    <glyph glyph-name="lcommaaccent" unicode="&#x13c;" horiz-adv-x="272" 
d="M210 -128c0 -63 -50 -113 -113 -140l-13 6c22 28 49 72 56 102c0 0 -2 -1 -5 -1c-33 0 -60 19 -60 51c0 34 27 55 64 55c41 0 71 -28 71 -73zM204 726v-670l56 -50v-6h-246v6l56 50v550l-59 47v6c18 9 120 48 193 67z" />
    <glyph glyph-name="ldot" unicode="&#x140;" horiz-adv-x="413" 
d="M270 336c0 42 33 73 74 73c43 0 74 -31 74 -73c0 -41 -31 -72 -74 -72c-41 0 -74 31 -74 72zM204 726v-670l56 -50v-6h-246v6l56 50v550l-59 47v6c18 9 120 48 193 67z" />
    <glyph glyph-name="less" unicode="&#x3c;" horiz-adv-x="435" 
d="M390 138v-55l-352 137v51l352 139v-55l-286 -109z" />
    <glyph glyph-name="less.lin" horiz-adv-x="435" 
d="M390 188v-55l-352 137v51l352 139v-55l-286 -109z" />
    <glyph glyph-name="lslash" unicode="&#x142;" horiz-adv-x="272" 
d="M204 726v-325l70 43v-59l-70 -43v-286l56 -50v-6h-246v6l56 50v204l-70 -42v58l70 43v287l-59 47v6c18 9 120 48 193 67z" />
    <glyph glyph-name="minus" unicode="&#x2212;" horiz-adv-x="448" 
d="M410 221h-372v53h372v-53z" />
    <glyph glyph-name="minus.lin" horiz-adv-x="448" 
d="M410 271h-372v53h372v-53z" />
    <glyph glyph-name="multiply" unicode="&#xd7;" horiz-adv-x="416" 
d="M78 71l-38 36l131 138l-131 138l40 39l129 -137l129 137l38 -37l-131 -138l131 -139l-38 -37l-131 136z" />
    <glyph glyph-name="multiply.lin" horiz-adv-x="416" 
d="M78 121l-38 36l131 138l-131 138l40 39l129 -137l129 137l38 -37l-131 -138l131 -139l-38 -37l-131 136z" />
    <glyph glyph-name="nacute" unicode="&#x144;" horiz-adv-x="556" 
d="M259 0h-245v6l56 50v282l-54 43v6c18 7 114 40 188 59v-80c55 53 110 77 153 77c86 0 134 -67 134 -105v-282l56 -50v-6h-244v6l54 50v243c0 28 -23 58 -75 58c-40 0 -67 -21 -78 -32v-269l55 -50v-6zM434 644l-181 -159l-8 5l93 223z" />
    <glyph glyph-name="nacute.pl" horiz-adv-x="556" 
d="M259 0h-245v6l56 50v282l-54 43v6c18 7 114 40 188 59v-80c55 53 110 77 153 77c86 0 134 -67 134 -105v-282l56 -50v-6h-244v6l54 50v243c0 28 -23 58 -75 58c-40 0 -67 -21 -78 -32v-269l55 -50v-6zM377 682l-112 -198l-8 1l10 225z" />
    <glyph glyph-name="napostrophe" unicode="&#x149;" horiz-adv-x="604" 
d="M306 0h-245v6l56 50v282l-54 43v6c18 7 114 40 188 59v-80c55 53 110 77 153 77c86 0 134 -67 134 -105v-282l56 -50v-6h-244v6l54 50v243c0 28 -23 58 -75 58c-40 0 -67 -21 -78 -32v-269l55 -50v-6zM132 608c0 -79 -56 -143 -124 -178l-14 4c26 40 57 101 63 142h-6
c-38 -3 -68 19 -68 57c0 34 28 61 68 61c43 0 81 -29 81 -86z" />
    <glyph glyph-name="napostrophe.sc" horiz-adv-x="814" 
d="M591 523h205v-6l-60 -52v-465h-62l-358 382v-324l86 -52v-6h-212v6l59 52v394l-65 65v6h188l298 -319v261l-79 52v6zM160 469c0 -79 -56 -143 -124 -178l-14 4c26 40 57 101 63 142h-6c-38 -3 -68 19 -68 57c0 34 28 61 68 61c43 0 81 -29 81 -86z" />
    <glyph glyph-name="ncaron" unicode="&#x148;" horiz-adv-x="556" 
d="M259 0h-245v6l56 50v282l-54 43v6c18 7 114 40 188 59v-80c55 53 110 77 153 77c86 0 134 -67 134 -105v-282l56 -50v-6h-244v6l54 50v243c0 28 -23 58 -75 58c-40 0 -67 -21 -78 -32v-269l55 -50v-6zM156 707l8 5l113 -94l113 94l8 -5l-121 -229z" />
    <glyph glyph-name="ncommaaccent" unicode="&#x146;" horiz-adv-x="556" 
d="M259 0h-245v6l56 50v282l-54 43v6c18 7 114 40 188 59v-80c55 53 110 77 153 77c86 0 134 -67 134 -105v-282l56 -50v-6h-244v6l54 50v243c0 28 -23 58 -75 58c-40 0 -67 -21 -78 -32v-269l55 -50v-6zM359 -128c0 -63 -50 -113 -113 -140l-13 6c22 28 49 72 56 102
c0 0 -2 -1 -5 -1c-33 0 -60 19 -60 51c0 34 27 55 64 55c41 0 71 -28 71 -73z" />
    <glyph glyph-name="nine.den" horiz-adv-x="314" 
d="M73 -6l-5 10c92 58 123 114 123 182c0 56 -23 84 -41 84c-14 0 -31 -23 -31 -58c0 -29 16 -53 44 -53c4 0 6 0 8 1l2 -8c-8 -13 -36 -38 -75 -38c-49 0 -85 32 -85 84c0 61 57 107 134 107c80 0 153 -44 153 -125c0 -108 -94 -168 -227 -186z" />
    <glyph glyph-name="nine.num" horiz-adv-x="314" 
d="M73 358l-5 10c92 58 123 114 123 182c0 56 -23 84 -41 84c-14 0 -31 -23 -31 -58c0 -29 16 -53 44 -53c4 0 6 0 8 1l2 -8c-8 -13 -36 -38 -75 -38c-49 0 -85 32 -85 84c0 61 57 107 134 107c80 0 153 -44 153 -125c0 -108 -94 -168 -227 -186z" />
    <glyph glyph-name="nine.lin" horiz-adv-x="559" 
d="M95 -11l-7 12c170 98 281 232 281 418c0 123 -63 208 -113 208c-39 0 -80 -56 -80 -136c0 -84 49 -132 107 -132c25 0 40 6 47 8l4 -7c-15 -22 -64 -74 -141 -74c-93 0 -168 66 -168 178c0 127 110 217 232 217c125 0 270 -87 270 -278c0 -245 -213 -381 -432 -414z" />
    <glyph glyph-name="nine.sc" horiz-adv-x="480" 
d="M87 -10l-6 12c142 84 224 194 224 332c0 97 -50 157 -84 157c-29 0 -61 -43 -61 -103s35 -99 82 -99c17 0 28 3 31 4l4 -8c-12 -19 -54 -62 -119 -62c-76 0 -135 54 -135 143c0 101 92 174 198 174c104 0 228 -63 228 -221c0 -196 -172 -303 -362 -329z" />
    <glyph glyph-name="nine.sub" horiz-adv-x="314" 
d="M73 -116l-5 10c92 58 123 114 123 182c0 56 -23 84 -41 84c-14 0 -31 -23 -31 -58c0 -29 16 -53 44 -53c4 0 6 0 8 1l2 -8c-8 -13 -36 -38 -75 -38c-49 0 -85 32 -85 84c0 61 57 107 134 107c80 0 153 -44 153 -125c0 -108 -94 -168 -227 -186z" />
    <glyph glyph-name="nine.sup" horiz-adv-x="314" 
d="M73 411l-5 10c92 58 123 114 123 182c0 56 -23 84 -41 84c-14 0 -31 -23 -31 -58c0 -29 16 -53 44 -53c4 0 6 0 8 1l2 -8c-8 -13 -36 -38 -75 -38c-49 0 -85 32 -85 84c0 61 57 107 134 107c80 0 153 -44 153 -125c0 -108 -94 -168 -227 -186z" />
    <glyph glyph-name="ntilde" unicode="&#xf1;" horiz-adv-x="556" 
d="M259 0h-245v6l56 50v282l-54 43v6c18 7 114 40 188 59v-80c55 53 110 77 153 77c86 0 134 -67 134 -105v-282l56 -50v-6h-244v6l54 50v243c0 28 -23 58 -75 58c-40 0 -67 -21 -78 -32v-269l55 -50v-6zM229 626c24 0 97 -26 122 -26c17 0 40 25 64 56l7 -3
c-9 -73 -41 -138 -75 -138c-29 0 -98 25 -123 25c-17 0 -41 -25 -65 -55l-7 2c10 67 45 139 77 139z" />
    <glyph glyph-name="numbersign" unicode="#" horiz-adv-x="471" 
d="M456 423h-101l-36 -146h90v-47h-102l-56 -230h-53l56 230h-95l-57 -230h-53l57 230h-85v47h96l36 146h-86v47h98l48 192h53l-48 -192h95l48 192h53l-48 -192h90v-47zM206 423l-36 -146h96l36 146h-96z" />
    <glyph glyph-name="numbersign.sc" horiz-adv-x="396" 
d="M382 331h-82l-29 -111h72v-43h-83l-46 -177h-50l46 177h-79l-46 -177h-49l46 177h-68v43h79l29 111h-70v43h82l39 149h49l-39 -149h79l39 149h50l-39 -149h70v-43zM171 331l-29 -111h79l29 111h-79z" />
    <glyph glyph-name="oacute" unicode="&#xf3;" horiz-adv-x="521" 
d="M395 644l-181 -159l-8 5l93 223zM22 210c0 147 128 233 239 233c113 0 239 -73 239 -222c0 -150 -129 -233 -242 -233c-110 0 -236 73 -236 222zM168 216c0 -98 45 -173 93 -173c47 0 93 76 93 173c0 101 -43 173 -93 173c-49 0 -93 -75 -93 -173z" />
    <glyph glyph-name="oacute.pl" horiz-adv-x="521" 
d="M22 210c0 147 128 233 239 233c113 0 239 -73 239 -222c0 -150 -129 -233 -242 -233c-110 0 -236 73 -236 222zM168 216c0 -98 45 -173 93 -173c47 0 93 76 93 173c0 101 -43 173 -93 173c-49 0 -93 -75 -93 -173zM358 682l-112 -198l-8 1l10 225z" />
    <glyph glyph-name="obreve" unicode="&#x14f;" horiz-adv-x="521" 
d="M22 210c0 147 128 233 239 233c113 0 239 -73 239 -222c0 -150 -129 -233 -242 -233c-110 0 -236 73 -236 222zM168 216c0 -98 45 -173 93 -173c47 0 93 76 93 173c0 101 -43 173 -93 173c-49 0 -93 -75 -93 -173zM260 575c52 0 87 44 100 72l8 -1
c2 -79 -35 -149 -108 -149c-74 0 -110 68 -108 149l8 1c14 -29 47 -72 100 -72z" />
    <glyph glyph-name="ocircumflex" unicode="&#xf4;" horiz-adv-x="521" 
d="M139 483l121 229l121 -229l-8 -5l-113 94l-113 -94zM22 210c0 147 128 233 239 233c113 0 239 -73 239 -222c0 -150 -129 -233 -242 -233c-110 0 -236 73 -236 222zM168 216c0 -98 45 -173 93 -173c47 0 93 76 93 173c0 101 -43 173 -93 173c-49 0 -93 -75 -93 -173z" />
    <glyph glyph-name="odieresis" unicode="&#xf6;" horiz-adv-x="521" 
d="M353 635c35 0 63 -28 63 -65c0 -36 -28 -62 -63 -62c-37 0 -65 26 -65 62c0 37 28 65 65 65zM168 635c36 0 64 -28 64 -65c0 -36 -28 -63 -64 -63c-37 0 -64 27 -64 63c0 37 27 65 64 65zM22 210c0 147 128 233 239 233c113 0 239 -73 239 -222
c0 -150 -129 -233 -242 -233c-110 0 -236 73 -236 222zM168 216c0 -98 45 -173 93 -173c47 0 93 76 93 173c0 101 -43 173 -93 173c-49 0 -93 -75 -93 -173z" />
    <glyph glyph-name="oe" unicode="&#x153;" horiz-adv-x="777" 
d="M22 210c0 147 126 233 234 233c67 0 130 -31 168 -85c36 51 94 85 153 85c110 0 157 -95 181 -169v-4h-269v-14c0 -110 61 -174 166 -174c45 0 87 11 109 20l4 -7c-23 -34 -94 -105 -194 -105c-68 0 -123 29 -155 79c-40 -51 -103 -81 -166 -81c-107 0 -231 73 -231 222z
M169 216c0 -97 42 -173 87 -173c44 0 88 77 88 173c0 105 -41 173 -88 173c-46 0 -87 -76 -87 -173zM572 391c-28 0 -61 -25 -75 -75h135c-4 59 -41 75 -60 75z" />
    <glyph glyph-name="ograve" unicode="&#xf2;" horiz-adv-x="521" 
d="M22 210c0 147 128 233 239 233c113 0 239 -73 239 -222c0 -150 -129 -233 -242 -233c-110 0 -236 73 -236 222zM168 216c0 -98 45 -173 93 -173c47 0 93 76 93 173c0 101 -43 173 -93 173c-49 0 -93 -75 -93 -173zM322 491l-8 -4l-181 158l96 70z" />
    <glyph glyph-name="ohungarumlaut" unicode="&#x151;" horiz-adv-x="521" 
d="M455 668l-135 -184l-8 4l51 221zM311 668l-134 -184l-8 4l50 221zM22 210c0 147 128 233 239 233c113 0 239 -73 239 -222c0 -150 -129 -233 -242 -233c-110 0 -236 73 -236 222zM168 216c0 -98 45 -173 93 -173c47 0 93 76 93 173c0 101 -43 173 -93 173
c-49 0 -93 -75 -93 -173z" />
    <glyph glyph-name="omacron" unicode="&#x14d;" horiz-adv-x="521" 
d="M144 520v74h231v-74h-231zM22 210c0 147 128 233 239 233c113 0 239 -73 239 -222c0 -150 -129 -233 -242 -233c-110 0 -236 73 -236 222zM168 216c0 -98 45 -173 93 -173c47 0 93 76 93 173c0 101 -43 173 -93 173c-49 0 -93 -75 -93 -173z" />
    <glyph glyph-name="one.den" horiz-adv-x="198" 
d="M190 1h-177v5l38 32v192l-40 25v5c3 2 137 48 142 49v-271l37 -32v-5z" />
    <glyph glyph-name="one.num" horiz-adv-x="198" 
d="M190 365h-177v5l38 32v192l-40 25v5c3 2 137 48 142 49v-271l37 -32v-5z" />
    <glyph glyph-name="one.lin" horiz-adv-x="350" 
d="M326 0h-300v6l74 60v486l-75 41v6c10 3 210 75 226 80v-613l75 -60v-6z" />
    <glyph glyph-name="one.sc" horiz-adv-x="307" 
d="M287 0h-264v6l62 51v370l-63 36v6c30 11 163 57 203 69v-481l62 -51v-6z" />
    <glyph glyph-name="one.sub" horiz-adv-x="198" 
d="M190 -109h-177v5l38 32v192l-40 25v5c3 2 137 48 142 49v-271l37 -32v-5z" />
    <glyph glyph-name="one.sup" horiz-adv-x="198" 
d="M190 418h-177v5l38 32v192l-40 25v5c3 2 137 48 142 49v-271l37 -32v-5z" />
    <glyph glyph-name="oneeighth" unicode="&#x215b;" horiz-adv-x="587" 
d="M438 304c77 0 120 -29 120 -63s-39 -53 -71 -63c64 -35 84 -60 84 -97c0 -48 -54 -88 -138 -88c-82 0 -130 30 -130 68c0 36 41 58 80 72c-51 27 -71 55 -71 88c0 53 57 83 126 83zM18 0l442 662h67l-443 -662h-66zM201 365h-177v5l38 32v192l-40 25v5c3 2 137 48 142 49
v-271l37 -32v-5zM474 61c0 15 -5 28 -62 58c-11 -9 -24 -25 -24 -47c0 -23 16 -39 46 -39c26 0 40 13 40 28zM401 245c0 -16 12 -28 60 -53c9 8 16 21 16 37c0 25 -17 40 -42 40c-22 0 -34 -11 -34 -24z" />
    <glyph glyph-name="onehalf" unicode="&#xbd;" horiz-adv-x="570" 
d="M18 0l442 662h67l-443 -662h-66zM494 72l43 55h7v-127h-242v19c85 96 114 136 114 174c0 29 -18 45 -43 45c-26 0 -46 -17 -56 -27l-10 6c13 38 47 87 120 87c60 0 97 -30 97 -80c0 -55 -57 -105 -139 -152h109zM201 365h-177v5l38 32v192l-40 25v5c3 2 137 48 142 49
v-271l37 -32v-5z" />
    <glyph glyph-name="two.den" horiz-adv-x="276" 
d="M203 72l43 55h7v-127h-242v19c85 96 114 136 114 174c0 29 -18 45 -43 45c-26 0 -46 -17 -56 -27l-10 6c13 38 47 87 120 87c60 0 97 -30 97 -80c0 -55 -57 -105 -139 -152h109z" />
    <glyph glyph-name="onequarter" unicode="&#xbc;" horiz-adv-x="558" 
d="M492 36l37 -31v-5h-169v5l37 31v36h-132v15l145 212h82v-173h61l-34 -54h-27v-36zM18 0l442 662h67l-443 -662h-66zM201 365h-177v5l38 32v192l-40 25v5c3 2 137 48 142 49v-271l37 -32v-5zM329 126h68v100z" />
    <glyph glyph-name="onesuperior" unicode="&#xb9;" horiz-adv-x="198" 
d="M190 418h-177v5l38 32v192l-40 25v5c3 2 137 48 142 49v-271l37 -32v-5z" />
    <glyph glyph-name="onethird" unicode="&#x2153;" horiz-adv-x="546" 
d="M18 0l442 662h67l-443 -662h-66zM335 139l-4 11c44 26 68 46 68 71c0 19 -13 29 -32 29c-21 0 -38 -10 -44 -15l-7 6c14 26 47 63 107 63c53 0 76 -23 76 -52c0 -26 -22 -50 -76 -67c3 1 6 1 10 1c57 0 94 -28 94 -71c0 -56 -41 -108 -210 -123l-4 9
c74 35 101 68 101 100c0 27 -22 40 -54 40c-9 0 -20 -1 -25 -2zM201 365h-177v5l38 32v192l-40 25v5c3 2 137 48 142 49v-271l37 -32v-5z" />
    <glyph glyph-name="three.den" horiz-adv-x="233" 
d="M27 139l-4 11c44 26 68 46 68 71c0 19 -13 29 -32 29c-21 0 -38 -10 -44 -15l-7 6c14 26 47 63 107 63c53 0 76 -23 76 -52c0 -26 -22 -50 -76 -67c3 1 6 1 10 1c57 0 94 -28 94 -71c0 -56 -41 -108 -210 -123l-4 9c74 35 101 68 101 100c0 27 -22 40 -54 40
c-9 0 -20 -1 -25 -2z" />
    <glyph glyph-name="ordfeminine" unicode="&#xaa;" horiz-adv-x="339" 
d="M186 580c0 20 -13 36 -41 36c-16 0 -29 -8 -32 -11v-52l-90 32v4c19 21 79 85 158 85s107 -49 107 -74c0 -34 -2 -146 -2 -164c9 -6 30 -15 44 -20v-5l-65 -53c-22 6 -57 29 -74 48c-24 -22 -56 -44 -76 -44c-61 0 -101 40 -101 82c0 26 14 52 27 56c27 6 95 20 145 32
v48zM158 423c10 0 21 2 27 5c1 14 1 41 1 73c-25 -7 -63 -19 -69 -20c-3 -2 -5 -11 -5 -20c0 -21 18 -38 46 -38z" />
    <glyph glyph-name="ordmasculine" unicode="&#xba;" horiz-adv-x="363" 
d="M14 514c0 99 87 159 168 159c82 0 168 -53 168 -151c0 -99 -88 -160 -170 -160c-81 0 -166 54 -166 152zM125 519c0 -62 27 -115 56 -115s57 54 57 115c0 64 -26 113 -57 113c-30 0 -56 -53 -56 -113z" />
    <glyph glyph-name="oslash" unicode="&#xf8;" horiz-adv-x="521" 
d="M22 210c0 147 128 233 239 233c32 0 65 -6 96 -19l44 72l42 -25l-42 -69c56 -36 98 -96 98 -181c0 -150 -128 -233 -240 -233c-33 0 -67 6 -99 19l-45 -74l-43 23l45 74c-55 36 -95 95 -95 180zM361 216c0 38 -5 70 -15 96l-144 -237c16 -21 37 -32 59 -32
c50 0 100 75 100 173zM162 216c0 -35 4 -65 13 -91l144 236c-17 18 -37 28 -58 28c-52 0 -99 -74 -99 -173z" />
    <glyph glyph-name="oslashacute" unicode="&#x1ff;" horiz-adv-x="521" 
d="M22 210c0 147 128 233 239 233c32 0 65 -6 96 -19l44 72l42 -25l-42 -69c56 -36 98 -96 98 -181c0 -150 -128 -233 -240 -233c-33 0 -67 6 -99 19l-45 -74l-43 23l45 74c-55 36 -95 95 -95 180zM361 216c0 38 -5 70 -15 96l-144 -237c16 -21 37 -32 59 -32
c50 0 100 75 100 173zM162 216c0 -35 4 -65 13 -91l144 236c-17 18 -37 28 -58 28c-52 0 -99 -74 -99 -173zM402 644l-181 -159l-8 5l93 223z" />
    <glyph glyph-name="otilde" unicode="&#xf5;" horiz-adv-x="521" 
d="M22 210c0 147 128 233 239 233c113 0 239 -73 239 -222c0 -150 -129 -233 -242 -233c-110 0 -236 73 -236 222zM168 216c0 -98 45 -173 93 -173c47 0 93 76 93 173c0 101 -43 173 -93 173c-49 0 -93 -75 -93 -173zM206 626c24 0 97 -26 122 -26c17 0 40 25 64 56l7 -3
c-9 -73 -41 -138 -75 -138c-29 0 -98 25 -123 25c-17 0 -41 -25 -65 -55l-7 2c10 67 45 139 77 139z" />
    <glyph glyph-name="paragraph" unicode="&#xb6;" horiz-adv-x="507" 
d="M221 336h-2c-121 0 -201 67 -201 167c0 93 67 159 183 159h87v-662h-137v6l70 60v270zM481 656l-71 -60v-530l71 -60v-6h-138v662h138v-6z" />
    <glyph glyph-name="parenleft" unicode="(" horiz-adv-x="304" 
d="M51 283c0 220 135 381 233 469l13 -6c-68 -113 -128 -267 -128 -462c0 -190 66 -346 128 -462l-13 -6c-100 93 -233 242 -233 467z" />
    <glyph glyph-name="parenleft.sc" unicode="&#xf618;" horiz-adv-x="271" 
d="M158 265c0 -153 50 -257 105 -345l-13 -6c-88 64 -205 171 -205 351c0 164 118 281 205 339l13 -6c-56 -81 -105 -178 -105 -333z" />
    <glyph glyph-name="parenleft.uc" horiz-adv-x="311" 
d="M176 335c0 -197 69 -334 129 -436l-13 -6c-103 83 -239 220 -239 442c0 206 136 353 239 427l13 -6c-62 -95 -129 -222 -129 -421z" />
    <glyph glyph-name="parenright" unicode=")" horiz-adv-x="304" 
d="M252 283c0 -225 -133 -374 -233 -467l-13 6c62 116 128 272 128 462c0 195 -60 349 -128 462l13 6c98 -88 233 -249 233 -469z" />
    <glyph glyph-name="parenright.sc" unicode="&#xf619;" horiz-adv-x="271" 
d="M113 265c0 155 -49 252 -105 333l13 6c87 -58 205 -175 205 -339c0 -180 -117 -287 -205 -351l-13 6c55 88 105 192 105 345z" />
    <glyph glyph-name="parenright.uc" horiz-adv-x="311" 
d="M137 335c0 199 -67 326 -129 421l13 6c103 -74 239 -221 239 -427c0 -222 -136 -359 -239 -442l-13 6c60 102 129 239 129 436z" />
    <glyph glyph-name="percent" unicode="%" horiz-adv-x="673" 
d="M503 47c51 0 89 42 89 95c0 56 -38 97 -89 97s-89 -41 -89 -97c0 -53 39 -95 89 -95zM350 142c0 84 66 152 153 152c90 0 154 -64 154 -151c0 -84 -64 -151 -154 -151s-153 63 -153 150zM16 518c0 84 66 152 153 152c89 0 154 -64 154 -151c0 -84 -65 -151 -154 -151
c-90 0 -153 63 -153 150zM169 615c-51 0 -89 -41 -89 -97c0 -52 39 -95 89 -95c51 0 88 43 88 95c0 56 -37 97 -88 97zM67 0l474 662h71l-475 -662h-70z" />
    <glyph glyph-name="percent.sc" horiz-adv-x="574" 
d="M427 188c-39 0 -67 -31 -67 -73c0 -39 29 -71 67 -71c39 0 68 32 68 71c0 42 -29 73 -68 73zM427 238c76 0 129 -51 129 -122c0 -69 -53 -123 -129 -123c-75 0 -127 51 -127 122c0 69 55 123 127 123zM62 0l386 523h67l-385 -523h-68zM145 335c39 0 67 32 67 71
c0 42 -28 73 -67 73s-67 -31 -67 -73c0 -39 29 -71 67 -71zM18 406c0 69 54 123 127 123c76 0 129 -51 129 -123c0 -68 -53 -122 -129 -122c-75 0 -127 51 -127 122z" />
    <glyph glyph-name="periodcentered" unicode="&#xb7;" horiz-adv-x="218" 
d="M35 252c0 42 33 73 74 73c43 0 74 -31 74 -73c0 -41 -31 -72 -74 -72c-41 0 -74 31 -74 72z" />
    <glyph glyph-name="perthousand" unicode="&#x2030;" horiz-adv-x="1020" 
d="M850 -8c-90 0 -153 63 -153 150c0 84 66 152 153 152c90 0 154 -64 154 -151c0 -84 -64 -151 -154 -151zM761 142c0 -53 39 -95 89 -95c51 0 88 42 88 95c0 56 -37 97 -88 97s-89 -41 -89 -97zM503 47c51 0 89 42 89 95c0 56 -38 97 -89 97s-89 -41 -89 -97
c0 -53 39 -95 89 -95zM350 142c0 84 66 152 153 152c90 0 154 -64 154 -151c0 -84 -64 -151 -154 -151s-153 63 -153 150zM16 518c0 84 66 152 153 152c89 0 154 -64 154 -151c0 -84 -65 -151 -154 -151c-90 0 -153 63 -153 150zM169 615c-51 0 -89 -41 -89 -97
c0 -52 39 -95 89 -95c51 0 88 43 88 95c0 56 -37 97 -88 97zM67 0l474 662h71l-475 -662h-70z" />
    <glyph glyph-name="perthousand.sc" horiz-adv-x="859" 
d="M713 238c76 0 129 -51 129 -122c0 -69 -53 -123 -129 -123c-75 0 -128 51 -128 122c0 69 55 123 128 123zM713 188c-39 0 -68 -31 -68 -73c0 -39 29 -71 68 -71s67 32 67 71c0 42 -28 73 -67 73zM427 188c-39 0 -67 -31 -67 -73c0 -39 29 -71 67 -71c39 0 68 32 68 71
c0 42 -29 73 -68 73zM427 238c76 0 129 -51 129 -122c0 -69 -53 -123 -129 -123c-75 0 -127 51 -127 122c0 69 55 123 127 123zM62 0l386 523h67l-385 -523h-68zM145 335c39 0 67 32 67 71c0 42 -28 73 -67 73s-67 -31 -67 -73c0 -39 29 -71 67 -71zM18 406
c0 69 54 123 127 123c76 0 129 -51 129 -123c0 -68 -53 -122 -129 -122c-75 0 -127 51 -127 122z" />
    <glyph glyph-name="plus" unicode="+" horiz-adv-x="477" 
d="M38 221v52h172v177h58v-177h171v-52h-171v-179h-58v179h-172z" />
    <glyph glyph-name="plus.lin" horiz-adv-x="477" 
d="M38 271v52h172v177h58v-177h171v-52h-171v-179h-58v179h-172z" />
    <glyph glyph-name="question.sc" unicode="&#xf73f;" horiz-adv-x="326" 
d="M314 422c0 -44 -17 -75 -54 -107c-21 -18 -61 -45 -78 -58c-22 -17 -25 -28 -25 -44c0 -12 2 -30 3 -43h-18c-28 31 -64 80 -64 110c0 17 10 32 29 52c15 16 44 44 59 60c17 17 26 32 26 50c0 28 -21 41 -39 41c-36 0 -82 -48 -117 -89h-7v126c11 3 61 12 113 12
c106 0 172 -41 172 -110zM77 59c0 42 33 73 74 73c43 0 74 -31 74 -73c0 -41 -31 -73 -74 -73c-41 0 -74 32 -74 73z" />
    <glyph glyph-name="questiondown" unicode="&#xbf;" horiz-adv-x="374" 
d="M12 -109c0 49 21 88 68 133c23 22 68 60 87 77c25 23 31 36 31 60c0 20 -2 47 -4 65h19c32 -42 70 -107 70 -143c0 -22 -12 -39 -35 -65l-69 -76c-21 -22 -34 -46 -34 -71c0 -41 30 -60 57 -60c46 0 98 57 135 104h8v-145c-13 -3 -70 -14 -132 -14
c-124 0 -201 53 -201 135zM279 370c0 -42 -33 -73 -74 -73c-43 0 -74 31 -74 73c0 41 31 73 74 73c41 0 74 -32 74 -73z" />
    <glyph glyph-name="questiondown.sc" unicode="&#xf7bf;" horiz-adv-x="326" 
d="M11 101c0 44 17 75 54 107c21 18 61 45 78 58c22 17 25 28 25 44c0 12 -2 30 -3 43h18c28 -31 64 -80 64 -110c0 -17 -10 -32 -29 -52c-15 -16 -44 -44 -59 -60c-17 -17 -26 -32 -26 -50c0 -28 21 -41 39 -41c36 0 82 48 117 89h7v-126c-11 -3 -61 -12 -113 -12
c-106 0 -172 41 -172 110zM248 464c0 -42 -33 -73 -74 -73c-43 0 -74 31 -74 73c0 41 31 73 74 73c41 0 74 -32 74 -73z" />
    <glyph glyph-name="questiondown.uc" horiz-adv-x="374" 
d="M11 124c0 49 21 88 68 133c23 22 68 60 87 77c25 23 31 36 31 60c0 20 -2 47 -4 65h19c32 -42 70 -107 70 -143c0 -22 -12 -39 -35 -65l-69 -76c-21 -22 -34 -46 -34 -71c0 -41 30 -60 57 -60c46 0 98 57 135 104h8v-145c-13 -3 -70 -14 -132 -14
c-124 0 -201 53 -201 135zM278 603c0 -42 -33 -73 -74 -73c-43 0 -74 31 -74 73c0 41 31 73 74 73c41 0 74 -32 74 -73z" />
    <glyph glyph-name="quotedblleft.sc" unicode="&#xf61c;" horiz-adv-x="349" 
d="M189 398c0 69 51 122 110 149l14 -5c-25 -33 -50 -81 -55 -114h4c35 2 60 -16 60 -49c0 -31 -24 -54 -62 -54s-71 26 -71 73zM25 398c0 69 51 122 110 149l14 -5c-25 -33 -50 -81 -55 -114h4c35 2 60 -16 60 -49c0 -31 -24 -54 -62 -54s-71 26 -71 73z" />
    <glyph glyph-name="quotedblright.sc" unicode="&#xf61d;" horiz-adv-x="349" 
d="M160 475c0 -69 -51 -122 -110 -149l-14 5c25 33 50 81 55 114h-4c-35 -2 -60 16 -60 49c0 31 24 54 62 54s71 -26 71 -73zM324 475c0 -69 -51 -122 -110 -149l-14 5c25 33 50 81 55 114h-4c-35 -2 -60 16 -60 49c0 31 24 54 62 54s71 -26 71 -73z" />
    <glyph glyph-name="quoteleft.sc" unicode="&#xf61f;" horiz-adv-x="185" 
d="M24 397c0 69 52 122 111 149l14 -4c-25 -34 -50 -81 -55 -115c0 0 2 1 4 1c35 1 60 -17 60 -50c0 -31 -24 -53 -62 -53s-72 26 -72 72z" />
    <glyph glyph-name="quoteright.sc" unicode="&#xf620;" horiz-adv-x="185" 
d="M161 476c0 -69 -52 -122 -111 -149l-14 4c25 34 50 81 55 115c0 0 -2 -1 -4 -1c-35 -1 -60 17 -60 50c0 31 24 53 62 53s72 -26 72 -72z" />
    <glyph glyph-name="racute" unicode="&#x155;" horiz-adv-x="389" 
d="M70 338l-54 43v6c18 7 114 40 188 59v-98c40 56 77 97 98 97c27 0 66 -11 79 -17l-42 -126c-17 9 -54 28 -85 28c-18 0 -38 -8 -50 -18v-252l87 -54v-6h-277v6l56 51v281zM355 643l-181 -159l-8 5l93 223z" />
    <glyph glyph-name="rcaron" unicode="&#x159;" horiz-adv-x="389" 
d="M70 338l-54 43v6c18 7 114 40 188 59v-98c40 56 77 97 98 97c27 0 66 -11 79 -17l-42 -126c-17 9 -54 28 -85 28c-18 0 -38 -8 -50 -18v-252l87 -54v-6h-277v6l56 51v281zM104 707l8 5l113 -94l113 94l8 -5l-121 -229z" />
    <glyph glyph-name="rcommaaccent" unicode="&#x157;" horiz-adv-x="389" 
d="M70 338l-54 43v6c18 7 114 40 188 59v-98c40 56 77 97 98 97c27 0 66 -11 79 -17l-42 -126c-17 9 -54 28 -85 28c-18 0 -38 -8 -50 -18v-252l87 -54v-6h-277v6l56 51v281zM218 -128c0 -63 -50 -113 -113 -140l-13 6c22 28 49 72 56 102c0 0 -2 -1 -5 -1
c-33 0 -60 19 -60 51c0 34 27 55 64 55c41 0 71 -28 71 -73z" />
    <glyph glyph-name="registered" unicode="&#xae;" horiz-adv-x="409" 
d="M205 685c103 0 182 -81 182 -181s-79 -181 -182 -181c-105 0 -183 81 -183 181s78 181 183 181zM205 653c-83 0 -144 -64 -144 -149s62 -149 144 -149s144 63 144 149c0 84 -61 149 -144 149zM213 421h-98v5l21 19v133l-21 19v5h104c44 0 64 -19 64 -43
c0 -23 -17 -36 -30 -43l28 -48c12 -20 22 -33 30 -41v-5c-6 -1 -17 -2 -28 -2c-32 0 -42 11 -52 29l-27 52h-15v-56l24 -19v-5zM201 579h-12v-55h26c6 0 15 11 15 26c0 18 -11 29 -29 29z" />
    <glyph glyph-name="sacute" unicode="&#x15b;" horiz-adv-x="366" 
d="M328 644l-181 -159l-8 5l93 223zM210 443c41 0 87 -9 102 -13v-109h-6c-56 53 -88 72 -116 72c-19 0 -36 -13 -36 -35c0 -29 24 -44 69 -73c58 -38 117 -72 117 -151c0 -84 -72 -144 -181 -144c-55 0 -105 16 -123 23c-5 31 -9 105 -8 158h8c22 -46 67 -122 129 -122
c31 0 50 20 50 47c0 33 -22 50 -70 80c-63 39 -103 78 -103 143c0 72 60 124 168 124z" />
    <glyph glyph-name="sacute.pl" horiz-adv-x="366" 
d="M210 443c41 0 87 -9 102 -13v-109h-6c-56 53 -88 72 -116 72c-19 0 -36 -13 -36 -35c0 -29 24 -44 69 -73c58 -38 117 -72 117 -151c0 -84 -72 -144 -181 -144c-55 0 -105 16 -123 23c-5 31 -9 105 -8 158h8c22 -46 67 -122 129 -122c31 0 50 20 50 47
c0 33 -22 50 -70 80c-63 39 -103 78 -103 143c0 72 60 124 168 124zM292 682l-112 -198l-8 1l10 225z" />
    <glyph glyph-name="scaron" unicode="&#x161;" horiz-adv-x="366" 
d="M65 707l8 5l113 -94l113 94l8 -5l-121 -229zM210 443c41 0 87 -9 102 -13v-109h-6c-56 53 -88 72 -116 72c-19 0 -36 -13 -36 -35c0 -29 24 -44 69 -73c58 -38 117 -72 117 -151c0 -84 -72 -144 -181 -144c-55 0 -105 16 -123 23c-5 31 -9 105 -8 158h8
c22 -46 67 -122 129 -122c31 0 50 20 50 47c0 33 -22 50 -70 80c-63 39 -103 78 -103 143c0 72 60 124 168 124z" />
    <glyph glyph-name="scedilla" unicode="&#x15f;" horiz-adv-x="366" 
d="M210 443c41 0 87 -9 102 -13v-109h-6c-56 53 -88 72 -116 72c-19 0 -36 -13 -36 -35c0 -29 24 -44 69 -73c58 -38 117 -72 117 -151c0 -74 -56 -129 -143 -141l-26 -52c47 -10 100 -35 100 -85c0 -54 -49 -108 -210 -117l-5 12c60 25 113 55 113 87c0 24 -41 39 -64 41
l-2 3s39 80 53 108c-54 1 -103 16 -120 23c-5 31 -9 105 -8 158h8c22 -46 67 -122 129 -122c31 0 50 20 50 47c0 33 -22 50 -70 80c-63 39 -103 78 -103 143c0 72 60 124 168 124z" />
    <glyph glyph-name="scircumflex" unicode="&#x15d;" horiz-adv-x="366" 
d="M66 483l121 229l121 -229l-8 -5l-113 94l-113 -94zM210 443c41 0 87 -9 102 -13v-109h-6c-56 53 -88 72 -116 72c-19 0 -36 -13 -36 -35c0 -29 24 -44 69 -73c58 -38 117 -72 117 -151c0 -84 -72 -144 -181 -144c-55 0 -105 16 -123 23c-5 31 -9 105 -8 158h8
c22 -46 67 -122 129 -122c31 0 50 20 50 47c0 33 -22 50 -70 80c-63 39 -103 78 -103 143c0 72 60 124 168 124z" />
    <glyph glyph-name="scommaaccent" unicode="&#x219;" horiz-adv-x="366" 
d="M247 -128c0 -63 -50 -113 -113 -140l-13 6c22 28 49 72 56 102c0 0 -2 -1 -5 -1c-33 0 -60 19 -60 51c0 34 27 55 64 55c41 0 71 -28 71 -73zM210 443c41 0 87 -9 102 -13v-109h-6c-56 53 -88 72 -116 72c-19 0 -36 -13 -36 -35c0 -29 24 -44 69 -73
c58 -38 117 -72 117 -151c0 -84 -72 -144 -181 -144c-55 0 -105 16 -123 23c-5 31 -9 105 -8 158h8c22 -46 67 -122 129 -122c31 0 50 20 50 47c0 33 -22 50 -70 80c-63 39 -103 78 -103 143c0 72 60 124 168 124z" />
    <glyph glyph-name="section" unicode="&#xa7;" horiz-adv-x="493" 
d="M28 275c0 68 55 109 110 130c-33 40 -48 76 -48 122c0 89 79 146 188 146c47 0 94 -9 112 -12v-130h-9c-59 67 -96 92 -130 92c-29 0 -56 -21 -56 -56c0 -43 31 -72 133 -165c94 -85 137 -133 137 -204c0 -77 -61 -113 -108 -130c34 -41 50 -76 50 -123
c0 -93 -74 -174 -203 -174c-72 0 -129 24 -144 31c-6 34 -9 139 -6 190h9c27 -69 87 -164 155 -164c46 0 79 31 79 77c0 50 -28 77 -140 174c-105 90 -129 138 -129 196zM250 172c33 -30 60 -55 83 -78c11 10 24 27 24 52c0 47 -18 70 -112 154c-35 32 -64 58 -86 82
c-14 -10 -30 -29 -30 -56c0 -41 28 -71 121 -154z" />
    <glyph glyph-name="seven.den" horiz-adv-x="252" 
d="M1 222l36 76h210v-5l-135 -292h-57l102 221h-156z" />
    <glyph glyph-name="seven.num" horiz-adv-x="251" 
d="M1 586l36 76h210v-5l-135 -292h-57l102 221h-156z" />
    <glyph glyph-name="seven.lin" horiz-adv-x="466" 
d="M2 548l50 114h408v-6l-283 -656h-75l235 548h-335z" />
    <glyph glyph-name="seven.sc" horiz-adv-x="403" 
d="M8 420l47 103h335v-5l-231 -518h-68l186 420h-269z" />
    <glyph glyph-name="seven.sub" horiz-adv-x="252" 
d="M1 112l36 76h210v-5l-135 -292h-57l102 221h-156z" />
    <glyph glyph-name="seven.sup" horiz-adv-x="252" 
d="M1 639l36 76h210v-5l-135 -292h-57l102 221h-156z" />
    <glyph glyph-name="seveneighths" unicode="&#x215e;" horiz-adv-x="558" 
d="M406 304c77 0 120 -29 120 -63s-39 -53 -71 -63c64 -35 84 -60 84 -97c0 -48 -54 -88 -138 -88c-82 0 -130 30 -130 68c0 36 41 58 80 72c-51 27 -71 55 -71 88c0 53 57 83 126 83zM-13 0l442 662h67l-443 -662h-66zM11 586l36 76h210v-5l-135 -292h-57l102 221h-156z
M442 61c0 15 -5 28 -62 58c-11 -9 -24 -25 -24 -47c0 -23 16 -39 46 -39c26 0 40 13 40 28zM369 245c0 -16 12 -28 60 -53c9 8 16 21 16 37c0 25 -17 40 -42 40c-22 0 -34 -11 -34 -24z" />
    <glyph glyph-name="six.den" horiz-adv-x="313" 
d="M244 304l4 -9c-95 -61 -124 -115 -124 -188c0 -52 21 -78 38 -78c16 0 32 23 32 57c0 31 -16 55 -42 55c-4 0 -7 -1 -8 -1l-2 7c9 12 36 38 75 38c47 0 84 -30 84 -80c0 -71 -67 -111 -139 -111c-75 0 -147 44 -147 125c0 105 104 168 229 185z" />
    <glyph glyph-name="six.num" horiz-adv-x="313" 
d="M244 668l4 -9c-95 -61 -124 -115 -124 -188c0 -52 21 -78 38 -78c16 0 32 23 32 57c0 31 -16 55 -42 55c-4 0 -7 -1 -8 -1l-2 7c9 12 36 38 75 38c47 0 84 -30 84 -80c0 -71 -67 -111 -139 -111c-75 0 -147 44 -147 125c0 105 104 168 229 185z" />
    <glyph glyph-name="six.lin" horiz-adv-x="561" 
d="M471 681l7 -12c-184 -100 -288 -243 -288 -429c0 -123 59 -198 109 -198c41 0 84 54 84 140c0 81 -44 128 -107 128c-25 0 -40 -6 -47 -8l-4 7c16 22 67 74 144 74c92 0 165 -57 165 -169c0 -146 -130 -225 -240 -225c-123 0 -262 93 -262 269c0 240 224 386 439 423z
" />
    <glyph glyph-name="six.sc" horiz-adv-x="480" 
d="M397 540l5 -12c-154 -89 -227 -201 -227 -339c0 -96 48 -151 83 -151c30 0 62 42 62 105c0 59 -32 99 -85 99c-15 0 -25 -3 -28 -5l-4 8c14 18 57 61 121 61c75 0 133 -46 133 -134c0 -118 -111 -182 -204 -182c-104 0 -222 74 -222 215c0 191 181 305 366 335z" />
    <glyph glyph-name="six.sub" horiz-adv-x="313" 
d="M244 194l4 -9c-95 -61 -124 -115 -124 -188c0 -52 21 -78 38 -78c16 0 32 23 32 57c0 31 -16 55 -42 55c-4 0 -7 -1 -8 -1l-2 7c9 12 36 38 75 38c47 0 84 -30 84 -80c0 -71 -67 -111 -139 -111c-75 0 -147 44 -147 125c0 105 104 168 229 185z" />
    <glyph glyph-name="six.sup" horiz-adv-x="313" 
d="M244 721l4 -9c-95 -61 -124 -115 -124 -188c0 -52 21 -78 38 -78c16 0 32 23 32 57c0 31 -16 55 -42 55c-4 0 -7 -1 -8 -1l-2 7c9 12 36 38 75 38c47 0 84 -30 84 -80c0 -71 -67 -111 -139 -111c-75 0 -147 44 -147 125c0 105 104 168 229 185z" />
    <glyph glyph-name="sterling" unicode="&#xa3;" horiz-adv-x="531" 
d="M1 -19l-9 6c53 95 93 135 109 213c4 23 7 51 9 86h-91v51h94l3 122c4 138 120 214 240 214c52 0 109 -12 126 -17v-147h-8c-47 61 -100 108 -137 108c-40 0 -58 -41 -63 -95c-7 -57 -13 -127 -20 -185h144v-51h-151l-4 -25c-12 -52 -48 -102 -99 -138c25 10 44 14 61 14
c64 0 117 -31 181 -31c56 0 100 40 131 83l8 -2c-18 -115 -81 -198 -162 -198c-72 0 -144 62 -220 62c-56 0 -107 -39 -142 -70z" />
    <glyph glyph-name="sterling.sc" horiz-adv-x="454" 
d="M4 -16l-8 5c42 79 78 115 89 175c3 15 6 36 7 63h-74v46h75c0 25 0 54 1 88c1 114 104 171 207 171c41 0 94 -10 108 -14v-131h-8c-44 52 -93 94 -120 94c-24 0 -38 -23 -42 -59c-5 -40 -10 -100 -16 -149h117v-46h-124v-4c-8 -45 -38 -87 -87 -118c21 9 37 12 51 12
c52 0 98 -22 149 -22c49 0 84 32 111 66l8 -2c-15 -99 -69 -169 -139 -169c-61 0 -126 50 -189 50c-44 0 -87 -32 -116 -56z" />
    <glyph glyph-name="tbar" unicode="&#x167;" horiz-adv-x="392" 
d="M353 360h-155v-81h158v-51h-158v-83c0 -33 17 -66 87 -66c33 0 65 8 80 14l4 -6c-18 -27 -78 -97 -168 -97c-96 0 -139 62 -139 113v125h-60v51h60v81h-58v7l194 154v-92h199z" />
    <glyph glyph-name="tcaron" unicode="&#x165;" horiz-adv-x="391" 
d="M352 360h-155v-215c0 -33 17 -66 87 -66c33 0 65 8 80 14l4 -6c-18 -27 -78 -97 -168 -97c-96 0 -139 62 -139 113v257h-58v7l194 154v-92h199zM246 499h-8l14 216h106z" />
    <glyph glyph-name="tcommaaccent" unicode="&#x163;" horiz-adv-x="391" 
d="M352 360h-155v-215c0 -33 17 -66 87 -66c33 0 65 8 80 14l4 -6c-18 -27 -78 -97 -168 -97c-96 0 -139 62 -139 113v257h-58v7l194 154v-92h199zM274 -128c0 -63 -50 -113 -113 -140l-13 6c22 28 49 72 56 102c0 0 -2 -1 -5 -1c-33 0 -60 19 -60 51c0 34 27 55 64 55
c41 0 71 -28 71 -73z" />
    <glyph glyph-name="uni2009" unicode="&#x2009;" horiz-adv-x="40" 
 />
    <glyph glyph-name="thorn" unicode="&#xfe;" horiz-adv-x="521" 
d="M52 606l-59 47v6c19 8 121 48 195 67v-349c42 38 86 66 136 66c94 0 168 -72 168 -197c0 -150 -96 -250 -246 -250c-20 0 -39 0 -58 1v-185l80 -50v-6h-271v6l55 50v794zM246 360c-29 0 -49 -9 -58 -16v-279c9 -6 27 -14 49 -14c65 0 113 68 113 166
c0 89 -38 143 -104 143z" />
    <glyph glyph-name="three.lin" horiz-adv-x="441" 
d="M74 328l-8 15c99 68 142 115 142 170c0 43 -29 71 -78 71c-46 0 -79 -29 -96 -45l-10 6c20 46 71 127 187 127c91 0 139 -50 139 -114c0 -61 -50 -107 -128 -141c102 -3 186 -50 186 -159c0 -127 -116 -240 -387 -274l-5 12c150 72 234 155 234 238
c0 73 -54 101 -117 101c-25 0 -50 -5 -59 -7z" />
    <glyph glyph-name="three.num" horiz-adv-x="233" 
d="M27 504l-4 11c44 26 68 46 68 70c0 20 -13 30 -32 30c-21 0 -38 -11 -44 -15l-7 6c14 26 47 63 107 63c53 0 76 -24 76 -52c0 -26 -22 -51 -79 -67c5 0 9 1 13 1c57 0 94 -29 94 -71c0 -56 -41 -108 -210 -124l-4 10c74 34 101 67 101 100c0 27 -22 40 -54 40
c-9 0 -20 -1 -25 -2z" />
    <glyph glyph-name="three.sc" horiz-adv-x="377" 
d="M60 254l-7 14c86 56 116 91 116 132c0 33 -24 53 -61 53s-63 -20 -77 -32l-9 7c18 39 64 103 161 103c76 0 116 -42 116 -91c0 -46 -40 -84 -104 -110c82 -3 151 -42 151 -128c0 -113 -113 -194 -325 -215l-4 12c134 61 185 126 185 184c0 53 -43 77 -94 77
c-21 0 -41 -4 -48 -6z" />
    <glyph glyph-name="three.sub" horiz-adv-x="233" 
d="M27 30l-4 11c44 26 68 46 68 70c0 20 -13 30 -32 30c-21 0 -38 -11 -44 -15l-7 6c14 26 47 63 107 63c53 0 76 -24 76 -52c0 -26 -22 -51 -79 -67c5 0 9 1 13 1c57 0 94 -29 94 -71c0 -56 -41 -108 -210 -124l-4 10c74 34 101 67 101 100c0 27 -22 40 -54 40
c-9 0 -20 -1 -25 -2z" />
    <glyph glyph-name="three.sup" horiz-adv-x="233" 
d="M27 557l-4 11c44 26 68 46 68 70c0 20 -13 30 -32 30c-21 0 -38 -11 -44 -15l-7 6c14 26 47 63 107 63c53 0 76 -24 76 -52c0 -26 -22 -51 -79 -67c5 0 9 1 13 1c57 0 94 -29 94 -71c0 -56 -41 -108 -210 -124l-4 10c74 34 101 67 101 100c0 27 -22 40 -54 40
c-9 0 -20 -1 -25 -2z" />
    <glyph glyph-name="threeeighths" unicode="&#x215c;" horiz-adv-x="584" 
d="M432 304c77 0 120 -29 120 -63s-39 -53 -71 -63c64 -35 84 -60 84 -97c0 -48 -54 -88 -138 -88c-82 0 -130 30 -130 68c0 36 41 58 80 72c-51 27 -71 55 -71 88c0 53 57 83 126 83zM11 0l442 662h67l-443 -662h-66zM37 504l-4 11c44 26 68 46 68 70c0 20 -13 30 -32 30
c-21 0 -38 -11 -44 -15l-7 6c14 26 47 63 107 63c53 0 76 -24 76 -52c0 -26 -22 -51 -79 -67c5 0 9 1 13 1c57 0 94 -29 94 -71c0 -56 -41 -108 -210 -124l-4 10c74 34 101 67 101 100c0 27 -22 40 -54 40c-9 0 -20 -1 -25 -2zM468 61c0 15 -5 28 -62 58
c-11 -9 -24 -25 -24 -47c0 -23 16 -39 46 -39c26 0 40 13 40 28zM395 245c0 -16 12 -28 60 -53c9 8 16 21 16 37c0 25 -17 40 -42 40c-22 0 -34 -11 -34 -24z" />
    <glyph glyph-name="threequarters" unicode="&#xbe;" horiz-adv-x="560" 
d="M486 36l37 -31v-5h-169v5l37 31v36h-132v15l145 212h82v-173h61l-34 -54h-27v-36zM12 0l442 662h67l-443 -662h-66zM37 504l-4 11c44 26 68 46 68 70c0 20 -13 30 -32 30c-21 0 -38 -11 -44 -15l-7 6c14 26 47 63 107 63c53 0 76 -24 76 -52c0 -26 -22 -51 -79 -67
c5 0 9 1 13 1c57 0 94 -29 94 -71c0 -56 -41 -108 -210 -124l-4 10c74 34 101 67 101 100c0 27 -22 40 -54 40c-9 0 -20 -1 -25 -2zM323 126h68v100z" />
    <glyph glyph-name="threesuperior" unicode="&#xb3;" horiz-adv-x="233" 
d="M27 557l-4 11c44 26 68 46 68 70c0 20 -13 30 -32 30c-21 0 -38 -11 -44 -15l-7 6c14 26 47 63 107 63c53 0 76 -24 76 -52c0 -26 -22 -51 -79 -67c5 0 9 1 13 1c57 0 94 -29 94 -71c0 -56 -41 -108 -210 -124l-4 10c74 34 101 67 101 100c0 27 -22 40 -54 40
c-9 0 -20 -1 -25 -2z" />
    <glyph glyph-name="trademark" unicode="&#x2122;" horiz-adv-x="724" 
d="M699 662v-5l-32 -32v-216l32 -28v-6h-145v6l31 28v168l-100 -181h-14l-95 178v-165l33 -28v-6h-103v6l34 28v210l-28 37v6h109l85 -161l87 161h106zM8 581v81h280v-80h-6l-44 48h-48v-222l36 -27v-6h-156v6l37 27v222h-50l-42 -49h-7z" />
    <glyph glyph-name="two.lin" horiz-adv-x="507" 
d="M390 114l79 109h7v-223h-459v27c201 253 263 342 263 439c0 72 -48 110 -110 110c-60 0 -99 -37 -121 -59l-12 7c25 70 86 148 206 148c119 0 191 -73 191 -177c1 -127 -109 -226 -292 -381h248z" />
    <glyph glyph-name="two.num" horiz-adv-x="276" 
d="M203 436l43 56h7v-127h-242v18c85 97 114 137 114 175c0 29 -18 45 -43 45c-26 0 -46 -17 -56 -27l-10 5c13 38 47 88 120 88c60 0 97 -30 97 -80c0 -55 -57 -105 -139 -153h109z" />
    <glyph glyph-name="two.sc" horiz-adv-x="437" 
d="M327 102l70 93h7v-195h-383v27c158 190 210 260 210 336c0 54 -37 82 -87 82c-46 0 -78 -27 -96 -44l-12 6c22 62 72 124 174 124c100 0 160 -57 160 -144c0 -97 -89 -178 -232 -285h189z" />
    <glyph glyph-name="two.sub" horiz-adv-x="276" 
d="M203 -38l43 56h7v-127h-242v18c85 97 114 137 114 175c0 29 -18 45 -43 45c-26 0 -46 -17 -56 -27l-10 5c13 38 47 88 120 88c60 0 97 -30 97 -80c0 -55 -57 -105 -139 -153h109z" />
    <glyph glyph-name="two.sup" horiz-adv-x="276" 
d="M203 489l43 56h7v-127h-242v18c85 97 114 137 114 175c0 29 -18 45 -43 45c-26 0 -46 -17 -56 -27l-10 5c13 38 47 88 120 88c60 0 97 -30 97 -80c0 -55 -57 -105 -139 -153h109z" />
    <glyph glyph-name="twosuperior" unicode="&#xb2;" horiz-adv-x="276" 
d="M203 489l43 56h7v-127h-242v18c85 97 114 137 114 175c0 29 -18 45 -43 45c-26 0 -46 -17 -56 -27l-10 5c13 38 47 88 120 88c60 0 97 -30 97 -80c0 -55 -57 -105 -139 -153h109z" />
    <glyph glyph-name="twothirds" unicode="&#x2154;" horiz-adv-x="603" 
d="M75 0l442 662h67l-443 -662h-66zM213 436l43 56h7v-127h-242v18c85 97 114 137 114 175c0 29 -18 45 -43 45c-26 0 -46 -17 -56 -27l-10 5c13 38 47 88 120 88c60 0 97 -30 97 -80c0 -55 -57 -105 -139 -153h109zM391 139l-4 11c44 26 68 46 68 71c0 19 -13 29 -32 29
c-21 0 -38 -10 -44 -15l-7 6c14 26 47 63 107 63c53 0 76 -23 76 -52c0 -26 -22 -50 -76 -67c3 1 6 1 10 1c57 0 94 -28 94 -71c0 -56 -41 -108 -210 -123l-4 9c74 35 101 68 101 100c0 27 -22 40 -54 40c-9 0 -20 -1 -25 -2z" />
    <glyph glyph-name="uacute" unicode="&#xfa;" horiz-adv-x="539" 
d="M59 338l-53 43v6c18 7 113 40 187 59v-310c0 -34 21 -60 66 -60c33 0 61 16 78 29v233l-65 43v6c20 7 122 41 200 59v-364l66 -37v-7s-155 -39 -201 -49v77c-51 -49 -102 -76 -146 -76c-87 0 -132 64 -132 109v239zM412 644l-181 -159l-8 5l93 223z" />
    <glyph glyph-name="ubreve" unicode="&#x16d;" horiz-adv-x="539" 
d="M59 338l-53 43v6c18 7 113 40 187 59v-310c0 -34 21 -60 66 -60c33 0 61 16 78 29v233l-65 43v6c20 7 122 41 200 59v-364l66 -37v-7s-155 -39 -201 -49v77c-51 -49 -102 -76 -146 -76c-87 0 -132 64 -132 109v239zM267 575c52 0 87 44 100 72l8 -1
c2 -79 -35 -149 -108 -149c-74 0 -110 68 -108 149l8 1c14 -29 47 -72 100 -72z" />
    <glyph glyph-name="ucircumflex" unicode="&#xfb;" horiz-adv-x="539" 
d="M59 338l-53 43v6c18 7 113 40 187 59v-310c0 -34 21 -60 66 -60c33 0 61 16 78 29v233l-65 43v6c20 7 122 41 200 59v-364l66 -37v-7s-155 -39 -201 -49v77c-51 -49 -102 -76 -146 -76c-87 0 -132 64 -132 109v239zM140 483l121 229l121 -229l-8 -5l-113 94l-113 -94z
" />
    <glyph glyph-name="udieresis" unicode="&#xfc;" horiz-adv-x="539" 
d="M59 338l-53 43v6c18 7 113 40 187 59v-310c0 -34 21 -60 66 -60c33 0 61 16 78 29v233l-65 43v6c20 7 122 41 200 59v-364l66 -37v-7s-155 -39 -201 -49v77c-51 -49 -102 -76 -146 -76c-87 0 -132 64 -132 109v239zM167 635c36 0 64 -28 64 -65c0 -36 -28 -63 -64 -63
c-37 0 -64 27 -64 63c0 37 27 65 64 65zM352 635c35 0 63 -28 63 -65c0 -36 -28 -62 -63 -62c-37 0 -65 26 -65 62c0 37 28 65 65 65z" />
    <glyph glyph-name="ugrave" unicode="&#xf9;" horiz-adv-x="539" 
d="M59 338l-53 43v6c18 7 113 40 187 59v-310c0 -34 21 -60 66 -60c33 0 61 16 78 29v233l-65 43v6c20 7 122 41 200 59v-364l66 -37v-7s-155 -39 -201 -49v77c-51 -49 -102 -76 -146 -76c-87 0 -132 64 -132 109v239zM331 491l-8 -4l-181 158l96 70z" />
    <glyph glyph-name="uhungarumlaut" unicode="&#x171;" horiz-adv-x="539" 
d="M59 338l-53 43v6c18 7 113 40 187 59v-310c0 -34 21 -60 66 -60c33 0 61 16 78 29v233l-65 43v6c20 7 122 41 200 59v-364l66 -37v-7s-155 -39 -201 -49v77c-51 -49 -102 -76 -146 -76c-87 0 -132 64 -132 109v239zM456 668l-135 -184l-8 4l51 221zM312 668l-134 -184
l-8 4l50 221z" />
    <glyph glyph-name="umacron" unicode="&#x16b;" horiz-adv-x="539" 
d="M59 338l-53 43v6c18 7 113 40 187 59v-310c0 -34 21 -60 66 -60c33 0 61 16 78 29v233l-65 43v6c20 7 122 41 200 59v-364l66 -37v-7s-155 -39 -201 -49v77c-51 -49 -102 -76 -146 -76c-87 0 -132 64 -132 109v239zM146 520v74h231v-74h-231z" />
    <glyph glyph-name="underscore" unicode="_" horiz-adv-x="378" 
d="M383 -130h-388v53h388v-53z" />
    <glyph glyph-name="uogonek" unicode="&#x173;" horiz-adv-x="539" 
d="M337 -8v73c-51 -48 -102 -75 -146 -75c-87 0 -132 64 -132 109v239l-53 43v6c18 7 113 40 187 59v-310c0 -34 21 -60 66 -60c33 0 61 16 78 29v233l-65 43v6c20 7 122 41 200 59v-364l66 -37v-7s-98 -26 -164 -40c-23 -28 -56 -73 -56 -123c0 -35 24 -62 70 -62
c26 0 43 5 54 9l4 -5c-16 -25 -70 -73 -142 -73c-66 0 -106 37 -106 90c0 73 82 127 139 158z" />
    <glyph glyph-name="uring" unicode="&#x16f;" horiz-adv-x="539" 
d="M59 338l-53 43v6c18 7 113 40 187 59v-310c0 -34 21 -60 66 -60c33 0 61 16 78 29v233l-65 43v6c20 7 122 41 200 59v-364l66 -37v-7s-155 -39 -201 -49v77c-51 -49 -102 -76 -146 -76c-87 0 -132 64 -132 109v239zM175 579c0 49 43 89 90 89c48 0 90 -40 90 -89
c0 -50 -42 -89 -90 -89s-90 38 -90 89zM218 579c0 -26 19 -50 47 -50c27 0 47 23 47 50c0 26 -20 50 -47 50c-28 0 -47 -24 -47 -50z" />
    <glyph glyph-name="utilde" unicode="&#x169;" horiz-adv-x="539" 
d="M59 338l-53 43v6c18 7 113 40 187 59v-310c0 -34 21 -60 66 -60c33 0 61 16 78 29v233l-65 43v6c20 7 122 41 200 59v-364l66 -37v-7s-155 -39 -201 -49v77c-51 -49 -102 -76 -146 -76c-87 0 -132 64 -132 109v239zM219 626c24 0 97 -26 122 -26c17 0 40 25 64 56l7 -3
c-9 -73 -41 -138 -75 -138c-29 0 -98 25 -123 25c-17 0 -41 -25 -65 -55l-7 2c10 67 45 139 77 139z" />
    <glyph glyph-name="wacute" unicode="&#x1e83;" horiz-adv-x="698" 
d="M260 31c-6 -17 -15 -37 -15 -37h-30s-11 23 -25 55l-148 328l-48 48v6h237v-6l-46 -48l80 -191l63 161l-12 30l-45 48v6h228v-6l-48 -48l71 -191l69 191l-51 48v6h164v-6l-49 -48l-135 -349c-8 -19 -14 -34 -14 -34h-30s-8 17 -22 50l-96 230zM513 644l-181 -159l-8 5
l93 223z" />
    <glyph glyph-name="wacute.001" horiz-adv-x="664" 
d="M255 33c-7 -17 -17 -39 -17 -39h-31s-8 20 -25 57l-138 326l-49 48v6h239v-6l-46 -48l72 -189l100 253h31l102 -251l63 187l-51 48v6h164v-6l-49 -48l-125 -348c-7 -17 -14 -35 -14 -35h-31s-12 27 -23 52l-86 204zM509 644l-181 -159l-8 5l93 223z" />
    <glyph glyph-name="wcircumflex" unicode="&#x175;" horiz-adv-x="698" 
d="M260 31c-6 -17 -15 -37 -15 -37h-30s-11 23 -25 55l-148 328l-48 48v6h237v-6l-46 -48l80 -191l63 161l-12 30l-45 48v6h228v-6l-48 -48l71 -191l69 191l-51 48v6h164v-6l-49 -48l-135 -349c-8 -19 -14 -34 -14 -34h-30s-8 17 -22 50l-96 230zM259 483l121 229l121 -229
l-8 -5l-113 94l-113 -94z" />
    <glyph glyph-name="wcircumflex.001" horiz-adv-x="664" 
d="M255 33c-7 -17 -17 -39 -17 -39h-31s-8 20 -25 57l-138 326l-49 48v6h239v-6l-46 -48l72 -189l100 253h31l102 -251l63 187l-51 48v6h164v-6l-49 -48l-125 -348c-7 -17 -14 -35 -14 -35h-31s-12 27 -23 52l-86 204zM252 483l121 229l121 -229l-8 -5l-113 94l-113 -94z
" />
    <glyph glyph-name="wdieresis" unicode="&#x1e85;" horiz-adv-x="698" 
d="M260 31c-6 -17 -15 -37 -15 -37h-30s-11 23 -25 55l-148 328l-48 48v6h237v-6l-46 -48l80 -191l63 161l-12 30l-45 48v6h228v-6l-48 -48l71 -191l69 191l-51 48v6h164v-6l-49 -48l-135 -349c-8 -19 -14 -34 -14 -34h-30s-8 17 -22 50l-96 230zM286 635
c36 0 64 -28 64 -65c0 -36 -28 -63 -64 -63c-37 0 -64 27 -64 63c0 37 27 65 64 65zM471 635c35 0 63 -28 63 -65c0 -36 -28 -62 -63 -62c-37 0 -65 26 -65 62c0 37 28 65 65 65z" />
    <glyph glyph-name="wdieresis.001" horiz-adv-x="664" 
d="M255 33c-7 -17 -17 -39 -17 -39h-31s-8 20 -25 57l-138 326l-49 48v6h239v-6l-46 -48l72 -189l100 253h31l102 -251l63 187l-51 48v6h164v-6l-49 -48l-125 -348c-7 -17 -14 -35 -14 -35h-31s-12 27 -23 52l-86 204zM277 635c36 0 64 -28 64 -65c0 -36 -28 -63 -64 -63
c-37 0 -64 27 -64 63c0 37 27 65 64 65zM462 635c35 0 63 -28 63 -65c0 -36 -28 -62 -63 -62c-37 0 -65 26 -65 62c0 37 28 65 65 65z" />
    <glyph glyph-name="wgrave" unicode="&#x1e81;" horiz-adv-x="698" 
d="M260 31c-6 -17 -15 -37 -15 -37h-30s-11 23 -25 55l-148 328l-48 48v6h237v-6l-46 -48l80 -191l63 161l-12 30l-45 48v6h228v-6l-48 -48l71 -191l69 191l-51 48v6h164v-6l-49 -48l-135 -349c-8 -19 -14 -34 -14 -34h-30s-8 17 -22 50l-96 230zM442 491l-8 -4l-181 158
l96 70z" />
    <glyph glyph-name="wgrave.001" horiz-adv-x="664" 
d="M255 33c-7 -17 -17 -39 -17 -39h-31s-8 20 -25 57l-138 326l-49 48v6h239v-6l-46 -48l72 -189l100 253h31l102 -251l63 187l-51 48v6h164v-6l-49 -48l-125 -348c-7 -17 -14 -35 -14 -35h-31s-12 27 -23 52l-86 204zM429 491l-8 -4l-181 158l96 70z" />
    <glyph glyph-name="yacute" unicode="&#xfd;" horiz-adv-x="449" 
d="M406 376l-142 -355c-48 -121 -74 -205 -82 -265h-139v5c41 33 102 103 157 242l5 12l-162 361l-48 49v6h247v-6l-51 -49l80 -193l72 193l-51 49v6h163v-6zM396 644l-181 -159l-8 5l93 223z" />
    <glyph glyph-name="ycircumflex" unicode="&#x177;" horiz-adv-x="449" 
d="M406 376l-142 -355c-48 -121 -74 -205 -82 -265h-139v5c41 33 102 103 157 242l5 12l-162 361l-48 49v6h247v-6l-51 -49l80 -193l72 193l-51 49v6h163v-6zM127 483l121 229l121 -229l-8 -5l-113 94l-113 -94z" />
    <glyph glyph-name="ydieresis" unicode="&#xff;" horiz-adv-x="449" 
d="M406 376l-142 -355c-48 -121 -74 -205 -82 -265h-139v5c41 33 102 103 157 242l5 12l-162 361l-48 49v6h247v-6l-51 -49l80 -193l72 193l-51 49v6h163v-6zM152 635c36 0 64 -28 64 -65c0 -36 -28 -63 -64 -63c-37 0 -64 27 -64 63c0 37 27 65 64 65zM337 635
c35 0 63 -28 63 -65c0 -36 -28 -62 -63 -62c-37 0 -65 26 -65 62c0 37 28 65 65 65z" />
    <glyph glyph-name="yen" unicode="&#xa5;" horiz-adv-x="603" 
d="M464 592l-70 65v5h207v-5l-61 -61l-139 -222h145v-48h-160v-55h160v-49h-160v-153l70 -63v-6h-291l-1 6l70 63v153h-160v49h160v55h-160v48h132l-143 222l-61 61v5h299v-5l-70 -61l118 -191z" />
    <glyph glyph-name="yen.sc" horiz-adv-x="523" 
d="M389 462l-57 55v6h179v-6l-50 -51l-108 -169h116v-44h-130v-46h130v-45h-130v-102l57 -54v-6h-256v6l58 54v102h-130v45h130v46h-130v44h105l-111 169l-50 51v6h262v-6l-57 -51l87 -139z" />
    <glyph glyph-name="ygrave" unicode="&#x1ef3;" horiz-adv-x="449" 
d="M406 376l-142 -355c-48 -121 -74 -205 -82 -265h-139v5c41 33 102 103 157 242l5 12l-162 361l-48 49v6h247v-6l-51 -49l80 -193l72 193l-51 49v6h163v-6zM313 491l-8 -4l-181 158l96 70z" />
    <glyph glyph-name="zacute" unicode="&#x17a;" horiz-adv-x="426" 
d="M399 145h6v-145h-391v14l217 366h-116l-77 -82h-6v133h363v-14l-217 -361h136zM358 644l-181 -159l-8 5l93 223z" />
    <glyph glyph-name="zacute.pl" horiz-adv-x="426" 
d="M399 145h6v-145h-391v14l217 366h-116l-77 -82h-6v133h363v-14l-217 -361h136zM315 682l-112 -198l-8 1l10 225z" />
    <glyph glyph-name="zcaron" unicode="&#x17e;" horiz-adv-x="426" 
d="M399 145h6v-145h-391v14l217 366h-116l-77 -82h-6v133h363v-14l-217 -361h136zM96 707l8 5l113 -94l113 94l8 -5l-121 -229z" />
    <glyph glyph-name="zdotaccent" unicode="&#x17c;" horiz-adv-x="426" 
d="M399 145h6v-145h-391v14l217 366h-116l-77 -82h-6v133h363v-14l-217 -361h136zM143 574c0 38 32 68 70 68c39 0 69 -30 69 -68s-30 -67 -69 -67c-38 0 -70 29 -70 67z" />
    <glyph glyph-name="zero.den" horiz-adv-x="349" 
d="M125 149c0 -67 27 -114 52 -114c26 0 46 45 46 114c0 70 -27 114 -50 114c-25 0 -48 -47 -48 -114zM15 145c0 95 78 160 158 160c88 0 160 -57 160 -148c0 -105 -80 -163 -158 -163c-81 0 -160 56 -160 151z" />
    <glyph glyph-name="zero.num" horiz-adv-x="349" 
d="M125 513c0 -67 27 -114 52 -114c26 0 46 45 46 114c0 70 -27 114 -50 114c-25 0 -48 -47 -48 -114zM15 509c0 95 78 160 158 160c88 0 160 -57 160 -148c0 -105 -80 -163 -158 -163c-81 0 -160 56 -160 151z" />
    <glyph glyph-name="zero.lin" horiz-adv-x="652" 
d="M195 330c0 -172 69 -280 133 -280c65 0 129 107 129 280c0 174 -70 285 -133 285c-64 0 -129 -113 -129 -285zM34 322c0 201 139 352 290 352c158 0 294 -135 294 -332c0 -212 -143 -354 -288 -354c-155 0 -296 134 -296 334z" />
    <glyph glyph-name="zero.sc" horiz-adv-x="555" 
d="M177 261c0 -134 56 -214 103 -214c49 0 99 78 99 214s-58 217 -104 217c-47 0 -98 -84 -98 -217zM32 254c0 164 119 279 243 279c133 0 248 -102 248 -262c0 -175 -123 -281 -241 -281c-129 0 -250 101 -250 264z" />
    <glyph glyph-name="zero.sub" horiz-adv-x="349" 
d="M125 39c0 -67 27 -114 52 -114c26 0 46 45 46 114c0 70 -27 114 -50 114c-25 0 -48 -47 -48 -114zM15 35c0 95 78 160 158 160c88 0 160 -57 160 -148c0 -105 -80 -163 -158 -163c-81 0 -160 56 -160 151z" />
    <glyph glyph-name="zero.sup" horiz-adv-x="349" 
d="M125 566c0 -67 27 -114 52 -114c26 0 46 45 46 114c0 70 -27 114 -50 114c-25 0 -48 -47 -48 -114zM15 562c0 95 78 160 158 160c88 0 160 -57 160 -148c0 -105 -80 -163 -158 -163c-81 0 -160 56 -160 151z" />
    <glyph glyph-name="ligature" horiz-adv-x="0" 
 />
    <glyph glyph-name="component" horiz-adv-x="0" 
 />
    <glyph glyph-name="uni021A" unicode="&#x21a;" horiz-adv-x="670" 
d="M408 -128c0 -63 -50 -113 -113 -140l-13 6c22 28 49 72 56 102c0 0 -2 -1 -5 -1c-33 0 -60 19 -60 51c0 34 27 55 64 55c41 0 71 -28 71 -73zM27 662h616v-164h-7l-97 107h-128v-538l81 -61v-6h-316v6l82 61v538h-129l-96 -107h-6v164z" />
    <glyph glyph-name="uni021B" unicode="&#x21b;" horiz-adv-x="391" 
d="M352 360h-155v-215c0 -33 17 -66 87 -66c33 0 65 8 80 14l4 -6c-18 -27 -78 -97 -168 -97c-96 0 -139 62 -139 113v257h-58v7l194 154v-92h199zM274 -128c0 -63 -50 -113 -113 -140l-13 6c22 28 49 72 56 102c0 0 -2 -1 -5 -1c-33 0 -60 19 -60 51c0 34 27 55 64 55
c41 0 71 -28 71 -73z" />
    <glyph glyph-name="uni021A.sc" horiz-adv-x="559" 
d="M25 523h509v-140h-6l-85 89h-93v-415l69 -51v-6h-279v6l69 51v415h-94l-84 -89h-6v140zM353 -128c0 -63 -50 -113 -113 -140l-13 6c22 28 49 72 56 102c0 0 -2 -1 -5 -1c-33 0 -60 19 -60 51c0 34 27 55 64 55c41 0 71 -28 71 -73z" />
    </font>
</defs>
</svg>
